SplineFontDB: 3.2
FontName: ExploreSans
FullName: Explore Sans
FamilyName: Explore Sans
Weight: Normal
Copyright: 
Version: 1.000
ItalicAngle: 0
UnderlinePosition: -102
UnderlineWidth: 51
Ascent: 819
Descent: 205
InvalidEm: 0
sfntRevision: 0x00010000
LayerCount: 2
Layer: 0 0 "Arri+AOgA-re" 1
Layer: 1 0 "Avant" 1
XUID: [1021 760 1580941675 15410217]
StyleMap: 0x0040
FSType: 4
OS2Version: 4
OS2_WeightWidthSlopeOnly: 0
OS2_UseTypoMetrics: 0
CreationTime: 1757699245
ModificationTime: 1757930713
PfmFamily: 33
TTFWeight: 400
TTFWidth: 5
LineGap: 192
VLineGap: 0
Panose: 0 0 0 0 0 0 0 0 0 0
OS2TypoAscent: 800
OS2TypoAOffset: 0
OS2TypoDescent: -224
OS2TypoDOffset: 0
OS2TypoLinegap: 192
OS2WinAscent: 800
OS2WinAOffset: 0
OS2WinDescent: 224
OS2WinDOffset: 0
HheadAscent: 800
HheadAOffset: 0
HheadDescent: 224
HheadDOffset: 0
OS2SubXSize: 666
OS2SubYSize: 614
OS2SubXOff: 0
OS2SubYOff: 77
OS2SupXSize: 666
OS2SupYSize: 614
OS2SupXOff: 0
OS2SupYOff: 358
OS2StrikeYSize: 51
OS2StrikeYPos: 317
OS2CapHeight: 708
OS2XHeight: 520
OS2FamilyClass: 2049
OS2Vendor: 'NONE'
OS2CodePages: 00000001.00000000
OS2UnicodeRanges: 00000047.00000002.00000000.00000000
Lookup: 258 0 0 "ExploreSans-Kerning Latin" { "ExploreSans-Kerning Latin-1" [153,0,4] } ['kern' ('DFLT' <'dflt' > 'latn' <'dflt' > ) ]
MarkAttachClasses: 1
DEI: 91125
KernClass2: 37 35 "ExploreSans-Kerning Latin-1"
 50 A Agrave Aacute Acircumflex Atilde Adieresis Aring
 10 C Ccedilla
 1 D
 1 F
 1 G
 1 J
 1 K
 1 L
 46 O Q Ograve Oacute Ocircumflex Otilde Odieresis
 1 P
 1 R
 1 S
 1 T
 37 U Ugrave Uacute Ucircumflex Udieresis
 1 V
 1 W
 1 X
 8 Y Yacute
 50 a agrave aacute acircumflex atilde adieresis aring
 3 b p
 10 c ccedilla
 40 e ae egrave eacute ecircumflex edieresis
 1 f
 1 g
 46 i igrave iacute icircumflex idieresis dotlessi
 1 j
 1 k
 1 l
 49 ograve oacute ocircumflex otilde odieresis oslash
 1 r
 1 s
 1 t
 1 v
 1 w
 1 x
 18 y yacute ydieresis
 50 A Agrave Aacute Acircumflex Atilde Adieresis Aring
 10 C Ccedilla
 1 D
 1 G
 1 J
 1 K

StartChar: A
Encoding: 65 65 2
Width: 587
GlyphClass: 1
Flags: W
LayerCount: 2
Back
SplineSet
232 708 m 5
 468 708 l 1
 693 0 l 1
 504 0 l 1
 461 153 l 1
 242 153 l 1
 197 0 l 1
 5 0 l 1
 232 708 l 5
349 528 m 1
 282 293 l 1
 422 293 l 1
 357 528 l 1
 349 528 l 1
EndSplineSet
Fore
SplineSet
80.916015625 16 m 1
 80.916015625 24 142.914156255 206 142.914156255 198 c 1
 142.914156255 206 443.5546875 206 443.5546875 198 c 1
 443.5546875 206 499.5546875 24 499.5546875 16 c 1
 559.676757812 16 l 1
 559.676757812 24 337.806640625 716 337.806640625 708 c 1
 251.282226562 708 l 1
 251.282226562 716 20 24 20 16 c 1
 80.916015625 16 l 1
285.916992188 664 m 1
 294.64453125 664 l 1
 294.64453125 672 300.549804688 672 300.549804688 664 c 1
 300.549804688 672 429.862815824 254 429.862815824 246 c 1
 158.608621899 246 l 1
 158.608621899 254 285.916992188 672 285.916992188 664 c 1
EndSplineSet
EndChar

StartChar: AE
Encoding: 198 198 3
Width: 891
GlyphClass: 1
Flags: W
LayerCount: 2
Back
SplineSet
347.799804688 708 m 1
 919.799804688 708 l 1
 919.799804688 557 l 1
 636.799804688 557 l 1
 636.799804688 444 l 1
 841.799804688 444 l 1
 841.799804688 293 l 1
 636.799804688 293 l 1
 636.799804688 150 l 1
 919.799804688 150 l 1
 919.799804688 0 l 1
 444.799804688 0 l 1
 444.799804688 153 l 1
 272.799804688 153 l 1
 199.799804688 0 l 1
 -2.2001953125 0 l 1
 347.799804688 708 l 1
444.799804688 556 m 1
 327.799804688 304 l 1
 444.799804688 304 l 1
 444.799804688 556 l 1
EndSplineSet
Fore
SplineSet
833.34765625 658 m 1
 833.34765625 666 833.34765625 716 833.34765625 708 c 1
 352.905974914 708 l 1
 352.905974914 716 36 24 36 16 c 1
 100.278320312 16 l 1
 100.278320312 24 185.483572424 206 185.483572424 198 c 1
 405.966268262 198 l 1
 405.966268262 206 405.966268262 24 405.966268262 16 c 1
 817.34765625 16 l 1
 817.34765625 24 817.34765625 74 817.34765625 66 c 1
 464.225837727 66 l 1
 464.225837727 74 457.34765625 372 457.34765625 364 c 1
 755.34765625 364 l 1
 755.34765625 372 755.34765625 426 755.34765625 418 c 1
 457.34765625 418 l 1
 457.34765625 426 457.34765625 666 457.34765625 658 c 1
 833.34765625 658 l 1
208.280094389 248 m 1
 208.280094389 256 399.107710527 689.883789062 399.107710527 681.883789062 c 1
 399.107710527 689.883789062 405.966268262 256 405.966268262 248 c 1
 208.280094389 248 l 1
EndSplineSet
EndChar

StartChar: Aacute
Encoding: 193 193 4
Width: 587
GlyphClass: 1
Flags: HW
LayerCount: 2
Back
SplineSet
246 778 m 1
 209 857 l 1
 430 971 l 1
 489 855 l 1
 246 778 l 1
231 708 m 5
 467 708 l 1
 692 0 l 1
 503 0 l 1
 460 153 l 1
 241 153 l 1
 196 0 l 1
 4 0 l 1
 231 708 l 5
348 528 m 1
 281 293 l 1
 421 293 l 1
 356 528 l 1
 348 528 l 1
EndSplineSet
Fore
Refer: 59 769 N 1 0 0 1 295.644 40 2
Refer: 2 65 N 1 0 0 1 0 0 3
EndChar

StartChar: Acircumflex
Encoding: 194 194 5
Width: 587
GlyphClass: 1
Flags: HW
LayerCount: 2
Back
SplineSet
165 841 m 25
 320 971 l 1
 386 971 l 1
 541 841 l 1
 484 770 l 1
 353 876 l 1
 214 770 l 1
 165 841 l 25
231 708 m 5
 467 708 l 1
 692 0 l 1
 503 0 l 1
 460 153 l 1
 241 153 l 1
 196 0 l 1
 4 0 l 1
 231 708 l 5
348 528 m 1
 281 293 l 1
 421 293 l 1
 356 528 l 1
 348 528 l 1
EndSplineSet
Fore
Refer: 163 770 N 1 0 0 1 301.644 40 2
Refer: 2 65 N 1 0 0 1 0 0 3
EndChar

StartChar: Adieresis
Encoding: 196 196 6
Width: 587
GlyphClass: 1
Flags: HW
LayerCount: 2
Back
SplineSet
397 878 m 4
 397 896.666666667 403.833333333 912.833333333 417.5 926.5 c 0
 431.166666667 940.166666667 447.333333333 947 466 947 c 0
 484.666666667 947 500.833333333 940.166666667 514.5 926.5 c 0
 528.166666667 912.833333333 535 896.666666667 535 878 c 0
 535 859.333333333 528.166666667 843.166666667 514.5 829.5 c 0
 500.833333333 815.833333333 484.666666667 809 466 809 c 0
 447.333333333 809 431.166666667 815.833333333 417.5 829.5 c 0
 403.833333333 843.166666667 397 859.333333333 397 878 c 4
171 878 m 0
 171 896.666666667 177.833333333 912.833333333 191.5 926.5 c 0
 205.166666667 940.166666667 221.333333333 947 240 947 c 0
 258.666666667 947 274.833333333 940.166666667 288.5 926.5 c 0
 302.166666667 912.833333333 309 896.666666667 309 878 c 0
 309 859.333333333 302.166666667 843.166666667 288.5 829.5 c 0
 274.833333333 815.833333333 258.666666667 809 240 809 c 0
 221.333333333 809 205.166666667 815.833333333 191.5 829.5 c 0
 177.833333333 843.166666667 171 859.333333333 171 878 c 0
231 708 m 5
 467 708 l 1
 692 0 l 1
 503 0 l 1
 460 153 l 1
 241 153 l 1
 196 0 l 1
 4 0 l 1
 231 708 l 5
348 528 m 1
 281 293 l 1
 421 293 l 1
 356 528 l 1
 348 528 l 1
EndSplineSet
Fore
Refer: 165 776 N 1 0 0 1 301.644 20 2
Refer: 2 65 N 1 0 0 1 0 0 3
EndChar

StartChar: Agrave
Encoding: 192 192 7
Width: 587
GlyphClass: 1
Flags: HW
LayerCount: 2
Back
SplineSet
452 778 m 1
 209 855 l 1
 268 971 l 1
 489 857 l 1
 452 778 l 1
231 708 m 5
 467 708 l 1
 692 0 l 1
 503 0 l 1
 460 153 l 1
 241 153 l 1
 196 0 l 1
 4 0 l 1
 231 708 l 5
348 528 m 1
 281 293 l 1
 421 293 l 1
 356 528 l 1
 348 528 l 1
EndSplineSet
Fore
Refer: 101 768 N 1 0 0 1 301.644 40 2
Refer: 2 65 N 1 0 0 1 0 0 3
EndChar

StartChar: Aring
Encoding: 197 197 8
Width: 587
GlyphClass: 1
Flags: HW
LayerCount: 2
Back
SplineSet
310 819 m 0
 310 807 313.666666667 797.333333333 321 790 c 0
 328.333333333 782.666666667 337.666666667 779 349 779 c 0
 360.333333333 779 369.666666667 782.666666667 377 790 c 0
 384.333333333 797.333333333 388 807 388 819 c 0
 388 831 384.333333333 840.666666667 377 848 c 0
 369.666666667 855.333333333 360.333333333 859 349 859 c 0
 337.666666667 859 328.333333333 855.333333333 321 848 c 0
 313.666666667 840.666666667 310 831 310 819 c 0
239 819 m 0
 239 850.333333333 249.666666667 876.5 271 897.5 c 0
 292.333333333 918.5 318.333333333 929 349 929 c 0
 379.666666667 929 405.666666667 918.5 427 897.5 c 0
 448.333333333 876.5 459 850.333333333 459 819 c 0
 459 787.666666667 448.333333333 761.5 427 740.5 c 0
 405.666666667 719.5 379.666666667 709 349 709 c 0
 318.333333333 709 292.333333333 719.5 271 740.5 c 0
 249.666666667 761.5 239 787.666666667 239 819 c 0
231 708 m 5
 467 708 l 1
 692 0 l 1
 503 0 l 1
 460 153 l 1
 241 153 l 1
 196 0 l 1
 4 0 l 1
 231 708 l 5
348 528 m 1
 281 293 l 1
 421 293 l 1
 356 528 l 1
 348 528 l 1
EndSplineSet
Fore
Refer: 166 778 N 1 0 0 1 302.644 -33 2
Refer: 2 65 N 1 0 0 1 0 0 3
EndChar

StartChar: Atilde
Encoding: 195 195 9
Width: 587
GlyphClass: 1
Flags: HW
LayerCount: 2
Back
SplineSet
134 823 m 1
 140.666666667 862.333333333 155.5 894.333333333 178.5 919 c 0
 201.5 943.666666667 232.666666667 956 272 956 c 0
 294.666666667 956 315.166666667 950.333333333 333.5 939 c 0
 351.833333333 927.666666667 368.333333333 916.5 383 905.5 c 0
 397.666666667 894.5 411.666666667 889 425 889 c 0
 453 889 469.333333333 908.666666667 474 948 c 1
 572 932 l 1
 563.333333333 885.333333333 547.5 850.833333333 524.5 828.5 c 0
 501.5 806.166666667 469.666666667 795 429 795 c 0
 407 795 387.333333333 800.5 370 811.5 c 0
 352.666666667 822.5 337.166666667 833.666666667 323.5 845 c 0
 309.833333333 856.333333333 296.333333333 862 283 862 c 0
 252.333333333 862 234.333333333 842.333333333 229 803 c 1
 134 823 l 1
231 708 m 5
 467 708 l 1
 692 0 l 1
 503 0 l 1
 460 153 l 1
 241 153 l 1
 196 0 l 1
 4 0 l 1
 231 708 l 5
348 528 m 1
 281 293 l 1
 421 293 l 1
 356 528 l 1
 348 528 l 1
EndSplineSet
Fore
Refer: 154 771 N 1 0 0 1 301.644 40 2
Refer: 2 65 N 1 0 0 1 0 0 3
EndChar

StartChar: B
Encoding: 66 66 10
Width: 582
GlyphClass: 1
Flags: W
LayerCount: 2
Back
SplineSet
68 708 m 5
 387 708 l 2
 451 708 504.833007812 692 548.5 660 c 0
 592.166992188 628 614 585 614 531 c 0
 614 445.666992188 580 393 512 373 c 1
 556 363.666992188 589.166992188 345.5 611.5 318.5 c 0
 633.833007812 291.5 645 250.666992188 645 196 c 0
 645 162.666992188 638.166992188 133 624.5 107 c 0
 610.833007812 81 592.5 60.5 569.5 45.5 c 0
 546.5 30.5 521.166992188 19.1669921875 493.5 11.5 c 0
 465.833007812 3.8330078125 437 0 407 0 c 2
 68 0 l 1
 68 708 l 5
260 548 m 1
 260 437 l 1
 354 437 l 2
 399.333007812 437 422 456 422 494 c 0
 422 530 399.666992188 548 355 548 c 2
 260 548 l 1
260 297 m 1
 260 160 l 1
 366 160 l 2
 424 160 453 182.666992188 453 228 c 0
 453 252.666992188 445.666992188 270.333007812 431 281 c 0
 416.333007812 291.666992188 393.666992188 297 363 297 c 2
 260 297 l 1
EndSplineSet
Fore
SplineSet
80 708 m 1
 80 716 80 24 80 16 c 1
 335.202072539 16 l 2
 462.82421875 16 542 86.826171875 542 205 c 0
 542 292.67578125 491.470703125 358.145507812 412.034179688 378.244140625 c 2
 412.034179688 386.244140625 391.361979167 391.879882812 391.361979167 383.879882812 c 1
 391.361979167 391.879882812 410.727539062 401.301757812 410.727539062 393.301757812 c 2
 477.290039062 423.206054688 510 472.001953125 510 542 c 0
 510 643.671875 434.247070312 708 314.975308642 708 c 2
 80 708 l 1
313.172839506 660 m 2
 351.693576389 660 448 653.333984375 448 538 c 0
 448 440.935546875 391.343496817 412 318.580246914 412 c 2
 140 412 l 1
 140 420 140 668 140 660 c 1
 313.172839506 660 l 2
140 56 m 1
 140 352 l 1
 314.10880829 352 l 2
 359.501598931 352 396.220465309 341.962890625 423.265913415 321.666992188 c 0
 459.124023438 296.134765625 478 255.015625 478 202 c 0
 478 110.768554688 422.050578854 56 335.202072539 56 c 2
 140 56 l 1
EndSplineSet
EndChar

StartChar: C
Encoding: 67 67 11
Width: 581
GlyphClass: 1
Flags: W
LayerCount: 2
Back
SplineSet
376.799804688 716 m 0
 431.466796875 716 478.133789062 708.666992188 516.799804688 694 c 0
 555.466796875 679.333007812 597.799804688 654 643.799804688 618 c 1
 562.799804688 503 l 1
 514.133789062 543.666992188 458.133789062 564 394.799804688 564 c 0
 342.133789062 564 300.966796875 545.333007812 271.299804688 508 c 0
 241.633789062 470.666992188 226.799804688 419 226.799804688 353 c 0
 226.799804688 214.333007812 283.799804688 145 397.799804688 145 c 0
 473.133789062 145 534.466796875 166.666992188 581.799804688 210 c 1
 657.799804688 87 l 1
 581.799804688 24.3330078125 488.466796875 -7 377.799804688 -7 c 0
 273.799804688 -7 190.633789062 25.5 128.299804688 90.5 c 0
 65.966796875 155.5 34.7998046875 243 34.7998046875 353 c 0
 34.7998046875 463 66.7998046875 551 130.799804688 617 c 0
 194.799804688 683 276.799804688 716 376.799804688 716 c 0
EndSplineSet
Fore
SplineSet
335.182034165 716 m 0
 74.1171875 716 56 433.618164062 56 360 c 0
 56 125.9140625 172.090820312 9 327.783942093 9 c 0
 439.073242188 9 512.594726562 57.5 544.400390625 82.70703125 c 1
 544.400390625 90.70703125 518.946289062 130.385742188 518.946289062 122.385742188 c 1
 460.384765625 78.884765625 396.931538992 57 328.708703602 57 c 0
 141.875 57 118 261.62890625 118 360 c 0
 118 564.331054688 211.383789062 669 336.106795674 669 c 0
 391.812839545 669 449.067382812 658.947265625 521.477539062 599.690429688 c 1
 521.477539062 607.690429688 546.336914062 642.78515625 546.336914062 634.78515625 c 1
 483.915039062 689.311523438 411.745784885 716 335.182034165 716 c 0
EndSplineSet
EndChar

StartChar: Ccedilla
Encoding: 199 199 12
Width: 590
GlyphClass: 1
Flags: HW
LayerCount: 2
Back
SplineSet
268.940429688 -224 m 0
 244.2734375 -224 222.940429688 -221 204.940429688 -215 c 1
 217.940429688 -134 l 1
 264.940429688 -134 l 2
 283.606445312 -134 298.106445312 -128.5 308.440429688 -117.5 c 0
 318.7734375 -106.5 323.940429688 -91.6669921875 323.940429688 -73 c 2
 323.940429688 0 l 1
 431.940429688 0 l 1
 431.940429688 -64 l 2
 431.940429688 -114.666992188 417.606445312 -154 388.940429688 -182 c 0
 360.2734375 -210 320.2734375 -224 268.940429688 -224 c 0
376.940429688 716 m 0
 431.606445312 716 478.2734375 708.666992188 516.940429688 694 c 0
 555.606445312 679.333007812 597.940429688 654 643.940429688 618 c 1
 562.940429688 503 l 1
 514.2734375 543.666992188 458.2734375 564 394.940429688 564 c 0
 342.2734375 564 301.106445312 545.333007812 271.440429688 508 c 0
 241.7734375 470.666992188 226.940429688 419 226.940429688 353 c 0
 226.940429688 214.333007812 283.940429688 145 397.940429688 145 c 0
 473.2734375 145 534.606445312 166.666992188 581.940429688 210 c 1
 657.940429688 87 l 1
 581.940429688 24.3330078125 488.606445312 -7 377.940429688 -7 c 0
 273.940429688 -7 190.7734375 25.5 128.440429688 90.5 c 0
 66.1064453125 155.5 34.9404296875 243 34.9404296875 353 c 0
 34.9404296875 463 66.9404296875 551 130.940429688 617 c 0
 194.940429688 683 276.940429688 716 376.940429688 716 c 0
EndSplineSet
Fore
Refer: 167 807 N 1 0 0 1 350 0 2
Refer: 11 67 N 1 0 0 1 0 0 2
EndChar

StartChar: D
Encoding: 68 68 13
Width: 588
GlyphClass: 1
Flags: W
LayerCount: 2
Back
SplineSet
259.900390625 548 m 5
 259.900390625 160 l 1
 307.900390625 160 l 2
 366.56640625 160 409.06640625 176.333007812 435.400390625 209 c 0
 461.733398438 241.666992188 474.900390625 292.333007812 474.900390625 361 c 0
 474.900390625 425.666992188 461.56640625 473 434.900390625 503 c 0
 408.233398438 533 366.56640625 548 309.900390625 548 c 2
 259.900390625 548 l 5
67.900390625 708 m 1
 331.900390625 708 l 2
 437.233398438 708 519.400390625 676.333007812 578.400390625 613 c 0
 637.400390625 549.666992188 666.900390625 465.666992188 666.900390625 361 c 0
 666.900390625 248.333007812 637.233398438 160 577.900390625 96 c 0
 518.56640625 32 435.233398438 0 327.900390625 0 c 2
 67.900390625 0 l 1
 67.900390625 708 l 1
EndSplineSet
Fore
SplineSet
264.620494186 658 m 2
 365.76737827 658 487 607.40234375 487 369 c 0
 487 245.038085938 458.334556686 64 262.769331395 64 c 2
 142 64 l 1
 142 72 142 666 142 658 c 1
 264.620494186 658 l 2
260.918168605 16 m 2
 362.779124273 16 550 49.8037109375 550 369 c 0
 550 507.288085938 505.772460938 708 264.620494186 708 c 2
 78 708 l 1
 78 716 78 24 78 16 c 1
 260.918168605 16 l 2
EndSplineSet
EndChar

StartChar: E
Encoding: 69 69 14
Width: 514
GlyphClass: 1
Flags: W
LayerCount: 2
Back
SplineSet
67.900390625 708 m 5
 573.900390625 708 l 1
 573.900390625 548 l 1
 259.900390625 548 l 1
 259.900390625 438 l 1
 515.900390625 438 l 1
 515.900390625 288 l 1
 259.900390625 288 l 1
 259.900390625 160 l 1
 587.900390625 160 l 1
 587.900390625 0 l 1
 67.900390625 0 l 1
 67.900390625 708 l 5
EndSplineSet
Fore
SplineSet
476 660 m 1
 476 668 476 716 476 708 c 1
 78 708 l 1
 78 716 78 24 78 16 c 1
 476 16 l 1
 476 24 476 72 476 64 c 1
 142 64 l 1
 142 72 142 356 142 348 c 1
 398 348 l 1
 398 356 398 410 398 402 c 1
 142 402 l 1
 142 410 142 668 142 660 c 1
 476 660 l 1
EndSplineSet
EndChar

StartChar: Eacute
Encoding: 201 201 15
Width: 514
GlyphClass: 1
Flags: HW
LayerCount: 2
Back
SplineSet
232 777 m 1
 195 856 l 1
 416 970 l 1
 475 854 l 1
 232 777 l 1
64 708 m 5
 570 708 l 1
 570 548 l 1
 256 548 l 1
 256 438 l 1
 512 438 l 1
 512 288 l 1
 256 288 l 1
 256 160 l 1
 584 160 l 1
 584 0 l 1
 64 0 l 1
 64 708 l 5
EndSplineSet
Fore
Refer: 59 769 N 1 0 0 1 278 40 2
Refer: 14 69 N 1 0 0 1 0 0 3
EndChar

StartChar: Ecircumflex
Encoding: 202 202 16
Width: 514
GlyphClass: 1
Flags: HW
LayerCount: 2
Back
SplineSet
151 840 m 25
 306 970 l 1
 372 970 l 1
 527 840 l 1
 470 769 l 1
 339 875 l 1
 200 769 l 1
 151 840 l 25
64 708 m 5
 570 708 l 1
 570 548 l 1
 256 548 l 1
 256 438 l 1
 512 438 l 1
 512 288 l 1
 256 288 l 1
 256 160 l 1
 584 160 l 1
 584 0 l 1
 64 0 l 1
 64 708 l 5
EndSplineSet
Fore
Refer: 163 770 N 1 0 0 1 284 40 2
Refer: 14 69 N 1 0 0 1 0 0 3
EndChar

StartChar: Edieresis
Encoding: 203 203 17
Width: 514
GlyphClass: 1
Flags: HW
LayerCount: 2
Back
SplineSet
383 877 m 4
 383 896.333333333 389.833333333 912.666666667 403.5 926 c 0
 417.166666667 939.333333333 433.333333333 946 452 946 c 0
 470.666666667 946 486.833333333 939.333333333 500.5 926 c 0
 514.166666667 912.666666667 521 896.333333333 521 877 c 0
 521 857.666666667 514.166666667 841.333333333 500.5 828 c 0
 486.833333333 814.666666667 470.666666667 808 452 808 c 0
 433.333333333 808 417.166666667 814.666666667 403.5 828 c 0
 389.833333333 841.333333333 383 857.666666667 383 877 c 4
157 877 m 0
 157 896.333333333 163.833333333 912.666666667 177.5 926 c 0
 191.166666667 939.333333333 207.333333333 946 226 946 c 0
 244.666666667 946 260.833333333 939.333333333 274.5 926 c 0
 288.166666667 912.666666667 295 896.333333333 295 877 c 0
 295 857.666666667 288.166666667 841.333333333 274.5 828 c 0
 260.833333333 814.666666667 244.666666667 808 226 808 c 0
 207.333333333 808 191.166666667 814.666666667 177.5 828 c 0
 163.833333333 841.333333333 157 857.666666667 157 877 c 0
64 708 m 5
 570 708 l 1
 570 548 l 1
 256 548 l 1
 256 438 l 1
 512 438 l 1
 512 288 l 1
 256 288 l 1
 256 160 l 1
 584 160 l 1
 584 0 l 1
 64 0 l 1
 64 708 l 5
EndSplineSet
Fore
Refer: 165 776 N 1 0 0 1 284 20 2
Refer: 14 69 N 1 0 0 1 0 0 3
EndChar

StartChar: Egrave
Encoding: 200 200 18
Width: 514
GlyphClass: 1
Flags: HW
LayerCount: 2
Back
SplineSet
438 777 m 1
 195 854 l 1
 254 970 l 1
 475 856 l 1
 438 777 l 1
64 708 m 5
 570 708 l 1
 570 548 l 1
 256 548 l 1
 256 438 l 1
 512 438 l 1
 512 288 l 1
 256 288 l 1
 256 160 l 1
 584 160 l 1
 584 0 l 1
 64 0 l 1
 64 708 l 5
EndSplineSet
Fore
Refer: 101 768 N 1 0 0 1 284 40 2
Refer: 14 69 N 1 0 0 1 0 0 3
EndChar

StartChar: Euro
Encoding: 8364 8364 19
Width: 640
GlyphClass: 1
Flags: W
LayerCount: 2
Back
SplineSet
436.900390625 715 m 0
 482.233398438 715 525.06640625 705 565.400390625 685 c 0
 605.733398438 665 638.56640625 635.333007812 663.900390625 596 c 1
 599.900390625 532 l 1
 584.56640625 554.666992188 563.06640625 573.5 535.400390625 588.5 c 0
 507.733398438 603.5 477.56640625 611 444.900390625 611 c 0
 382.233398438 611 332.733398438 589.833007812 296.400390625 547.5 c 0
 260.06640625 505.166992188 241.900390625 440.333007812 241.900390625 353 c 0
 241.900390625 263 258.06640625 197.666992188 290.400390625 157 c 0
 322.733398438 116.333007812 370.233398438 96 432.900390625 96 c 0
 496.900390625 96 553.233398438 120.666992188 601.900390625 170 c 1
 663.900390625 98 l 1
 593.233398438 27.3330078125 512.900390625 -8 422.900390625 -8 c 0
 325.56640625 -8 249.733398438 24.3330078125 195.400390625 89 c 0
 141.06640625 153.666992188 113.900390625 241.666992188 113.900390625 353 c 0
 113.900390625 464.333007812 143.06640625 552.5 201.400390625 617.5 c 0
 259.733398438 682.5 338.233398438 715 436.900390625 715 c 0
39.900390625 315 m 1
 451.900390625 315 l 1
 424.900390625 235 l 1
 39.900390625 235 l 1
 39.900390625 315 l 1
33.900390625 489 m 1
 510.900390625 489 l 1
 482.900390625 409 l 1
 33.900390625 409 l 1
 33.900390625 489 l 1
EndSplineSet
Fore
SplineSet
600.743164062 640.596679688 m 1
 537.061523438 698.646484375 477.703611196 716 391.928533329 716 c 0
 198.598632812 716 136.489257812 544.260742188 122.715820312 492.951171875 c 2
 122.715820312 496.090820312 121.1015625 489.942382812 121.1015625 486.9375 c 1
 30 486.9375 l 1
 30 489.942382812 30 433.473632812 30 431.717773438 c 1
 111.166015625 431.717773438 l 1
 108.462890625 411.44921875 106 392.979492188 106 351.955078125 c 0
 106 333.807617188 106.986328125 317.666015625 108.515625 292.64453125 c 1
 30 292.64453125 l 1
 30 291.2578125 30 234.7890625 30 237.423828125 c 1
 116.372070312 237.423828125 l 1
 116.372070312 234.7890625 117.796875 228.301757812 117.796875 231.079101562 c 2
 167.6171875 9.3154296875 334.127130702 -8 384.431793354 -8 c 0
 476.868098062 -8 549.405273438 27.6103515625 603.122070312 64.669921875 c 1
 603.122070312 58.2421875 585.49609375 102.936523438 585.49609375 108.303710938 c 1
 502.797851562 48.2158203125 429.513812568 43.2158203125 385.368885851 43.2158203125 c 0
 231.784179688 43.2158203125 190.26171875 194.774414062 182.23828125 227.650390625 c 2
 182.23828125 225.185546875 179.751953125 235.619140625 179.751953125 237.8359375 c 1
 400.481332622 237.8359375 l 1
 400.481332622 235.619140625 416.385366317 292.27734375 416.385366317 293.149414062 c 1
 170.484375 293.149414062 l 1
 169.013671875 317.250976562 168 333.862304688 168 352.559570312 c 0
 168 392.673828125 170.297851562 412.038085938 173.015625 432.456054688 c 1
 460.602588257 432.456054688 l 1
 460.602588257 434.971679688 477.95252639 491.629882812 477.95252639 487.768554688 c 1
 184.997070312 487.768554688 l 1
 184.997070312 491.629882812 188.387695312 502.609375 188.387695312 498.48828125 c 2
 235.825195312 648.48828125 346.441111794 666 392.865625826 666 c 0
 453.104933152 666 506.912109375 661.733398438 577.125976562 602.219726562 c 1
 577.125976562 610.219726562 600.743164062 648.596679688 600.743164062 640.596679688 c 1
EndSplineSet
EndChar

StartChar: F
Encoding: 70 70 20
Width: 524
GlyphClass: 1
Flags: W
LayerCount: 2
Back
SplineSet
67.900390625 708 m 5
 564.900390625 708 l 1
 564.900390625 543 l 1
 259.900390625 543 l 1
 259.900390625 425 l 1
 486.900390625 425 l 1
 486.900390625 275 l 1
 259.900390625 275 l 1
 259.900390625 0 l 1
 67.900390625 0 l 1
 67.900390625 708 l 5
EndSplineSet
Fore
SplineSet
486 660 m 1
 486 668 486 716 486 708 c 1
 78 708 l 1
 78 716 78 24 78 16 c 1
 144 16 l 1
 144 24 144 360 144 352 c 1
 408 352 l 1
 408 360 408 414 408 406 c 1
 144 406 l 1
 144 414 144 668 144 660 c 1
 486 660 l 1
EndSplineSet
EndChar

StartChar: G
Encoding: 71 71 21
Width: 616
GlyphClass: 1
Flags: W
LayerCount: 2
Back
SplineSet
385.700195312 716 m 0
 435.033203125 716 480.366210938 708.833007812 521.700195312 694.5 c 0
 563.033203125 680.166992188 604.700195312 655.666992188 646.700195312 621 c 1
 560.700195312 505 l 1
 533.366210938 525 507.200195312 539.333007812 482.200195312 548 c 0
 457.200195312 556.666992188 426.033203125 561 388.700195312 561 c 0
 280.700195312 561 226.700195312 490.333007812 226.700195312 349 c 0
 226.700195312 277 240.366210938 224.666992188 267.700195312 192 c 0
 295.033203125 159.333007812 337.366210938 143 394.700195312 143 c 0
 426.033203125 143 453.366210938 144.666992188 476.700195312 148 c 1
 476.700195312 282 l 1
 364.700195312 282 l 1
 364.700195312 421 l 1
 654.700195312 421 l 1
 654.700195312 33 l 1
 630.033203125 24.3330078125 593.700195312 15.3330078125 545.700195312 6 c 0
 497.700195312 -3.3330078125 448.366210938 -8 397.700195312 -8 c 0
 155.700195312 -8 34.7001953125 112 34.7001953125 352 c 0
 34.7001953125 473.333007812 65.533203125 564.333007812 127.200195312 625 c 0
 188.866210938 685.666992188 275.033203125 716 385.700195312 716 c 0
EndSplineSet
Fore
SplineSet
345.8528125 38.0888671875 m 0
 123.028320312 38.0888671875 116 263.3984375 116 352.520507812 c 0
 116 470.829101562 139.583007812 669 343.0448125 669 c 0
 426.883539063 669 484.079101562 631.840820312 525.491210938 597.708007812 c 1
 525.491210938 605.708007812 550.404296875 640.880859375 550.404296875 632.880859375 c 1
 488.918945312 688.404296875 419.560070312 716 341.1728125 716 c 0
 103.624023438 716 54 516.69921875 54 351.955078125 c 0
 54 223.500976562 80.6220703125 -8 333.6848125 -8 c 0
 406.015492188 -8 480.599609375 4.5615234375 560 28.8154296875 c 1
 560 21.5126953125 560 386.62109375 560 385.294921875 c 1
 317.7728125 385.294921875 l 1
 317.7728125 386.62109375 317.7728125 334.171875 317.7728125 334.084960938 c 1
 496 334.084960938 l 1
 496 334.171875 496 53.5908203125 496 60.1357421875 c 1
 428.072734375 44.806640625 391.406945312 38.0888671875 345.8528125 38.0888671875 c 0
EndSplineSet
EndChar

StartChar: H
Encoding: 72 72 22
Width: 579
GlyphClass: 1
Flags: W
LayerCount: 2
Back
SplineSet
67.900390625 708 m 5
 259.900390625 708 l 1
 259.900390625 451 l 1
 463.900390625 451 l 1
 463.900390625 708 l 1
 655.900390625 708 l 1
 655.900390625 0 l 1
 463.900390625 0 l 1
 463.900390625 281 l 1
 259.900390625 281 l 1
 259.900390625 0 l 1
 67.900390625 0 l 1
 67.900390625 708 l 5
EndSplineSet
Fore
SplineSet
142 414 m 1
 142 422 142 716 142 708 c 1
 78 708 l 1
 78 716 78 24 78 16 c 1
 142 16 l 1
 142 24 142 368 142 360 c 1
 438.776501225 360 l 1
 438.776501225 368 438.776501225 24 438.776501225 16 c 1
 502 16 l 1
 502 24 502 716 502 708 c 1
 438.776501225 708 l 1
 438.776501225 716 438.776501225 422 438.776501225 414 c 1
 142 414 l 1
EndSplineSet
EndChar

StartChar: I
Encoding: 73 73 23
Width: 216
GlyphClass: 1
Flags: W
LayerCount: 2
Back
SplineSet
68.7998046875 708 m 1
 260.799804688 708 l 1
 260.799804688 0 l 1
 68.7998046875 0 l 1
 68.7998046875 708 l 1
EndSplineSet
Fore
SplineSet
140 16 m 1
 140 24 140 716 140 708 c 1
 76 708 l 1
 76 716 76 24 76 16 c 1
 140 16 l 1
EndSplineSet
EndChar

StartChar: Iacute
Encoding: 205 205 24
Width: 216
GlyphClass: 1
Flags: HW
LayerCount: 2
Back
SplineSet
70 777 m 1
 33 856 l 1
 254 970 l 1
 313 854 l 1
 70 777 l 1
65 708 m 1
 257 708 l 1
 257 0 l 1
 65 0 l 1
 65 708 l 1
EndSplineSet
Fore
Refer: 59 769 N 1 0 0 1 107 40 2
Refer: 23 73 N 1 0 0 1 0 0 3
EndChar

StartChar: Icircumflex
Encoding: 206 206 25
Width: 216
GlyphClass: 1
Flags: HW
LayerCount: 2
Back
SplineSet
-11 840 m 25
 144 970 l 1
 210 970 l 1
 365 840 l 1
 308 769 l 1
 177 875 l 1
 38 769 l 1
 -11 840 l 25
65 708 m 1
 257 708 l 1
 257 0 l 1
 65 0 l 1
 65 708 l 1
EndSplineSet
Fore
Refer: 163 770 N 1 0 0 1 113 40 2
Refer: 23 73 N 1 0 0 1 0 0 3
EndChar

StartChar: Idieresis
Encoding: 207 207 26
Width: 216
GlyphClass: 1
Flags: HW
LayerCount: 2
Back
SplineSet
221 877 m 4
 221 896.333333333 227.833333333 912.666666667 241.5 926 c 0
 255.166666667 939.333333333 271.333333333 946 290 946 c 0
 308.666666667 946 324.833333333 939.333333333 338.5 926 c 0
 352.166666667 912.666666667 359 896.333333333 359 877 c 0
 359 857.666666667 352.166666667 841.333333333 338.5 828 c 0
 324.833333333 814.666666667 308.666666667 808 290 808 c 0
 271.333333333 808 255.166666667 814.666666667 241.5 828 c 0
 227.833333333 841.333333333 221 857.666666667 221 877 c 4
-5 877 m 0
 -5 896.333333333 1.83333333333 912.666666667 15.5 926 c 0
 29.1666666667 939.333333333 45.3333333333 946 64 946 c 0
 82.6666666667 946 98.8333333333 939.333333333 112.5 926 c 0
 126.166666667 912.666666667 133 896.333333333 133 877 c 0
 133 857.666666667 126.166666667 841.333333333 112.5 828 c 0
 98.8333333333 814.666666667 82.6666666667 808 64 808 c 0
 45.3333333333 808 29.1666666667 814.666666667 15.5 828 c 0
 1.83333333333 841.333333333 -5 857.666666667 -5 877 c 0
65 708 m 1
 257 708 l 1
 257 0 l 1
 65 0 l 1
 65 708 l 1
EndSplineSet
Fore
Refer: 165 776 N 1 0 0 1 113 20 2
Refer: 23 73 N 1 0 0 1 0 0 3
EndChar

StartChar: Igrave
Encoding: 204 204 27
Width: 216
GlyphClass: 1
Flags: HW
LayerCount: 2
Back
SplineSet
276 777 m 1
 33 854 l 1
 92 970 l 1
 313 856 l 1
 276 777 l 1
65 708 m 1
 257 708 l 1
 257 0 l 1
 65 0 l 1
 65 708 l 1
EndSplineSet
Fore
Refer: 101 768 N 1 0 0 1 113 40 2
Refer: 23 73 N 1 0 0 1 0 0 3
EndChar

StartChar: J
Encoding: 74 74 28
Width: 377
GlyphClass: 1
Flags: W
LayerCount: 2
Back
SplineSet
211.400390625 708 m 5
 403.400390625 708 l 1
 403.400390625 276 l 2
 403.400390625 182 380.06640625 111.166992188 333.400390625 63.5 c 0
 286.733398438 15.8330078125 224.733398438 -8 147.400390625 -8 c 0
 103.400390625 -8 62.06640625 -3.6669921875 23.400390625 5 c 1
 35.400390625 152 l 1
 119.400390625 151 l 2
 180.733398438 151 211.400390625 191.666992188 211.400390625 273 c 2
 211.400390625 708 l 5
EndSplineSet
Fore
SplineSet
234.84375 708 m 1
 234.84375 716.182617188 234.84375 201.434570312 234.84375 204.75390625 c 2
 234.84375 159.36328125 229.141601562 41.0966796875 107.84375 41.0966796875 c 2
 34.662109375 41.0966796875 l 1
 34.662109375 34.0361328125 28 -9.330078125 28 -1.30078125 c 1
 53.1943359375 -5.5224609375 79.2109375 -8 106.84375 -8 c 0
 277.146484375 -8 298.84375 130.8984375 298.84375 207.823242188 c 2
 298.84375 204.573242188 298.84375 716.182617188 298.84375 708 c 1
 234.84375 708 l 1
EndSplineSet
EndChar

StartChar: K
Encoding: 75 75 29
Width: 549
GlyphClass: 1
Flags: W
LayerCount: 2
Back
SplineSet
68.2998046875 708 m 1
 260.299804688 708 l 1
 260.299804688 459 l 1
 284.299804688 459 l 1
 460.299804688 708 l 1
 691.299804688 708 l 1
 409.299804688 360 l 1
 693.299804688 0 l 1
 460.299804688 0 l 1
 284.299804688 261 l 1
 260.299804688 261 l 1
 260.299804688 0 l 1
 68.2998046875 0 l 1
 68.2998046875 708 l 1
EndSplineSet
Fore
SplineSet
150 397 m 1
 150 405 150 716 150 708 c 1
 86 708 l 1
 86 716 86 24 86 16 c 1
 150 16 l 1
 150 24 150 346 150 338 c 1
 179.748046875 338 l 1
 179.748046875 346 431.748046875 24 431.748046875 16 c 1
 516.413085938 16 l 1
 516.413085938 24 226.330078125 375.06640625 226.330078125 367.06640625 c 1
 226.330078125 375.06640625 515.119140625 716 515.119140625 708 c 1
 430.673828125 708 l 1
 430.673828125 716 179.673828125 405 179.673828125 397 c 1
 150 397 l 1
EndSplineSet
EndChar

StartChar: L
Encoding: 76 76 30
Width: 486
GlyphClass: 1
Flags: W
LayerCount: 2
Back
SplineSet
67.900390625 708 m 1
 259.900390625 708 l 1
 259.900390625 160 l 1
 555.900390625 160 l 1
 555.900390625 0 l 1
 67.900390625 0 l 1
 67.900390625 708 l 1
EndSplineSet
Fore
SplineSet
142 64 m 1
 142 72 142 716 142 708 c 1
 78 708 l 1
 78 716 78 24 78 16 c 1
 448 16 l 1
 448 24 448 72 448 64 c 1
 142 64 l 1
EndSplineSet
EndChar

StartChar: M
Encoding: 77 77 31
Width: 698
GlyphClass: 1
Flags: W
LayerCount: 2
Back
SplineSet
68 708 m 1
 260 708 l 1
 421 369 l 1
 588 708 l 1
 780 708 l 1
 780 0 l 1
 588 0 l 1
 588 359 l 1
 492 148 l 1
 358 148 l 1
 260 359 l 1
 260 0 l 1
 68 0 l 1
 68 708 l 1
EndSplineSet
Fore
SplineSet
154.799804688 708 m 1
 80 708 l 1
 80 716 80 24 80 16 c 1
 144 16 l 1
 144 24 144 598.419921875 144 590.419921875 c 1
 144 598.419921875 318.198099276 203 318.198099276 195 c 1
 393.859065358 195 l 1
 393.859065358 203 554.87804878 597.978515625 554.87804878 589.978515625 c 1
 554.87804878 597.978515625 554.87804878 24 554.87804878 16 c 1
 618 16 l 1
 618 24 618 716 618 708 c 1
 543.724442645 708 l 1
 543.724442645 716 355.24642721 254.005859375 355.24642721 246.005859375 c 1
 355.24642721 254.005859375 154.799804688 716 154.799804688 708 c 1
EndSplineSet
EndChar

StartChar: N
Encoding: 78 78 32
Width: 635
GlyphClass: 1
Flags: W
LayerCount: 2
Back
SplineSet
68.2998046875 708 m 5
 260.299804688 708 l 1
 505.299804688 332 l 1
 505.299804688 708 l 1
 697.299804688 708 l 1
 697.299804688 0 l 1
 505.299804688 0 l 1
 260.299804688 396 l 1
 260.299804688 0 l 1
 68.2998046875 0 l 1
 68.2998046875 708 l 5
EndSplineSet
Fore
SplineSet
158.411132812 708 m 1
 86 708 l 1
 86 716 86 24 86 16 c 1
 150 16 l 1
 150 24 150 615.78515625 150 607.78515625 c 1
 150 615.78515625 477.440876116 24 477.440876116 16 c 1
 550 16 l 1
 550 24 550 716 550 708 c 1
 486.215497449 708 l 1
 486.215497449 716 486.215497449 128.47265625 486.215497449 120.47265625 c 1
 486.215497449 128.47265625 158.411132812 716 158.411132812 708 c 1
EndSplineSet
EndChar

StartChar: O
Encoding: 79 79 33
Width: 630
GlyphClass: 1
Flags: W
LayerCount: 2
Back
SplineSet
363.700195312 716 m 0
 465.700195312 716 545.700195312 684.166992188 603.700195312 620.5 c 0
 661.700195312 556.833007812 690.700195312 469 690.700195312 357 c 0
 690.700195312 244.333007812 661.366210938 155.333007812 602.700195312 90 c 0
 544.033203125 24.6669921875 464.033203125 -8 362.700195312 -8 c 0
 261.366210938 -8 181.366210938 24.6669921875 122.700195312 90 c 0
 64.033203125 155.333007812 34.7001953125 244.333007812 34.7001953125 357 c 0
 34.7001953125 468.333007812 63.8662109375 556 122.200195312 620 c 0
 180.533203125 684 261.033203125 716 363.700195312 716 c 0
362.700195312 556 m 0
 318.700195312 556 285.033203125 538.833007812 261.700195312 504.5 c 0
 238.366210938 470.166992188 226.700195312 421 226.700195312 357 c 0
 226.700195312 291.666992188 238.700195312 241.166992188 262.700195312 205.5 c 0
 286.700195312 169.833007812 320.366210938 152 363.700195312 152 c 0
 407.033203125 152 440.366210938 169.833007812 463.700195312 205.5 c 0
 487.033203125 241.166992188 498.700195312 291.333007812 498.700195312 356 c 0
 498.700195312 420 487.033203125 469.333007812 463.700195312 504 c 0
 440.366210938 538.666992188 406.700195312 556 362.700195312 556 c 0
EndSplineSet
Fore
SplineSet
456.397805607 674.18359375 m 0
 408.145967371 708.993164062 354.816004136 716 320.158835018 716 c 0
 79.90625 716 54 463.848632812 54 356.044921875 c 0
 54 172.614257812 112.08203125 81.4609375 177.115234375 36.0517578125 c 0
 229.21306296 -0.435546875 283.835305607 -8 320.158835018 -8 c 0
 540.33203125 -8 576 218.1328125 576 359.622070312 c 0
 576 540.450195312 518.549804688 629.826171875 456.397805607 674.18359375 c 0
320.158835018 56 m 0
 209.434570312 56 118 130.4375 118 364 c 0
 118 470.984375 135.805664062 668 320.158835018 668 c 0
 492.110351562 668 512 488.029296875 512 364 c 0
 512 244.12109375 493.288085938 56 320.158835018 56 c 0
EndSplineSet
EndChar

StartChar: Oacute
Encoding: 211 211 34
Width: 630
GlyphClass: 1
Flags: HW
LayerCount: 2
Back
SplineSet
257 778 m 1
 220 857 l 1
 441 971 l 1
 500 855 l 1
 257 778 l 1
361 716 m 0
 463 716 543 684.166666667 601 620.5 c 0
 659 556.833333333 688 469 688 357 c 0
 688 244.333333333 658.666666667 155.333333333 600 90 c 0
 541.333333333 24.6666666667 461.333333333 -8 360 -8 c 0
 258.666666667 -8 178.666666667 24.6666666667 120 90 c 0
 61.3333333333 155.333333333 32 244.333333333 32 357 c 0
 32 468.333333333 61.1666666667 556 119.5 620 c 0
 177.833333333 684 258.333333333 716 361 716 c 0
360 556 m 0
 316 556 282.333333333 538.833333333 259 504.5 c 0
 235.666666667 470.166666667 224 421 224 357 c 0
 224 291.666666667 236 241.166666667 260 205.5 c 0
 284 169.833333333 317.666666667 152 361 152 c 0
 404.333333333 152 437.666666667 169.833333333 461 205.5 c 0
 484.333333333 241.166666667 496 291.333333333 496 356 c 0
 496 420 484.333333333 469.333333333 461 504 c 0
 437.666666667 538.666666667 404 556 360 556 c 0
EndSplineSet
Fore
Refer: 59 769 N 1 0 0 1 312 41 2
Refer: 33 79 N 1 0 0 1 0 0 3
EndChar

StartChar: Ocircumflex
Encoding: 212 212 35
Width: 630
GlyphClass: 1
Flags: HW
LayerCount: 2
Back
SplineSet
176 841 m 25
 331 971 l 1
 397 971 l 1
 552 841 l 1
 495 770 l 1
 364 876 l 1
 225 770 l 1
 176 841 l 25
361 716 m 0
 463 716 543 684.166666667 601 620.5 c 0
 659 556.833333333 688 469 688 357 c 0
 688 244.333333333 658.666666667 155.333333333 600 90 c 0
 541.333333333 24.6666666667 461.333333333 -8 360 -8 c 0
 258.666666667 -8 178.666666667 24.6666666667 120 90 c 0
 61.3333333333 155.333333333 32 244.333333333 32 357 c 0
 32 468.333333333 61.1666666667 556 119.5 620 c 0
 177.833333333 684 258.333333333 716 361 716 c 0
360 556 m 0
 316 556 282.333333333 538.833333333 259 504.5 c 0
 235.666666667 470.166666667 224 421 224 357 c 0
 224 291.666666667 236 241.166666667 260 205.5 c 0
 284 169.833333333 317.666666667 152 361 152 c 0
 404.333333333 152 437.666666667 169.833333333 461 205.5 c 0
 484.333333333 241.166666667 496 291.333333333 496 356 c 0
 496 420 484.333333333 469.333333333 461 504 c 0
 437.666666667 538.666666667 404 556 360 556 c 0
EndSplineSet
Fore
Refer: 163 770 N 1 0 0 1 318 41 2
Refer: 33 79 N 1 0 0 1 0 0 3
EndChar

StartChar: Odieresis
Encoding: 214 214 36
Width: 630
GlyphClass: 1
Flags: HW
LayerCount: 2
Back
SplineSet
408 878 m 4
 408 896.666666667 414.666666667 912.833333333 428 926.5 c 0
 441.333333333 940.166666667 457.666666667 947 477 947 c 0
 496.333333333 947 512.666666667 940.166666667 526 926.5 c 0
 539.333333333 912.833333333 546 896.666666667 546 878 c 0
 546 859.333333333 539.333333333 843.166666667 526 829.5 c 0
 512.666666667 815.833333333 496.333333333 809 477 809 c 0
 457.666666667 809 441.333333333 815.833333333 428 829.5 c 0
 414.666666667 843.166666667 408 859.333333333 408 878 c 4
182 878 m 0
 182 896.666666667 188.666666667 912.833333333 202 926.5 c 0
 215.333333333 940.166666667 231.666666667 947 251 947 c 0
 270.333333333 947 286.666666667 940.166666667 300 926.5 c 0
 313.333333333 912.833333333 320 896.666666667 320 878 c 0
 320 859.333333333 313.333333333 843.166666667 300 829.5 c 0
 286.666666667 815.833333333 270.333333333 809 251 809 c 0
 231.666666667 809 215.333333333 815.833333333 202 829.5 c 0
 188.666666667 843.166666667 182 859.333333333 182 878 c 0
361 716 m 0
 463 716 543 684.166666667 601 620.5 c 0
 659 556.833333333 688 469 688 357 c 0
 688 244.333333333 658.666666667 155.333333333 600 90 c 0
 541.333333333 24.6666666667 461.333333333 -8 360 -8 c 0
 258.666666667 -8 178.666666667 24.6666666667 120 90 c 0
 61.3333333333 155.333333333 32 244.333333333 32 357 c 0
 32 468.333333333 61.1666666667 556 119.5 620 c 0
 177.833333333 684 258.333333333 716 361 716 c 0
360 556 m 0
 316 556 282.333333333 538.833333333 259 504.5 c 0
 235.666666667 470.166666667 224 421 224 357 c 0
 224 291.666666667 236 241.166666667 260 205.5 c 0
 284 169.833333333 317.666666667 152 361 152 c 0
 404.333333333 152 437.666666667 169.833333333 461 205.5 c 0
 484.333333333 241.166666667 496 291.333333333 496 356 c 0
 496 420 484.333333333 469.333333333 461 504 c 0
 437.666666667 538.666666667 404 556 360 556 c 0
EndSplineSet
Fore
Refer: 165 776 N 1 0 0 1 318 21 2
Refer: 33 79 N 1 0 0 1 0 0 3
EndChar

StartChar: Ograve
Encoding: 210 210 37
Width: 630
GlyphClass: 1
Flags: HW
LayerCount: 2
Back
SplineSet
463 778 m 1
 220 855 l 1
 279 971 l 1
 500 857 l 1
 463 778 l 1
361 716 m 0
 463 716 543 684.166666667 601 620.5 c 0
 659 556.833333333 688 469 688 357 c 0
 688 244.333333333 658.666666667 155.333333333 600 90 c 0
 541.333333333 24.6666666667 461.333333333 -8 360 -8 c 0
 258.666666667 -8 178.666666667 24.6666666667 120 90 c 0
 61.3333333333 155.333333333 32 244.333333333 32 357 c 0
 32 468.333333333 61.1666666667 556 119.5 620 c 0
 177.833333333 684 258.333333333 716 361 716 c 0
360 556 m 0
 316 556 282.333333333 538.833333333 259 504.5 c 0
 235.666666667 470.166666667 224 421 224 357 c 0
 224 291.666666667 236 241.166666667 260 205.5 c 0
 284 169.833333333 317.666666667 152 361 152 c 0
 404.333333333 152 437.666666667 169.833333333 461 205.5 c 0
 484.333333333 241.166666667 496 291.333333333 496 356 c 0
 496 420 484.333333333 469.333333333 461 504 c 0
 437.666666667 538.666666667 404 556 360 556 c 0
EndSplineSet
Fore
Refer: 101 768 N 1 0 0 1 318 41 2
Refer: 33 79 N 1 0 0 1 0 0 3
EndChar

StartChar: Otilde
Encoding: 213 213 38
Width: 630
GlyphClass: 1
Flags: HW
LayerCount: 2
Back
SplineSet
145 823 m 1
 151.666666667 862.333333333 166.5 894.333333333 189.5 919 c 0
 212.5 943.666666667 243.666666667 956 283 956 c 0
 305.666666667 956 326.166666667 950.333333333 344.5 939 c 0
 362.833333333 927.666666667 379.333333333 916.5 394 905.5 c 0
 408.666666667 894.5 422.666666667 889 436 889 c 0
 464 889 480.333333333 908.666666667 485 948 c 1
 583 932 l 1
 574.333333333 885.333333333 558.5 850.833333333 535.5 828.5 c 0
 512.5 806.166666667 480.666666667 795 440 795 c 0
 418 795 398.333333333 800.5 381 811.5 c 0
 363.666666667 822.5 348.166666667 833.666666667 334.5 845 c 0
 320.833333333 856.333333333 307.333333333 862 294 862 c 0
 263.333333333 862 245.333333333 842.333333333 240 803 c 1
 145 823 l 1
361 716 m 0
 463 716 543 684.166666667 601 620.5 c 0
 659 556.833333333 688 469 688 357 c 0
 688 244.333333333 658.666666667 155.333333333 600 90 c 0
 541.333333333 24.6666666667 461.333333333 -8 360 -8 c 0
 258.666666667 -8 178.666666667 24.6666666667 120 90 c 0
 61.3333333333 155.333333333 32 244.333333333 32 357 c 0
 32 468.333333333 61.1666666667 556 119.5 620 c 0
 177.833333333 684 258.333333333 716 361 716 c 0
360 556 m 0
 316 556 282.333333333 538.833333333 259 504.5 c 0
 235.666666667 470.166666667 224 421 224 357 c 0
 224 291.666666667 236 241.166666667 260 205.5 c 0
 284 169.833333333 317.666666667 152 361 152 c 0
 404.333333333 152 437.666666667 169.833333333 461 205.5 c 0
 484.333333333 241.166666667 496 291.333333333 496 356 c 0
 496 420 484.333333333 469.333333333 461 504 c 0
 437.666666667 538.666666667 404 556 360 556 c 0
EndSplineSet
Fore
Refer: 154 771 N 1 0 0 1 318 41 2
Refer: 33 79 N 1 0 0 1 0 0 3
EndChar

StartChar: P
Encoding: 80 80 39
Width: 573
GlyphClass: 1
Flags: W
LayerCount: 2
Back
SplineSet
260.299804688 548 m 1
 260.299804688 376 l 1
 372.299804688 376 l 2
 430.966796875 376 460.299804688 405.333007812 460.299804688 464 c 0
 460.299804688 490.666992188 452.633789062 511.333007812 437.299804688 526 c 0
 421.966796875 540.666992188 400.299804688 548 372.299804688 548 c 2
 260.299804688 548 l 1
68.2998046875 708 m 1
 383.299804688 708 l 2
 465.966796875 708 531.466796875 686.166992188 579.799804688 642.5 c 0
 628.133789062 598.833007812 652.299804688 539.333007812 652.299804688 464 c 0
 652.299804688 384.666992188 627.299804688 323.5 577.299804688 280.5 c 0
 527.299804688 237.5 456.299804688 216 364.299804688 216 c 2
 260.299804688 216 l 1
 260.299804688 0 l 1
 68.2998046875 0 l 1
 68.2998046875 708 l 1
EndSplineSet
Fore
SplineSet
314.303984375 660 m 2
 391.231796875 660 456 622.72265625 456 499 c 0
 456 384.453125 409.243671875 324 297.743984375 324 c 2
 146 324 l 1
 146 332 146 668 146 660 c 1
 314.303984375 660 l 2
297.743984375 276 m 2
 415.162578125 276 520 327.088867188 520 499 c 0
 520 583.686523438 487.986328125 708 311.543984375 708 c 2
 86 708 l 1
 86 716 86 24 86 16 c 1
 146 16 l 1
 146 24 146 284 146 276 c 1
 297.743984375 276 l 2
EndSplineSet
EndChar

StartChar: Q
Encoding: 81 81 40
Width: 630
GlyphClass: 1
Flags: W
LayerCount: 2
Back
SplineSet
362.5 556 m 0
 320.5 556 287.333007812 538.166992188 263 502.5 c 0
 238.666992188 466.833007812 226.5 418.333007812 226.5 357 c 0
 226.5 291 238.166992188 240.5 261.5 205.5 c 0
 284.833007812 170.5 318.5 153 362.5 153 c 0
 405.833007812 153 439.333007812 170.666992188 463 206 c 0
 486.666992188 241.333007812 498.5 291.666992188 498.5 357 c 0
 498.5 489.666992188 453.166992188 556 362.5 556 c 0
362.5 716 m 0
 463.166992188 716 543 683.833007812 602 619.5 c 0
 661 555.166992188 690.5 467.666992188 690.5 357 c 0
 690.5 261.220703125 667.754882812 181.692382812 622.264648438 118.416015625 c 0
 576.774414062 55.140625 514.643554688 15.6669921875 435.872070312 -0.0048828125 c 1
 440.364257812 -10.205078125 448.536132812 -18.4208984375 460.389648438 -24.65234375 c 0
 472.243164062 -30.8837890625 485.61328125 -34 500.5 -34 c 2
 612.5 -34 l 1
 626.5 -178 l 1
 578.5 -182 531.833007812 -184 486.5 -184 c 0
 419.612304688 -184 366.833007812 -167.299804688 328.163085938 -133.899414062 c 0
 289.4921875 -100.499023438 269.006835938 -54.11328125 266.706054688 5.2578125 c 1
 194.446289062 24.888671875 137.680664062 65.666015625 96.408203125 127.58984375 c 0
 55.1357421875 189.513671875 34.5 265.983398438 34.5 357 c 0
 34.5 467 64 554.333007812 123 619 c 0
 182 683.666992188 261.833007812 716 362.5 716 c 0
EndSplineSet
Fore
SplineSet
317.323529412 54 m 0
 205.100585938 54 114 129.043945312 114 361 c 0
 114 472.651367188 133.231445312 668 317.323529412 668 c 0
 477.260110294 668 510 510.235351562 510 361 c 0
 510 211.862304688 477.306985294 54 317.323529412 54 c 0
574 358.153320312 m 0
 574 587.916015625 475.798713235 716 317.323529412 716 c 0
 150.536132812 716 50 586.80859375 50 355.073242188 c 0
 50 136.276367188 136.099609375 10.9462890625 287.021139706 -4.8720703125 c 2
 287.021139706 -12.8798828125 293.404411765 -13.5888671875 293.404411765 -5.5654296875 c 1
 293.404411765 -13.5888671875 293.78125 -20.703125 293.78125 -12.5234375 c 2
 299.223345588 -110.833007812 367.818933824 -184 452.852941176 -184 c 0
 488.951171875 -184 517.198242188 -178.91015625 536.450195312 -170.259765625 c 1
 536.450195312 -178.259765625 532.805664062 -144 532.805664062 -136 c 1
 460.382352941 -136 l 2
 428.314338235 -136 352.176470588 -127.711914062 343.700367647 -13.63671875 c 2
 343.700367647 -21.81640625 343.124080882 -13.7099609375 343.124080882 -5.708984375 c 1
 401.545036765 1.1630859375 574 24.7724609375 574 358.153320312 c 0
EndSplineSet
EndChar

StartChar: R
Encoding: 82 82 41
Width: 575
GlyphClass: 1
Flags: W
LayerCount: 2
Back
SplineSet
260 550 m 1
 260 373 l 1
 371 373 l 2
 396.333007812 373 416.166992188 381 430.5 397 c 0
 444.833007812 413 452 436 452 466 c 0
 452 522 423.666992188 550 367 550 c 2
 260 550 l 1
68 708 m 1
 372 708 l 2
 460 708 527.333007812 686.5 574 643.5 c 0
 620.666992188 600.5 644 542.666992188 644 470 c 0
 644 418.666992188 632.166992188 373.666992188 608.5 335 c 0
 584.833007812 296.333007812 550.666992188 266.666992188 506 246 c 1
 676 0 l 1
 470 0 l 1
 329 215 l 1
 260 215 l 1
 260 0 l 1
 68 0 l 1
 68 708 l 1
EndSplineSet
Fore
SplineSet
308.583333333 660 m 2
 374.368489583 660 450 635.610351562 450 511 c 0
 450 391.154296875 384.893147786 352 291.166666667 352 c 2
 144 352 l 1
 144 360 144 668 144 660 c 1
 308.583333333 660 l 2
360.639973958 312.025390625 m 1
 413.417236328 327.377929688 514 358.560546875 514 510 c 0
 514 581.506835938 489.845703125 634.112304688 445.328125 667.123046875 c 0
 411.780843099 693.631835938 366.157877604 708 308.583333333 708 c 2
 80 708 l 1
 80 716 80 24 80 16 c 1
 144 16 l 1
 144 24 144 312 144 304 c 1
 144 312 311.07820638 312 311.07820638 304 c 1
 311.07820638 312 458.721679688 24 458.721679688 16 c 1
 527.047851562 16 l 1
 527.047851562 24 360.639973958 320.025390625 360.639973958 312.025390625 c 1
EndSplineSet
EndChar

StartChar: S
Encoding: 83 83 42
Width: 562
GlyphClass: 1
Flags: W
LayerCount: 2
Back
SplineSet
326.400390625 716 m 0
 385.06640625 716 436.233398438 708.5 479.900390625 693.5 c 0
 523.56640625 678.5 565.733398438 654 606.400390625 620 c 1
 526.400390625 501 l 1
 471.733398438 541.666992188 405.733398438 562 328.400390625 562 c 0
 256.400390625 562 220.400390625 540 220.400390625 496 c 0
 220.400390625 476.666992188 226.733398438 463.166992188 239.400390625 455.5 c 0
 252.06640625 447.833007812 278.400390625 440.333007812 318.400390625 433 c 2
 379.400390625 422 l 2
 460.06640625 408.666992188 518.900390625 384.666992188 555.900390625 350 c 0
 592.900390625 315.333007812 611.400390625 268 611.400390625 208 c 0
 611.400390625 64 506.400390625 -8 296.400390625 -8 c 0
 245.733398438 -8 192.900390625 0.1669921875 137.900390625 16.5 c 0
 82.900390625 32.8330078125 42.7333984375 52.3330078125 17.400390625 75 c 1
 96.400390625 203 l 1
 152.400390625 160.333007812 221.400390625 139 303.400390625 139 c 0
 383.400390625 139 423.400390625 160 423.400390625 202 c 0
 423.400390625 223.333007812 415.900390625 238.666992188 400.900390625 248 c 0
 385.900390625 257.333007812 356.06640625 265.666992188 311.400390625 273 c 2
 256.400390625 283 l 2
 181.733398438 295 125.56640625 319 87.900390625 355 c 0
 50.2333984375 391 31.400390625 441 31.400390625 505 c 0
 31.400390625 571.666992188 56.56640625 623.5 106.900390625 660.5 c 0
 157.233398438 697.5 230.400390625 716 326.400390625 716 c 0
EndSplineSet
Fore
SplineSet
299.158613572 328.720703125 m 2
 396.165594067 306.110351562 450.788085938 271.850585938 450.788085938 181.565429688 c 0
 450.788085938 108.719726562 413.291015625 41.4521484375 282.57391389 41.4521484375 c 0
 211.045157598 41.4521484375 137.772460938 56.5068359375 58.5087890625 117.326171875 c 1
 58.5087890625 112.875 28 67.5390625 28 73.3212890625 c 1
 125.352539062 4.2666015625 194.936617679 -8 278.808758703 -8 c 0
 401.75725398 -8 460.610351562 42.4501953125 488.319335938 90.9541015625 c 0
 510.65625 130.055664062 512.788085938 169.159179688 512.788085938 181.565429688 c 0
 512.788085938 281.46484375 458.549804688 344.091796875 349.804909931 370.302734375 c 2
 349.804909931 373.502929688 273.049000064 393.669921875 273.049000064 389.877929688 c 2
 169.036132812 415.165039062 128.788085938 453.3828125 128.788085938 537 c 0
 128.788085938 638.743164062 213.998046875 668 297.509664831 668 c 0
 358.017953799 668 416.624023438 646.967773438 473.076171875 604.422851562 c 1
 473.076171875 612.422851562 497.918945312 647.494140625 497.918945312 639.494140625 c 1
 433.745117188 690.396484375 366.730704813 716 298.42341504 716 c 0
 181.428710938 716 121.69140625 675.534179688 92.5263671875 632.32421875 c 0
 69.0361328125 597.520507812 64.7880859375 559.619140625 64.7880859375 537 c 0
 64.7880859375 432.034179688 121.866210938 368.376953125 235.156490746 343.143554688 c 2
 235.156490746 345.522460938 299.158613572 330.6640625 299.158613572 328.720703125 c 2
EndSplineSet
EndChar

StartChar: T
Encoding: 84 84 43
Width: 579
GlyphClass: 1
Flags: W
LayerCount: 2
Back
SplineSet
42.2998046875 708 m 1
 633.299804688 708 l 1
 633.299804688 548 l 1
 435.299804688 548 l 1
 435.299804688 0 l 1
 243.299804688 0 l 1
 243.299804688 548 l 1
 42.2998046875 548 l 1
 42.2998046875 708 l 1
EndSplineSet
Fore
SplineSet
534 657 m 1
 534 665 534 716 534 708 c 1
 46 708 l 1
 46 716 46 665 46 657 c 1
 249 657 l 1
 249 665 249 24 249 16 c 1
 313 16 l 1
 313 24 313 665 313 657 c 1
 534 657 l 1
EndSplineSet
EndChar

StartChar: Thorn
Encoding: 222 222 44
Width: 525
GlyphClass: 1
Flags: W
LayerCount: 2
Back
SplineSet
196.299804688 568 m 1
 291.299804688 568 l 2
 353.299804688 568 404.299804688 549 444.299804688 511 c 0
 484.299804688 473 504.299804688 421.333007812 504.299804688 356 c 0
 504.299804688 296.666992188 483.299804688 247.666992188 441.299804688 209 c 0
 399.299804688 170.333007812 347.299804688 151 285.299804688 151 c 2
 196.299804688 151 l 1
 196.299804688 259 l 1
 277.299804688 259 l 2
 308.633789062 259 332.966796875 267.5 350.299804688 284.5 c 0
 367.633789062 301.5 376.299804688 325.666992188 376.299804688 357 c 0
 376.299804688 389.666992188 367.966796875 415 351.299804688 433 c 0
 334.633789062 451 311.966796875 460 283.299804688 460 c 2
 196.299804688 460 l 1
 196.299804688 568 l 1
68.2998046875 707 m 1
 196.299804688 707 l 1
 196.299804688 0 l 1
 68.2998046875 0 l 1
 68.2998046875 707 l 1
EndSplineSet
Fore
SplineSet
150 570 m 1
 150 578 150 716 150 708 c 1
 86 708 l 1
 86 716 86 24 86 16 c 1
 150 16 l 1
 150 24 150 172 150 164 c 1
 267.093315972 164 l 2
 382.165039062 164 472 248.712890625 472 364 c 0
 472 488.8046875 389.935546875 570 272.559982639 570 c 2
 150 570 l 1
150 206 m 1
 150 514 l 1
 272.559982639 514 l 2
 354.190733507 514 408 453.41015625 408 357 c 0
 408 264.009765625 350.967144097 206 267.093315972 206 c 2
 150 206 l 1
EndSplineSet
EndChar

StartChar: U
Encoding: 85 85 45
Width: 603
GlyphClass: 1
Flags: W
LayerCount: 2
Back
SplineSet
59.900390625 708 m 1
 251.900390625 708 l 1
 251.900390625 299 l 2
 251.900390625 201.666992188 288.56640625 153 361.900390625 153 c 0
 435.233398438 153 471.900390625 201.666992188 471.900390625 299 c 2
 471.900390625 708 l 1
 663.900390625 708 l 1
 663.900390625 281 l 2
 663.900390625 185 636.06640625 113 580.400390625 65 c 0
 524.733398438 17 451.56640625 -7 360.900390625 -7 c 0
 266.233398438 -7 192.400390625 16.8330078125 139.400390625 64.5 c 0
 86.400390625 112.166992188 59.900390625 185 59.900390625 283 c 2
 59.900390625 708 l 1
EndSplineSet
Fore
SplineSet
462 273 m 2
 462 204.984375 456.880859375 56 307.629119318 56 c 0
 149.224609375 56 142 195.1015625 142 273 c 2
 142 281 142 716 142 708 c 1
 78 708 l 1
 78 716.182617188 78 261.0703125 78 263.057617188 c 2
 78 128.138671875 124.690429688 60.4208984375 178.805664062 26.0654296875 c 0
 222.373046875 -1.59375 270.520099432 -8 303.920028409 -8 c 0
 496.327148438 -8 526 158.549804688 526 261.01171875 c 2
 526 258.977539062 526 716.182617188 526 708 c 1
 462 708 l 1
 462 716 462 281 462 273 c 2
EndSplineSet
EndChar

StartChar: Uacute
Encoding: 218 218 46
Width: 603
GlyphClass: 1
Flags: HW
LayerCount: 2
Back
SplineSet
276 777 m 1
 239 856 l 1
 460 970 l 1
 519 854 l 1
 276 777 l 1
56 708 m 1
 248 708 l 1
 248 299 l 2
 248 201.666666667 284.666666667 153 358 153 c 0
 431.333333333 153 468 201.666666667 468 299 c 2
 468 708 l 1
 660 708 l 1
 660 281 l 2
 660 185 632.166666667 113 576.5 65 c 0
 520.833333333 17 447.666666667 -7 357 -7 c 0
 262.333333333 -7 188.5 16.8333333333 135.5 64.5 c 0
 82.5 112.166666667 56 185 56 283 c 2
 56 708 l 1
EndSplineSet
Fore
Refer: 59 769 N 1 0 0 1 289 40 2
Refer: 45 85 N 1 0 0 1 0 0 3
EndChar

StartChar: Ucircumflex
Encoding: 219 219 47
Width: 603
GlyphClass: 1
Flags: HW
LayerCount: 2
Back
SplineSet
195 840 m 25
 350 970 l 1
 416 970 l 1
 571 840 l 1
 514 769 l 1
 383 875 l 1
 244 769 l 1
 195 840 l 25
56 708 m 1
 248 708 l 1
 248 299 l 2
 248 201.666666667 284.666666667 153 358 153 c 0
 431.333333333 153 468 201.666666667 468 299 c 2
 468 708 l 1
 660 708 l 1
 660 281 l 2
 660 185 632.166666667 113 576.5 65 c 0
 520.833333333 17 447.666666667 -7 357 -7 c 0
 262.333333333 -7 188.5 16.8333333333 135.5 64.5 c 0
 82.5 112.166666667 56 185 56 283 c 2
 56 708 l 1
EndSplineSet
Fore
Refer: 163 770 N 1 0 0 1 295 40 2
Refer: 45 85 N 1 0 0 1 0 0 3
EndChar

StartChar: Udieresis
Encoding: 220 220 48
Width: 603
GlyphClass: 1
Flags: HW
LayerCount: 2
Back
SplineSet
427 877 m 4
 427 896.333333333 433.833333333 912.666666667 447.5 926 c 0
 461.166666667 939.333333333 477.333333333 946 496 946 c 0
 514.666666667 946 530.833333333 939.333333333 544.5 926 c 0
 558.166666667 912.666666667 565 896.333333333 565 877 c 0
 565 857.666666667 558.166666667 841.333333333 544.5 828 c 0
 530.833333333 814.666666667 514.666666667 808 496 808 c 0
 477.333333333 808 461.166666667 814.666666667 447.5 828 c 0
 433.833333333 841.333333333 427 857.666666667 427 877 c 4
201 877 m 0
 201 896.333333333 207.833333333 912.666666667 221.5 926 c 0
 235.166666667 939.333333333 251.333333333 946 270 946 c 0
 288.666666667 946 304.833333333 939.333333333 318.5 926 c 0
 332.166666667 912.666666667 339 896.333333333 339 877 c 0
 339 857.666666667 332.166666667 841.333333333 318.5 828 c 0
 304.833333333 814.666666667 288.666666667 808 270 808 c 0
 251.333333333 808 235.166666667 814.666666667 221.5 828 c 0
 207.833333333 841.333333333 201 857.666666667 201 877 c 0
56 708 m 1
 248 708 l 1
 248 299 l 2
 248 201.666666667 284.666666667 153 358 153 c 0
 431.333333333 153 468 201.666666667 468 299 c 2
 468 708 l 1
 660 708 l 1
 660 281 l 2
 660 185 632.166666667 113 576.5 65 c 0
 520.833333333 17 447.666666667 -7 357 -7 c 0
 262.333333333 -7 188.5 16.8333333333 135.5 64.5 c 0
 82.5 112.166666667 56 185 56 283 c 2
 56 708 l 1
EndSplineSet
Fore
Refer: 165 776 N 1 0 0 1 295 20 2
Refer: 45 85 N 1 0 0 1 0 0 3
EndChar

StartChar: Ugrave
Encoding: 217 217 49
Width: 603
GlyphClass: 1
Flags: HW
LayerCount: 2
Back
SplineSet
482 777 m 1
 239 854 l 1
 298 970 l 1
 519 856 l 1
 482 777 l 1
56 708 m 1
 248 708 l 1
 248 299 l 2
 248 201.666666667 284.666666667 153 358 153 c 0
 431.333333333 153 468 201.666666667 468 299 c 2
 468 708 l 1
 660 708 l 1
 660 281 l 2
 660 185 632.166666667 113 576.5 65 c 0
 520.833333333 17 447.666666667 -7 357 -7 c 0
 262.333333333 -7 188.5 16.8333333333 135.5 64.5 c 0
 82.5 112.166666667 56 185 56 283 c 2
 56 708 l 1
EndSplineSet
Fore
Refer: 101 768 N 1 0 0 1 295 40 2
Refer: 45 85 N 1 0 0 1 0 0 3
EndChar

StartChar: V
Encoding: 86 86 50
Width: 623
GlyphClass: 1
Flags: W
LayerCount: 2
Back
SplineSet
8.9501953125 708 m 1
 201.950195312 708 l 1
 349.950195312 245 l 1
 498.950195312 708 l 1
 691.950195312 708 l 1
 452.950195312 0 l 1
 246.950195312 0 l 1
 8.9501953125 708 l 1
EndSplineSet
Fore
SplineSet
307.855681512 60.8896484375 m 1
 307.855681512 68.8896484375 108.01953125 716 108.01953125 708 c 1
 39 708 l 1
 39 716 266.278711376 24 266.278711376 16 c 1
 349.474909438 16 l 1
 349.474909438 24 577.693359375 716 577.693359375 708 c 1
 508.680664062 708 l 1
 508.680664062 716 307.855681512 68.8896484375 307.855681512 60.8896484375 c 1
EndSplineSet
EndChar

StartChar: W
Encoding: 87 87 51
Width: 780
GlyphClass: 1
Flags: W
LayerCount: 2
Back
SplineSet
5.4501953125 708 m 5
 181.450195312 708 l 1
 268.450195312 250 l 1
 361.450195312 708 l 1
 539.450195312 708 l 1
 625.450195312 257 l 1
 711.450195312 708 l 1
 887.450195312 708 l 1
 724.450195312 0 l 1
 524.450195312 0 l 1
 449.450195312 343 l 1
 372.450195312 0 l 1
 168.450195312 0 l 1
 5.4501953125 708 l 5
EndSplineSet
Fore
SplineSet
225.7578125 83.81640625 m 1
 225.7578125 91.81640625 91.4697265625 715 91.4697265625 707 c 1
 29 707 l 1
 29 715 189.288085938 24 189.288085938 16 c 1
 266.540039062 16 l 1
 266.540039062 24 400.055664062 612.728515625 400.055664062 604.728515625 c 1
 400.055664062 612.728515625 523.61686878 24 523.61686878 16 c 1
 592.434050468 16 l 1
 592.434050468 24 746.864257812 716 746.864257812 708 c 1
 684.397460938 708 l 1
 684.397460938 716 558.930634795 93.853515625 558.930634795 85.853515625 c 1
 558.930634795 93.853515625 433.462890625 716 433.462890625 708 c 1
 366.330078125 708 l 1
 366.330078125 716 225.7578125 91.81640625 225.7578125 83.81640625 c 1
EndSplineSet
EndChar

StartChar: X
Encoding: 88 88 52
Width: 628
GlyphClass: 1
Flags: W
LayerCount: 2
Back
SplineSet
6.5498046875 708 m 1
 208.549804688 708 l 1
 356.549804688 465 l 1
 505.549804688 708 l 1
 708.549804688 708 l 1
 473.549804688 354 l 1
 708.549804688 0 l 1
 505.549804688 0 l 1
 356.549804688 244 l 1
 208.549804688 0 l 1
 6.5498046875 0 l 1
 231.549804688 354 l 1
 6.5498046875 708 l 1
EndSplineSet
Fore
SplineSet
307.224631328 403.95703125 m 1
 307.224631328 411.95703125 123.811523438 716 123.811523438 708 c 1
 51 708 l 1
 51 716 270.36966436 370 270.36966436 362 c 1
 270.36966436 370 51 24 51 16 c 1
 123.803710938 16 l 1
 123.803710938 24 307.224631328 329.079101562 307.224631328 321.079101562 c 1
 307.224631328 329.079101562 489.6640625 24 489.6640625 16 c 1
 563.455078125 16 l 1
 563.455078125 24 344.044043873 370 344.044043873 362 c 1
 344.044043873 370 563.455078125 716 563.455078125 708 c 1
 489.65625 708 l 1
 489.65625 716 307.224631328 411.95703125 307.224631328 403.95703125 c 1
EndSplineSet
EndChar

StartChar: Y
Encoding: 89 89 53
Width: 563
GlyphClass: 1
Flags: W
LayerCount: 2
Back
SplineSet
5 708 m 1
 189 708 l 1
 326 406 l 1
 459 708 l 1
 644 708 l 1
 421 270 l 1
 421 0 l 1
 229 0 l 1
 229 269 l 1
 5 708 l 1
EndSplineSet
Fore
SplineSet
20 708 m 1
 20 716 247.725163354 289.052734375 247.725163354 281.052734375 c 1
 247.725163354 289.052734375 247.725163354 24 247.725163354 16 c 1
 307.106737079 16 l 1
 307.106737079 24 307.106737079 287.022460938 307.106737079 279.022460938 c 1
 307.106737079 287.022460938 532.068359375 716 532.068359375 708 c 1
 457.423828125 708 l 1
 457.423828125 716 277.472069395 340.2265625 277.472069395 332.2265625 c 1
 277.472069395 340.2265625 94.5703125 716 94.5703125 708 c 1
 20 708 l 1
EndSplineSet
EndChar

StartChar: Yacute
Encoding: 221 221 54
Width: 563
GlyphClass: 1
Flags: HW
LayerCount: 2
Back
SplineSet
206 777 m 1
 169 856 l 1
 390 970 l 1
 449 854 l 1
 206 777 l 1
4 708 m 1
 188 708 l 1
 325 406 l 1
 458 708 l 1
 643 708 l 1
 420 270 l 1
 420 0 l 1
 228 0 l 1
 228 269 l 1
 4 708 l 1
EndSplineSet
Fore
Refer: 59 769 N 1 0 0 1 268.479 40 2
Refer: 53 89 N 1 0 0 1 0 0 3
EndChar

StartChar: Z
Encoding: 90 90 55
Width: 571
GlyphClass: 1
Flags: W
LayerCount: 2
Back
SplineSet
51.099609375 708 m 1
 617.099609375 708 l 1
 617.099609375 580 l 1
 289.099609375 160 l 1
 617.099609375 160 l 1
 617.099609375 0 l 1
 51.099609375 0 l 1
 51.099609375 128 l 1
 382.099609375 548 l 1
 51.099609375 548 l 1
 51.099609375 708 l 1
EndSplineSet
Fore
SplineSet
505 654.422851562 m 1
 505 662.422851562 505 716 505 708 c 1
 62 708 l 1
 62 716 62 668 62 660 c 1
 62 668 439.955078125 668 439.955078125 660 c 1
 439.955078125 668 62 77.5771484375 62 69.5771484375 c 1
 62 77.5771484375 62 24 62 16 c 1
 510 16 l 1
 510 24 510 72 510 64 c 1
 510 72 127.044921875 72 127.044921875 64 c 1
 127.044921875 72 505 662.422851562 505 654.422851562 c 1
EndSplineSet
EndChar

StartChar: a
Encoding: 97 97 56
Width: 505
GlyphClass: 1
Flags: W
AnchorPoint: "AccentCenter" 267 687 basechar 0
LayerCount: 2
Back
SplineSet
256.099609375 528 m 4
 339.43359375 528 402.599609375 509.333007812 445.599609375 472 c 0
 488.599609375 434.666992188 510.099609375 379.666992188 510.099609375 307 c 2
 510.099609375 150 l 2
 510.099609375 133.333007812 513.599609375 121.166992188 520.599609375 113.5 c 0
 527.599609375 105.833007812 538.766601562 102 554.099609375 102 c 2
 567.099609375 102 l 1
 567.099609375 0 l 1
 524.43359375 -5.3330078125 490.43359375 -8 465.099609375 -8 c 0
 399.099609375 -8 353.43359375 17 328.099609375 67 c 1
 297.43359375 17 251.099609375 -8 189.099609375 -8 c 0
 137.766601562 -8 97.7666015625 6.3330078125 69.099609375 35 c 0
 40.43359375 63.6669921875 26.099609375 104 26.099609375 156 c 0
 26.099609375 205.333007812 46.43359375 244.333007812 87.099609375 273 c 0
 127.766601562 301.666992188 183.099609375 316 253.099609375 316 c 2
 328.099609375 316 l 1
 328.099609375 333 l 2
 328.099609375 381.666992188 297.43359375 406 236.099609375 406 c 0
 213.43359375 406 189.766601562 402.5 165.099609375 395.5 c 0
 140.43359375 388.5 122.099609375 380.333007812 110.099609375 371 c 1
 55.099609375 473 l 1
 111.099609375 509.666992188 178.099609375 528 256.099609375 528 c 4
328.099609375 205 m 5
 264.099609375 205 l 2
 228.099609375 205 210.099609375 190.666992188 210.099609375 162 c 0
 210.099609375 132 226.766601562 117 260.099609375 117 c 0
 290.766601562 117 313.43359375 129.666992188 328.099609375 155 c 1
 328.099609375 205 l 5
EndSplineSet
Fore
SplineSet
254 300.200195312 m 2
 111.903320312 300.200195312 42 242.609375 42 145.584960938 c 0
 42 64.8837890625 75.3857421875 -8 196 -8 c 0
 260.639648438 -8 315.783203125 18.65234375 353.287109375 76.3515625 c 2
 353.287109375 68.3515625 365.728515625 87.4912109375 365.728515625 95.4912109375 c 1
 369.532226562 56.81640625 371.708984375 34.6904296875 386.864257812 15.0869140625 c 0
 398.87109375 -0.4423828125 416.418945312 -8 442 -8 c 0
 460.416015625 -8 473.377929688 -6.5498046875 485 -3.6982421875 c 1
 485 -11.8115234375 485 29.4404296875 485 36.3232421875 c 1
 472 36.3232421875 l 2
 459.666992188 36.3232421875 432 40.45703125 432 77.5537109375 c 2
 432 71.9404296875 432 335.436523438 432 333.184570312 c 2
 432 410.7109375 409.41015625 528 250 528 c 0
 185.158203125 528 133.658203125 508.756835938 72.5 460.772460938 c 1
 72.5 466.950195312 100.115234375 432.204101562 100.115234375 427.063476562 c 1
 142.956054688 460.953125 191.716796875 478.5234375 245 478.5234375 c 0
 310.201171875 478.5234375 368 449.416992188 368 347.615234375 c 2
 368 350.311523438 368 301.436523438 368 300.200195312 c 1
 254 300.200195312 l 2
224 48 m 0
 196.1015625 48 106 50.5 106 148 c 0
 106 232.520507812 169.274414062 253 251 253 c 2
 368 253 l 1
 368 126.49609375 l 1
 334.965820312 78.9267578125 273.305664062 48 224 48 c 0
EndSplineSet
EndChar

StartChar: aacute
Encoding: 225 225 57
Width: 505
GlyphClass: 1
Flags: HW
LayerCount: 2
Back
SplineSet
169 583 m 1
 132 662 l 1
 353 776 l 1
 412 660 l 1
 169 583 l 1
254 528 m 4
 337.333333333 528 400.5 509.333333333 443.5 472 c 0
 486.5 434.666666667 508 379.666666667 508 307 c 2
 508 150 l 2
 508 133.333333333 511.5 121.166666667 518.5 113.5 c 0
 525.5 105.833333333 536.666666667 102 552 102 c 2
 565 102 l 1
 565 0 l 1
 522.333333333 -5.33333333333 488.333333333 -8 463 -8 c 0
 397 -8 351.333333333 17 326 67 c 1
 295.333333333 17 249 -8 187 -8 c 0
 135.666666667 -8 95.6666666667 6.33333333333 67 35 c 0
 38.3333333333 63.6666666667 24 104 24 156 c 0
 24 205.333333333 44.3333333333 244.333333333 85 273 c 0
 125.666666667 301.666666667 181 316 251 316 c 2
 326 316 l 1
 326 333 l 2
 326 381.666666667 295.333333333 406 234 406 c 0
 211.333333333 406 187.666666667 402.5 163 395.5 c 0
 138.333333333 388.5 120 380.333333333 108 371 c 1
 53 473 l 1
 109 509.666666667 176 528 254 528 c 4
326 205 m 5
 262 205 l 2
 226 205 208 190.666666667 208 162 c 0
 208 132 224.666666667 117 258 117 c 0
 288.666666667 117 311.333333333 129.666666667 326 155 c 1
 326 205 l 5
EndSplineSet
Fore
Refer: 59 769 N 1 0 0 1 259 -147 2
Refer: 56 97 N 1 0 0 1 0 0 3
EndChar

StartChar: acircumflex
Encoding: 226 226 58
Width: 505
GlyphClass: 1
Flags: HW
LayerCount: 2
Back
SplineSet
88 646 m 25
 243 776 l 1
 309 776 l 1
 464 646 l 1
 407 575 l 1
 276 681 l 1
 137 575 l 1
 88 646 l 25
254 528 m 4
 337.333333333 528 400.5 509.333333333 443.5 472 c 0
 486.5 434.666666667 508 379.666666667 508 307 c 2
 508 150 l 2
 508 133.333333333 511.5 121.166666667 518.5 113.5 c 0
 525.5 105.833333333 536.666666667 102 552 102 c 2
 565 102 l 1
 565 0 l 1
 522.333333333 -5.33333333333 488.333333333 -8 463 -8 c 0
 397 -8 351.333333333 17 326 67 c 1
 295.333333333 17 249 -8 187 -8 c 0
 135.666666667 -8 95.6666666667 6.33333333333 67 35 c 0
 38.3333333333 63.6666666667 24 104 24 156 c 0
 24 205.333333333 44.3333333333 244.333333333 85 273 c 0
 125.666666667 301.666666667 181 316 251 316 c 2
 326 316 l 1
 326 333 l 2
 326 381.666666667 295.333333333 406 234 406 c 0
 211.333333333 406 187.666666667 402.5 163 395.5 c 0
 138.333333333 388.5 120 380.333333333 108 371 c 1
 53 473 l 1
 109 509.666666667 176 528 254 528 c 4
326 205 m 5
 262 205 l 2
 226 205 208 190.666666667 208 162 c 0
 208 132 224.666666667 117 258 117 c 0
 288.666666667 117 311.333333333 129.666666667 326 155 c 1
 326 205 l 5
EndSplineSet
Fore
Refer: 163 770 N 1 0 0 1 259 -147 2
Refer: 56 97 N 1 0 0 1 0 0 3
EndChar

StartChar: acutecomb
Encoding: 769 769 59
Width: -16
GlyphClass: 1
Flags: W
AnchorPoint: "AccentCenter" -0 834 mark 0
LayerCount: 2
Back
SplineSet
-112.741210938 737 m 1
 -149.741210938 816 l 1
 71.2587890625 930 l 1
 130.258789062 814 l 1
 -112.741210938 737 l 1
EndSplineSet
Fore
SplineSet
-99.65234375 762.588867188 m 1
 -99.65234375 770.588867188 105.034179688 885.549804688 105.034179688 877.549804688 c 1
 105.034179688 885.549804688 67.86328125 936.166015625 67.86328125 928.166015625 c 1
 67.86328125 936.166015625 -126 809.733398438 -126 801.733398438 c 1
 -126 809.733398438 -99.65234375 770.588867188 -99.65234375 762.588867188 c 1
EndSplineSet
EndChar

StartChar: adieresis
Encoding: 228 228 60
Width: 505
GlyphClass: 1
Flags: HW
LayerCount: 2
Back
SplineSet
320 683 m 4
 320 702.333333333 326.666666667 718.666666667 340 732 c 0
 353.333333333 745.333333333 369.666666667 752 389 752 c 0
 408.333333333 752 424.666666667 745.333333333 438 732 c 0
 451.333333333 718.666666667 458 702.333333333 458 683 c 0
 458 663.666666667 451.333333333 647.333333333 438 634 c 0
 424.666666667 620.666666667 408.333333333 614 389 614 c 0
 369.666666667 614 353.333333333 620.666666667 340 634 c 0
 326.666666667 647.333333333 320 663.666666667 320 683 c 4
94 683 m 0
 94 702.333333333 100.666666667 718.666666667 114 732 c 0
 127.333333333 745.333333333 143.666666667 752 163 752 c 0
 182.333333333 752 198.666666667 745.333333333 212 732 c 0
 225.333333333 718.666666667 232 702.333333333 232 683 c 0
 232 663.666666667 225.333333333 647.333333333 212 634 c 0
 198.666666667 620.666666667 182.333333333 614 163 614 c 0
 143.666666667 614 127.333333333 620.666666667 114 634 c 0
 100.666666667 647.333333333 94 663.666666667 94 683 c 0
254 528 m 4
 337.333333333 528 400.5 509.333333333 443.5 472 c 0
 486.5 434.666666667 508 379.666666667 508 307 c 2
 508 150 l 2
 508 133.333333333 511.5 121.166666667 518.5 113.5 c 0
 525.5 105.833333333 536.666666667 102 552 102 c 2
 565 102 l 1
 565 0 l 1
 522.333333333 -5.33333333333 488.333333333 -8 463 -8 c 0
 397 -8 351.333333333 17 326 67 c 1
 295.333333333 17 249 -8 187 -8 c 0
 135.666666667 -8 95.6666666667 6.33333333333 67 35 c 0
 38.3333333333 63.6666666667 24 104 24 156 c 0
 24 205.333333333 44.3333333333 244.333333333 85 273 c 0
 125.666666667 301.666666667 181 316 251 316 c 2
 326 316 l 1
 326 333 l 2
 326 381.666666667 295.333333333 406 234 406 c 0
 211.333333333 406 187.666666667 402.5 163 395.5 c 0
 138.333333333 388.5 120 380.333333333 108 371 c 1
 53 473 l 1
 109 509.666666667 176 528 254 528 c 4
326 205 m 5
 262 205 l 2
 226 205 208 190.666666667 208 162 c 0
 208 132 224.666666667 117 258 117 c 0
 288.666666667 117 311.333333333 129.666666667 326 155 c 1
 326 205 l 5
EndSplineSet
Fore
Refer: 165 776 N 1 0 0 1 259 -167 2
Refer: 56 97 N 1 0 0 1 0 0 3
EndChar

StartChar: ae
Encoding: 230 230 61
Width: 835
GlyphClass: 1
Flags: W
LayerCount: 2
Back
SplineSet
428.099609375 110 m 5
 414.766601562 76.6669921875 390.099609375 48.8330078125 354.099609375 26.5 c 4
 318.099609375 4.1669921875 279.43359375 -7 238.099609375 -7 c 4
 227.43359375 -7 216.43359375 -6.3330078125 205.099609375 -5 c 4
 193.766601562 -3.6669921875 178.599609375 0 159.599609375 6 c 4
 140.599609375 12 123.93359375 20.1669921875 109.599609375 30.5 c 4
 95.2666015625 40.8330078125 82.7666015625 56.1669921875 72.099609375 76.5 c 4
 61.43359375 96.8330078125 56.099609375 121 56.099609375 149 c 4
 56.099609375 254.333007812 129.43359375 307 276.099609375 307 c 6
 396.099609375 307 l 5
 396.099609375 346 l 6
 396.099609375 358 394.599609375 369.666992188 391.599609375 381 c 4
 388.599609375 392.333007812 382.93359375 404.666992188 374.599609375 418 c 4
 366.266601562 431.333007812 352.599609375 442 333.599609375 450 c 4
 314.599609375 458 291.43359375 462 264.099609375 462 c 4
 208.099609375 462 163.43359375 441 130.099609375 399 c 5
 83.099609375 438 l 5
 90.43359375 449.333007812 99.599609375 460.833007812 110.599609375 472.5 c 4
 121.599609375 484.166992188 141.43359375 496.333007812 170.099609375 509 c 4
 198.766601562 521.666992188 230.766601562 528 266.099609375 528 c 4
 350.099609375 528 407.099609375 495 437.099609375 429 c 5
 473.766601562 495 536.099609375 528 624.099609375 528 c 4
 679.43359375 528 726.93359375 509 766.599609375 471 c 4
 806.266601562 433 826.099609375 378.333007812 826.099609375 307 c 4
 826.099609375 281 821.099609375 259 811.099609375 241 c 5
 474.099609375 241 l 5
 474.099609375 219.666992188 476.43359375 199.333007812 481.099609375 180 c 4
 485.766601562 160.666992188 493.266601562 141.333007812 503.599609375 122 c 4
 513.93359375 102.666992188 529.43359375 87.1669921875 550.099609375 75.5 c 4
 570.766601562 63.8330078125 595.099609375 58 623.099609375 58 c 4
 689.099609375 58 739.43359375 82.3330078125 774.099609375 131 c 5
 823.099609375 87 l 5
 788.43359375 49.6669921875 755.93359375 24.6669921875 725.599609375 12 c 4
 695.266601562 -0.6669921875 660.43359375 -7 621.099609375 -7 c 4
 531.099609375 -7 466.766601562 32 428.099609375 110 c 5
242.099609375 58 m 4
 250.766601562 58 260.099609375 58.6669921875 270.099609375 60 c 4
 280.099609375 61.3330078125 293.099609375 65 309.099609375 71 c 4
 325.099609375 77 339.099609375 85.1669921875 351.099609375 95.5 c 4
 363.099609375 105.833007812 373.599609375 121.5 382.599609375 142.5 c 4
 391.599609375 163.5 396.099609375 188 396.099609375 216 c 6
 396.099609375 241 l 5
 290.099609375 241 l 6
 229.43359375 241 188.266601562 234 166.599609375 220 c 4
 144.93359375 206 134.099609375 182.333007812 134.099609375 149 c 4
 134.099609375 88.3330078125 170.099609375 58 242.099609375 58 c 4
752.099609375 319 m 6
 752.099609375 329 751.43359375 339.166992188 750.099609375 349.5 c 4
 748.766601562 359.833007812 745.599609375 372.166992188 740.599609375 386.5 c 4
 735.599609375 400.833007812 728.766601562 413.333007812 720.099609375 424 c 4
 711.43359375 434.666992188 698.599609375 443.833007812 681.599609375 451.5 c 4
 664.599609375 459.166992188 645.099609375 463 623.099609375 463 c 4
 608.43359375 463 593.93359375 461.166992188 579.599609375 457.5 c 4
 565.266601562 453.833007812 549.599609375 447.166992188 532.599609375 437.5 c 4
 515.599609375 427.833007812 501.766601562 411.833007812 491.099609375 389.5 c 4
 480.43359375 367.166992188 474.766601562 339.666992188 474.099609375 307 c 5
 752.099609375 307 l 5
 752.099609375 319 l 6
EndSplineSet
Fore
SplineSet
254 300.200195312 m 2
 111.903320312 300.200195312 42 242.609375 42 145.584960938 c 0
 42 64.8837890625 75.3857421875 -8 196 -8 c 0
 293.2734375 -8 353.973632812 36.376953125 396.040039062 83.3349609375 c 2
 396.040039062 75.3349609375 403.013671875 83.119140625 403.013671875 91.119140625 c 1
 422.780273438 60.708984375 467.44140625 -8 587 -8 c 0
 655.78125 -8 723.84765625 17.3857421875 784.169921875 66.75390625 c 1
 784.169921875 60.80859375 758.678710938 99.5 758.678710938 104.291015625 c 1
 709.89453125 59.3837890625 662.413085938 41.4765625 594 41.4765625 c 0
 430.372070312 41.4765625 428 194.654296875 428 235.26171875 c 2
 428 234.5 428 243 428 243.5078125 c 1
 782.068359375 243.5078125 l 1
 784.385742188 253.806640625 786 272.950195312 786 299.168945312 c 0
 786 441.025390625 709.24609375 528 587 528 c 0
 508.778320312 528 453.584960938 502.872070312 416.311523438 455.0859375 c 2
 416.311523438 463.0859375 409.137695312 453.888671875 409.137695312 445.888671875 c 1
 409.137695312 453.888671875 403.134765625 463.892578125 403.134765625 455.892578125 c 2
 374.883789062 502.978515625 325.205078125 528 250 528 c 0
 185.158203125 528 133.658203125 508.756835938 72.5 460.772460938 c 1
 72.5 466.950195312 100.115234375 432.204101562 100.115234375 427.063476562 c 1
 142.956054688 460.953125 191.716796875 478.5234375 245 478.5234375 c 0
 310.201171875 478.5234375 368 449.416992188 368 347.615234375 c 2
 368 350.311523438 368 301.436523438 368 300.200195312 c 1
 254 300.200195312 l 2
224 48 m 0
 196.1015625 48 106 50.5 106 148 c 0
 106 232.520507812 169.274414062 253 251 253 c 2
 368 253 l 1
 368 126.49609375 l 1
 334.965820312 78.9267578125 273.305664062 48 224 48 c 0
428 287 m 1
 428 295 l 2
 428 379.018554688 455.272460938 472 576 472 c 0
 625.899414062 472 727 455.083984375 727 318 c 2
 727 287 l 1
 428 287 l 1
EndSplineSet
EndChar

StartChar: agrave
Encoding: 224 224 62
Width: 505
GlyphClass: 1
Flags: HW
LayerCount: 2
Back
SplineSet
375 583 m 1
 132 660 l 1
 191 776 l 1
 412 662 l 1
 375 583 l 1
254 528 m 4
 337.333333333 528 400.5 509.333333333 443.5 472 c 0
 486.5 434.666666667 508 379.666666667 508 307 c 2
 508 150 l 2
 508 133.333333333 511.5 121.166666667 518.5 113.5 c 0
 525.5 105.833333333 536.666666667 102 552 102 c 2
 565 102 l 1
 565 0 l 1
 522.333333333 -5.33333333333 488.333333333 -8 463 -8 c 0
 397 -8 351.333333333 17 326 67 c 1
 295.333333333 17 249 -8 187 -8 c 0
 135.666666667 -8 95.6666666667 6.33333333333 67 35 c 0
 38.3333333333 63.6666666667 24 104 24 156 c 0
 24 205.333333333 44.3333333333 244.333333333 85 273 c 0
 125.666666667 301.666666667 181 316 251 316 c 2
 326 316 l 1
 326 333 l 2
 326 381.666666667 295.333333333 406 234 406 c 0
 211.333333333 406 187.666666667 402.5 163 395.5 c 0
 138.333333333 388.5 120 380.333333333 108 371 c 1
 53 473 l 1
 109 509.666666667 176 528 254 528 c 4
326 205 m 5
 262 205 l 2
 226 205 208 190.666666667 208 162 c 0
 208 132 224.666666667 117 258 117 c 0
 288.666666667 117 311.333333333 129.666666667 326 155 c 1
 326 205 l 5
EndSplineSet
Fore
Refer: 101 768 N 1 0 0 1 259 -147 2
Refer: 56 97 N 1 0 0 1 0 0 3
EndChar

StartChar: ampersand
Encoding: 38 38 63
Width: 600
GlyphClass: 1
Flags: W
LayerCount: 2
Back
SplineSet
441.049804688 291 m 1
 302.049804688 291 l 1
 282.716796875 286.333007812 266.883789062 276.833007812 254.549804688 262.5 c 0
 242.216796875 248.166992188 236.049804688 231.666992188 236.049804688 213 c 0
 236.049804688 187.666992188 244.216796875 167.833007812 260.549804688 153.5 c 0
 276.883789062 139.166992188 299.383789062 132 328.049804688 132 c 0
 374.049804688 132 411.716796875 149.666992188 441.049804688 185 c 1
 441.049804688 291 l 1
364.049804688 716 m 0
 462.049804688 716 548.049804688 689 622.049804688 635 c 1
 547.049804688 520 l 1
 489.049804688 558.666992188 432.716796875 578 378.049804688 578 c 0
 343.383789062 578 317.049804688 571.5 299.049804688 558.5 c 0
 281.049804688 545.5 272.049804688 528.333007812 272.049804688 507 c 0
 272.049804688 477 289.383789062 453.333007812 324.049804688 436 c 1
 702.049804688 436 l 1
 702.049804688 436 702.049804688 436 702.049804688 291 c 1
 613.049804688 291 l 1
 613.049804688 126 l 1
 707.049804688 -7 l 1
 514.049804688 -7 l 1
 457.049804688 80 l 1
 435.049804688 53.3330078125 405.549804688 32 368.549804688 16 c 0
 331.549804688 0 293.383789062 -8 254.049804688 -8 c 0
 186.049804688 -8 132.549804688 8.1669921875 93.5498046875 40.5 c 0
 54.5498046875 72.8330078125 35.0498046875 121 35.0498046875 185 c 0
 35.0498046875 227 47.5498046875 264.666992188 72.5498046875 298 c 0
 97.5498046875 331.333007812 131.716796875 356.666992188 175.049804688 374 c 1
 145.716796875 385.333007812 122.716796875 405.333007812 106.049804688 434 c 0
 89.3837890625 462.666992188 81.0498046875 496 81.0498046875 534 c 0
 81.0498046875 590 105.216796875 634.333007812 153.549804688 667 c 0
 201.883789062 699.666992188 272.049804688 716 364.049804688 716 c 0
EndSplineSet
Fore
SplineSet
412.931188072 130.604492188 m 2
 352.006778773 58.328125 277.705973704 48 239.691692073 48 c 0
 144.399414062 48 100 103.930664062 100 190 c 0
 100 280.124023438 164.284179688 323.111328125 220.236328125 349 c 1
 414.86242378 349 l 1
 414.86242378 132.896484375 l 1
 412.931188072 130.604492188 l 2
213.8125 400.873046875 m 1
 158.09375 434.783203125 130 476.016601562 130 543 c 0
 130 599.521484375 155.288085938 672 281.179496951 672 c 0
 333.475019055 672 394.252672447 649.379882812 448.186523438 613.380859375 c 1
 448.186523438 621.380859375 469.240234375 659.131835938 469.240234375 651.131835938 c 1
 406.115591654 689.857421875 357.829296875 716 277.491692073 716 c 0
 137.749023438 716 74 627.28125 74 550 c 0
 74 480.74609375 104.255859375 424.865234375 167.405273438 381.85546875 c 2
 167.405273438 385.127929688 179.319335938 376.774414062 179.319335938 373.7421875 c 1
 131.040039062 350.510742188 33 303.334960938 33 180.40234375 c 0
 33 90.6943359375 66.9853515625 43.556640625 110.6875 18.388671875 c 0
 145.951171875 -1.9208984375 188.567382812 -8 226 -8 c 0
 296.749128239 -8 357.407936357 20.830078125 409.648537538 79.1875 c 2
 409.648537538 73.5556640625 415.990553544 80.8525390625 415.990553544 86.2724609375 c 1
 415.990553544 80.8525390625 471.265625 -7.75390625 471.265625 0.2392578125 c 1
 546.436523438 0.2392578125 l 1
 546.436523438 -7.75390625 478 83.6923828125 478 89.0302734375 c 1
 478 83.6923828125 478 353.947265625 478 351.4375 c 1
 575 351.4375 l 1
 575 353.947265625 575 404.861328125 575 400.873046875 c 1
 213.8125 400.873046875 l 1
EndSplineSet
EndChar

StartChar: aring
Encoding: 229 229 64
Width: 505
GlyphClass: 1
Flags: HW
LayerCount: 2
Back
SplineSet
241 686 m 0
 241 674 244.666666667 664.333333333 252 657 c 0
 259.333333333 649.666666667 268.666666667 646 280 646 c 0
 291.333333333 646 300.666666667 649.666666667 308 657 c 0
 315.333333333 664.333333333 319 674 319 686 c 0
 319 698 315.333333333 707.666666667 308 715 c 0
 300.666666667 722.333333333 291.333333333 726 280 726 c 0
 268.666666667 726 259.333333333 722.333333333 252 715 c 0
 244.666666667 707.666666667 241 698 241 686 c 0
170 686 m 0
 170 717.333333333 180.666666667 743.5 202 764.5 c 0
 223.333333333 785.5 249.333333333 796 280 796 c 0
 310.666666667 796 336.666666667 785.5 358 764.5 c 0
 379.333333333 743.5 390 717.333333333 390 686 c 0
 390 654.666666667 379.333333333 628.5 358 607.5 c 0
 336.666666667 586.5 310.666666667 576 280 576 c 0
 249.333333333 576 223.333333333 586.5 202 607.5 c 0
 180.666666667 628.5 170 654.666666667 170 686 c 0
254 528 m 4
 337.333333333 528 400.5 509.333333333 443.5 472 c 0
 486.5 434.666666667 508 379.666666667 508 307 c 2
 508 150 l 2
 508 133.333333333 511.5 121.166666667 518.5 113.5 c 0
 525.5 105.833333333 536.666666667 102 552 102 c 2
 565 102 l 1
 565 0 l 1
 522.333333333 -5.33333333333 488.333333333 -8 463 -8 c 0
 397 -8 351.333333333 17 326 67 c 1
 295.333333333 17 249 -8 187 -8 c 0
 135.666666667 -8 95.6666666667 6.33333333333 67 35 c 0
 38.3333333333 63.6666666667 24 104 24 156 c 0
 24 205.333333333 44.3333333333 244.333333333 85 273 c 0
 125.666666667 301.666666667 181 316 251 316 c 2
 326 316 l 1
 326 333 l 2
 326 381.666666667 295.333333333 406 234 406 c 0
 211.333333333 406 187.666666667 402.5 163 395.5 c 0
 138.333333333 388.5 120 380.333333333 108 371 c 1
 53 473 l 1
 109 509.666666667 176 528 254 528 c 4
326 205 m 5
 262 205 l 2
 226 205 208 190.666666667 208 162 c 0
 208 132 224.666666667 117 258 117 c 0
 288.666666667 117 311.333333333 129.666666667 326 155 c 1
 326 205 l 5
EndSplineSet
Fore
Refer: 166 778 N 1 0 0 1 250 -154 2
Refer: 56 97 N 1 0 0 1 0 0 3
EndChar

StartChar: asciicircum
Encoding: 94 94 65
Width: 489
GlyphClass: 1
Flags: W
LayerCount: 2
Back
SplineSet
81.244140625 716 m 25
 212.244140625 852 l 1
 277.244140625 852 l 1
 408.244140625 716 l 1
 368.244140625 667 l 1
 245.244140625 786 l 1
 122.244140625 667 l 1
 81.244140625 716 l 25
EndSplineSet
Fore
SplineSet
259.779296875 852 m 1
 199.47265625 852 l 1
 199.47265625 860 74 732.640625 74 724.640625 c 1
 74 732.640625 107.650390625 693.63671875 107.650390625 685.63671875 c 1
 107.650390625 693.63671875 230.125976562 812.12890625 230.125976562 804.12890625 c 1
 230.125976562 812.12890625 352.532226562 693.704101562 352.532226562 685.704101562 c 1
 352.532226562 693.704101562 385.310546875 732.581054688 385.310546875 724.581054688 c 1
 385.310546875 732.581054688 259.779296875 860 259.779296875 852 c 1
EndSplineSet
EndChar

StartChar: asciitilde
Encoding: 126 126 66
Width: 637
GlyphClass: 1
Flags: W
LayerCount: 2
Back
SplineSet
81.17578125 265 m 5
 82.5087890625 268.333007812 84.3427734375 272.666992188 86.67578125 278 c 0
 89.0087890625 283.333007812 94.8427734375 293 104.17578125 307 c 0
 113.508789062 321 124.008789062 333.333007812 135.67578125 344 c 0
 147.342773438 354.666992188 163.67578125 364.333007812 184.67578125 373 c 0
 205.67578125 381.666992188 228.508789062 386 253.17578125 386 c 0
 278.508789062 386 310.67578125 370.166992188 349.67578125 338.5 c 0
 388.67578125 306.833007812 419.842773438 291 443.17578125 291 c 0
 460.508789062 291 476.342773438 298.833007812 490.67578125 314.5 c 0
 505.008789062 330.166992188 515.008789062 345.666992188 520.67578125 361 c 2
 529.17578125 384 l 1
 589.17578125 343 l 1
 587.842773438 339.666992188 585.842773438 335.333007812 583.17578125 330 c 0
 580.508789062 324.666992188 574.508789062 315.333007812 565.17578125 302 c 0
 555.842773438 288.666992188 545.842773438 276.833007812 535.17578125 266.5 c 0
 524.508789062 256.166992188 510.17578125 246.666992188 492.17578125 238 c 0
 474.17578125 229.333007812 455.17578125 225 435.17578125 225 c 0
 411.842773438 225 388.508789062 233 365.17578125 249 c 0
 341.842773438 265 319.842773438 281 299.17578125 297 c 0
 278.508789062 313 259.17578125 321 241.17578125 321 c 0
 219.17578125 321 199.008789062 313 180.67578125 297 c 0
 162.342773438 281 149.67578125 265 142.67578125 249 c 2
 132.17578125 225 l 1
 81.17578125 265 l 5
EndSplineSet
Fore
SplineSet
502.1328125 373.038085938 m 1
 478.688476562 319.181640625 450.107421875 288 414.500667764 288 c 0
 349.113384709 288 300.710879442 378 236.740669564 378 c 0
 143.901367188 378 90.70703125 310.892578125 74 267.798828125 c 1
 116.206054688 235.568359375 l 1
 128.55078125 262.534179688 162.831054688 324 225.513722309 324 c 0
 291.300270985 324 329.494550204 233 407.016036261 233 c 0
 476.213867188 233 523.27734375 284.549804688 552.125976562 340.229492188 c 1
 502.1328125 373.038085938 l 1
EndSplineSet
EndChar

StartChar: asterisk
Encoding: 42 42 67
Width: 518
GlyphClass: 1
Flags: W
LayerCount: 2
Back
SplineSet
208.194335938 806 m 1
 313.194335938 806 l 1
 313.194335938 702 l 1
 289.194335938 664 l 1
 317.194335938 693 l 1
 430.194335938 717 l 1
 454.194335938 629 l 1
 334.194335938 597 l 1
 310.194335938 604 l 1
 328.194335938 593 l 1
 404.194335938 494 l 1
 325.194335938 442 l 1
 260.194335938 542 l 1
 195.194335938 442 l 1
 116.194335938 494 l 1
 192.194335938 593 l 1
 210.194335938 604 l 1
 187.194335938 597 l 1
 67.1943359375 629 l 1
 90.1943359375 717 l 1
 203.194335938 693 l 1
 232.194335938 664 l 1
 208.194335938 702 l 1
 208.194335938 806 l 1
EndSplineSet
Fore
SplineSet
268.370682351 707.588867188 m 1
 268.370682351 715.588867188 268.370682351 814 268.370682351 806 c 1
 221.991754002 806 l 1
 221.991754002 814 221.991754002 715.588867188 221.991754002 707.588867188 c 1
 221.991754002 715.588867188 228.980968591 659.986328125 228.980968591 651.986328125 c 1
 228.980968591 659.986328125 183.0859375 685.571289062 183.0859375 677.571289062 c 1
 183.0859375 685.571289062 89.4755859375 715.856445312 89.4755859375 707.856445312 c 1
 89.4755859375 715.856445312 74 663.239257812 74 655.239257812 c 1
 74 663.239257812 165.9765625 633.806640625 165.9765625 625.806640625 c 1
 165.9765625 633.806640625 215.472233421 625.508789062 215.472233421 617.508789062 c 1
 215.472233421 625.508789062 182.336914062 587.92578125 182.336914062 579.92578125 c 1
 182.336914062 587.92578125 127.208007812 507.990234375 127.208007812 499.990234375 c 1
 127.208007812 507.990234375 171.249023438 477.084960938 171.249023438 469.084960938 c 1
 171.249023438 477.084960938 223.842012898 556.181640625 223.842012898 548.181640625 c 1
 223.842012898 556.181640625 246.206996341 606.891601562 246.206996341 598.891601562 c 1
 246.206996341 606.891601562 267.435488031 556.083007812 267.435488031 548.083007812 c 1
 267.435488031 556.083007812 319.038085938 477.120117188 319.038085938 469.120117188 c 1
 319.038085938 477.120117188 363.029296875 507.990234375 363.029296875 499.990234375 c 1
 363.029296875 507.990234375 307.900390625 587.92578125 307.900390625 579.92578125 c 1
 307.900390625 587.92578125 274.890202932 625.508789062 274.890202932 617.508789062 c 1
 274.890202932 625.508789062 324.272460938 633.80859375 324.272460938 625.80859375 c 1
 324.272460938 633.80859375 417.129882812 663.228515625 417.129882812 655.228515625 c 1
 417.129882812 663.228515625 400.873046875 715.868164062 400.873046875 707.868164062 c 1
 400.873046875 715.868164062 308.122070312 685.563476562 308.122070312 677.563476562 c 1
 308.122070312 685.563476562 261.40662994 660.174804688 261.40662994 652.174804688 c 1
 261.40662994 660.174804688 268.370682351 715.588867188 268.370682351 707.588867188 c 1
EndSplineSet
EndChar

StartChar: at
Encoding: 64 64 68
Width: 890
GlyphClass: 1
Flags: W
LayerCount: 2
Back
SplineSet
514.700195312 824 m 0
 652.700195312 824 765.533203125 783.333007812 853.200195312 702 c 0
 940.866210938 620.666992188 984.700195312 516 984.700195312 388 c 0
 984.700195312 346.666992188 977.366210938 302.833007812 962.700195312 256.5 c 0
 948.033203125 210.166992188 930.366210938 174.333007812 909.700195312 149 c 1
 772.700195312 116 l 1
 615.700195312 207 l 1
 574.366210938 146.333007812 518.033203125 116 446.700195312 116 c 0
 390.700195312 116 343.700195312 136.166992188 305.700195312 176.5 c 0
 267.700195312 216.833007812 248.700195312 266.333007812 248.700195312 325 c 0
 248.700195312 400.333007812 269.200195312 461.166992188 310.200195312 507.5 c 0
 351.200195312 553.833007812 405.033203125 577 471.700195312 577 c 0
 519.700195312 577 558.033203125 554.333007812 586.700195312 509 c 1
 625.700195312 569 l 1
 732.700195312 569 l 1
 693.700195312 303 l 1
 799.700195312 250 l 1
 809.033203125 262.666992188 816.866210938 281 823.200195312 305 c 0
 829.533203125 329 832.700195312 352.666992188 832.700195312 376 c 0
 832.700195312 475.333007812 804.533203125 552 748.200195312 606 c 0
 691.866210938 660 611.366210938 687 506.700195312 687 c 0
 414.700195312 687 336.866210938 654.5 273.200195312 589.5 c 0
 209.533203125 524.5 177.700195312 445.333007812 177.700195312 352 c 0
 177.700195312 245.333007812 206.366210938 162.166992188 263.700195312 102.5 c 0
 321.033203125 42.8330078125 401.033203125 13 503.700195312 13 c 0
 549.033203125 13 594.866210938 17.1669921875 641.200195312 25.5 c 0
 687.533203125 33.8330078125 720.366210938 41.3330078125 739.700195312 48 c 1
 739.700195312 -92 l 1
 671.033203125 -110.666992188 591.033203125 -120 499.700195312 -120 c 0
 348.366210938 -120 231.700195312 -79.5 149.700195312 1.5 c 0
 67.7001953125 82.5 26.7001953125 197.333007812 26.7001953125 346 c 0
 26.7001953125 487.333007812 72.033203125 602.333007812 162.700195312 691 c 0
 253.366210938 779.666992188 370.700195312 824 514.700195312 824 c 0
493.700195312 447 m 0
 467.700195312 447 447.033203125 436.166992188 431.700195312 414.5 c 0
 416.366210938 392.833007812 408.700195312 364.666992188 408.700195312 330 c 0
 408.700195312 276.666992188 431.700195312 250 477.700195312 250 c 0
 496.366210938 250 512.700195312 258 526.700195312 274 c 0
 540.700195312 290 549.700195312 311 553.700195312 337 c 2
 564.700195312 412 l 1
 545.366210938 435.333007812 521.700195312 447 493.700195312 447 c 0
EndSplineSet
Fore
SplineSet
844 392 m 0
 844 641.4375 669.152560764 800 444 800 c 0
 258.248046875 800 46 663.35546875 46 364.217773438 c 0
 46 44.208984375 243.48828125 -96 452 -96 c 0
 517.9140625 -96 598.304505488 -82.3564453125 643.584957437 -72.4970703125 c 1
 643.584957437 -80.4970703125 643.584957437 -27.150390625 643.584957437 -19.150390625 c 1
 609.144086722 -29.791015625 527.999579973 -43 456 -43 c 0
 252.646484375 -43 106 118.2265625 106 364.248046875 c 0
 106 621.3125 275.478515625 747 444 747 c 0
 622.28874748 747 784.04015457 629.901367188 784.04015457 396 c 0
 784.04015457 324.338867188 763.693040855 258.6328125 724.21671287 199.389648438 c 2
 724.21671287 207.389648438 720.20859935 201.374023438 720.20859935 193.374023438 c 1
 720.20859935 201.374023438 597.719950577 277.810546875 597.719950577 269.810546875 c 1
 597.719950577 277.810546875 636.815167171 578 636.815167171 570 c 1
 593.236828657 570 l 1
 593.236828657 578 568.443415379 506.267578125 568.443415379 498.267578125 c 1
 568.443415379 506.267578125 560.542258205 522.301757812 560.542258205 514.301757812 c 2
 540.40687304 555.165039062 493.326171875 580 449 580 c 0
 352.788085938 580 246 485.1484375 246 328 c 0
 246 223.219726562 306.009765625 144 399 144 c 0
 455.072265625 144 502.584960938 171.170898438 541.308100218 226.6640625 c 2
 541.308100218 234.6640625 545.268344674 240.50390625 545.268344674 232.50390625 c 1
 545.268344674 240.50390625 695.118766101 150.251953125 695.118766101 142.251953125 c 1
 695.118766101 150.251953125 754.215886817 157.627929688 754.215886817 149.627929688 c 1
 813.33984375 209.732421875 844 289.735351562 844 392 c 0
308 325 m 0
 308 418.553710938 351.444335938 518 445 518 c 0
 472.055664062 518 537.890985523 510.424804688 566.462372592 439.197265625 c 1
 557.757567484 357.114257812 l 2
 549.758831065 280.173828125 524.877044131 236.674804688 493.225585938 213.477539062 c 0
 467.84375 194.987304688 439.916015625 190 417 190 c 0
 316.7421875 190 308 294.786132812 308 325 c 0
EndSplineSet
EndChar

StartChar: atilde
Encoding: 227 227 69
Width: 505
GlyphClass: 1
Flags: HW
LayerCount: 2
Back
SplineSet
57 628 m 1
 63.6666666667 667.333333333 78.5 699.333333333 101.5 724 c 0
 124.5 748.666666667 155.666666667 761 195 761 c 0
 213 761 229.833333333 757.5 245.5 750.5 c 0
 261.166666667 743.5 273.5 735.833333333 282.5 727.5 c 0
 291.5 719.166666667 302 711.5 314 704.5 c 0
 326 697.5 337.333333333 694 348 694 c 0
 376 694 392.333333333 713.666666667 397 753 c 1
 495 737 l 1
 486.333333333 690.333333333 470.5 655.833333333 447.5 633.5 c 0
 424.5 611.166666667 392.666666667 600 352 600 c 0
 330 600 310.333333333 605.666666667 293 617 c 0
 275.666666667 628.333333333 260.166666667 639.5 246.5 650.5 c 0
 232.833333333 661.5 219.333333333 667 206 667 c 0
 175.333333333 667 157.333333333 647.333333333 152 608 c 1
 57 628 l 1
254 528 m 4
 337.333333333 528 400.5 509.333333333 443.5 472 c 0
 486.5 434.666666667 508 379.666666667 508 307 c 2
 508 150 l 2
 508 133.333333333 511.5 121.166666667 518.5 113.5 c 0
 525.5 105.833333333 536.666666667 102 552 102 c 2
 565 102 l 1
 565 0 l 1
 522.333333333 -5.33333333333 488.333333333 -8 463 -8 c 0
 397 -8 351.333333333 17 326 67 c 1
 295.333333333 17 249 -8 187 -8 c 0
 135.666666667 -8 95.6666666667 6.33333333333 67 35 c 0
 38.3333333333 63.6666666667 24 104 24 156 c 0
 24 205.333333333 44.3333333333 244.333333333 85 273 c 0
 125.666666667 301.666666667 181 316 251 316 c 2
 326 316 l 1
 326 333 l 2
 326 381.666666667 295.333333333 406 234 406 c 0
 211.333333333 406 187.666666667 402.5 163 395.5 c 0
 138.333333333 388.5 120 380.333333333 108 371 c 1
 53 473 l 1
 109 509.666666667 176 528 254 528 c 4
326 205 m 5
 262 205 l 2
 226 205 208 190.666666667 208 162 c 0
 208 132 224.666666667 117 258 117 c 0
 288.666666667 117 311.333333333 129.666666667 326 155 c 1
 326 205 l 5
EndSplineSet
Fore
Refer: 154 771 N 1 0 0 1 259 -158 2
Refer: 56 97 N 1 0 0 1 0 0 3
EndChar

StartChar: b
Encoding: 98 98 70
Width: 568
GlyphClass: 1
Flags: W
LayerCount: 2
Back
SplineSet
60 716 m 1
 248 716 l 1
 248 468 l 1
 279.333007812 508 328.333007812 528 395 528 c 0
 457.666992188 528 511.5 505 556.5 459 c 0
 601.5 413 624 347.333007812 624 262 c 0
 624 179.333007812 600.833007812 113.666992188 554.5 65 c 0
 508.166992188 16.3330078125 452 -8 386 -8 c 0
 321.333007812 -8 272.333007812 15.3330078125 239 62 c 1
 210 0 l 1
 60 0 l 1
 60 716 l 1
336 388 m 0
 297.333007812 388 268 368.666992188 248 330 c 1
 248 182 l 1
 270 146 300.666992188 128 340 128 c 0
 366 128 387.833007812 138.666992188 405.5 160 c 0
 423.166992188 181.333007812 432 213.333007812 432 256 c 0
 432 344 400 388 336 388 c 0
EndSplineSet
Fore
SplineSet
307.347826087 -8 m 0
 352.925101902 -8 512 -0.708984375 512 269.27734375 c 0
 512 350.211914062 495.671875 528 307.347826087 528 c 0
 244.51953125 528 191.427734375 498.537109375 156.833984375 441.841796875 c 2
 156.833984375 449.841796875 142 425.530273438 142 417.530273438 c 1
 142 425.530273438 142 724 142 716 c 1
 80 716 l 1
 80 724.180664062 80 -7.8154296875 80 0.1806640625 c 1
 126.120117188 0.1806640625 l 1
 126.120117188 -7.8154296875 143.346679688 111.077148438 143.346679688 116.446289062 c 1
 143.346679688 111.077148438 154.8046875 91.7421875 154.8046875 97.5380859375 c 2
 197.8671875 26.4814453125 250.124787704 -8 307.347826087 -8 c 0
300.043478261 472 m 0
 413.760190217 472 448 385.213867188 448 267 c 0
 448 188.102539062 433.995117188 48 300.043478261 48 c 0
 251.081521739 48 182.786132812 75.0146484375 142 148.938476562 c 1
 142 364.22265625 l 1
 142.360351562 365.37890625 l 2
 162.607421875 430.381835938 228.265625 472 300.043478261 472 c 0
EndSplineSet
EndChar

StartChar: backslash
Encoding: 92 92 71
Width: 342
GlyphClass: 1
Flags: W
LayerCount: 2
Back
SplineSet
473.405273438 -35 m 1
 341.405273438 -35 l 1
 0.4052734375 768 l 1
 132.405273438 768 l 1
 473.405273438 -35 l 1
EndSplineSet
Fore
SplineSet
357.799804688 -34 m 1
 357.799804688 -42.162109375 37.6083984375 780.162109375 37.6083984375 772 c 1
 -24 772 l 1
 -24 780.162109375 296.19140625 -42.162109375 296.19140625 -34 c 1
 357.799804688 -34 l 1
EndSplineSet
EndChar

StartChar: bar
Encoding: 124 124 72
Width: 219
GlyphClass: 1
Flags: W
LayerCount: 2
Back
SplineSet
81.099609375 819 m 1
 209.099609375 819 l 1
 209.099609375 -66 l 1
 81.099609375 -66 l 1
 81.099609375 819 l 1
EndSplineSet
Fore
SplineSet
138 819 m 1
 74 819 l 1
 74 827.147460938 74 -74.1474609375 74 -66 c 1
 138 -66 l 1
 138 -74.1474609375 138 827.147460938 138 819 c 1
EndSplineSet
EndChar

StartChar: braceleft
Encoding: 123 123 73
Width: 282
GlyphClass: 1
Flags: W
LayerCount: 2
Back
SplineSet
340.200195312 819 m 1
 340.200195312 675 l 1
 310.200195312 675 288.700195312 669.666992188 275.700195312 659 c 0
 262.700195312 648.333007812 256.200195312 630.666992188 256.200195312 606 c 2
 256.200195312 514 l 2
 256.200195312 440 227.533203125 394.333007812 170.200195312 377 c 1
 227.533203125 352.333007812 256.200195312 306.666992188 256.200195312 240 c 2
 256.200195312 149 l 2
 256.200195312 124.333007812 262.866210938 106.333007812 276.200195312 95 c 0
 289.533203125 83.6669921875 310.866210938 78 340.200195312 78 c 1
 340.200195312 -66 l 1
 264.200195312 -66 202.533203125 -47.8330078125 155.200195312 -11.5 c 0
 107.866210938 24.8330078125 84.2001953125 73 84.2001953125 133 c 2
 84.2001953125 242 l 2
 84.2001953125 264 79.2001953125 278.666992188 69.2001953125 286 c 0
 59.2001953125 293.333007812 42.8662109375 297 20.2001953125 297 c 1
 20.2001953125 457 l 1
 62.8662109375 457 84.2001953125 481.333007812 84.2001953125 530 c 2
 84.2001953125 622 l 2
 84.2001953125 685.333007812 107.533203125 734 154.200195312 768 c 0
 200.866210938 802 262.866210938 819 340.200195312 819 c 1
EndSplineSet
Fore
SplineSet
126 507.99609375 m 1
 126 513.124023438 126 512.094726562 126 506.989257812 c 2
 126 454.189453125 85.12109375 409.46484375 36 405.033203125 c 1
 36 407.776367188 36 354.68359375 36 353.141601562 c 1
 81.1904296875 348.9609375 126 310.079101562 126 260.407226562 c 2
 126 259.799804688 126 258.88671875 126 259.513671875 c 1
 126 258.88671875 94.001953125 106.055664062 94.001953125 110.142578125 c 1
 94.486328125 19.48046875 169.482421875 -61.7119140625 270 -66.765625 c 1
 270 -74.765625 270 -23.791015625 270 -15.791015625 c 1
 198.221679688 -11.90625 158 44.341796875 158 111.110351562 c 2
 158 106.098632812 158 107.109375 158 112.096679688 c 1
 158 107.109375 189.995117188 245.805664062 189.995117188 247.393554688 c 1
 189.655273438 280.911132812 171.692382812 347.688476562 118.946289062 370.0625 c 2
 118.946289062 371.557617188 104.302734375 377.92578125 104.302734375 376.274414062 c 1
 104.302734375 377.92578125 117.875 386.533203125 117.875 384.670898438 c 2
 172.469726562 418.444335938 189.7109375 473.10546875 189.99609375 515.977539062 c 1
 189.99609375 521.138671875 158 645.129882812 158 636.928710938 c 1
 158 644.928710938 158 646 158 638 c 2
 158 699.274414062 202.34765625 759.329101562 270 763.741210938 c 1
 270 771.741210938 270 821.833007812 270 813.833007812 c 1
 170.5546875 809.68359375 94.5546875 728.59765625 94.0029296875 639.971679688 c 1
 94.0029296875 648.15625 126 513.124023438 126 507.99609375 c 1
EndSplineSet
EndChar

StartChar: braceright
Encoding: 125 125 74
Width: 282
GlyphClass: 1
Flags: W
LayerCount: 2
Back
SplineSet
20.2001953125 819 m 5
 98.2001953125 819 160.700195312 802 207.700195312 768 c 0
 254.700195312 734 278.200195312 685.333007812 278.200195312 622 c 2
 278.200195312 530 l 2
 278.200195312 481.333007812 298.866210938 457 340.200195312 457 c 1
 340.200195312 297 l 1
 317.533203125 297 301.533203125 293.333007812 292.200195312 286 c 0
 282.866210938 278.666992188 278.200195312 264 278.200195312 242 c 2
 278.200195312 133 l 2
 278.200195312 73 254.200195312 24.8330078125 206.200195312 -11.5 c 0
 158.200195312 -47.8330078125 96.2001953125 -66 20.2001953125 -66 c 1
 20.2001953125 78 l 1
 50.2001953125 78 72.033203125 83.6669921875 85.7001953125 95 c 0
 99.3662109375 106.333007812 106.200195312 124.333007812 106.200195312 149 c 2
 106.200195312 240 l 2
 106.200195312 306.666992188 134.866210938 352.333007812 192.200195312 377 c 1
 134.866210938 394.333007812 106.200195312 440 106.200195312 514 c 2
 106.200195312 606 l 2
 106.200195312 630.666992188 99.3662109375 648.333007812 85.7001953125 659 c 0
 72.033203125 669.666992188 50.2001953125 675 20.2001953125 675 c 1
 20.2001953125 819 l 5
EndSplineSet
Fore
SplineSet
36 763.741210938 m 1
 103.65234375 759.329101562 148 699.274414062 148 638 c 2
 148 646 148 644.928710938 148 636.928710938 c 1
 148 645.129882812 116.00390625 521.138671875 116.00390625 515.977539062 c 1
 116.2890625 473.10546875 133.530273438 418.444335938 188.125 384.670898438 c 2
 188.125 386.533203125 201.697265625 377.92578125 201.697265625 376.274414062 c 1
 201.697265625 377.92578125 187.053710938 371.557617188 187.053710938 370.0625 c 2
 134.307617188 347.688476562 116.344726562 280.911132812 116.004882812 247.393554688 c 1
 116.004882812 245.805664062 148 107.109375 148 112.096679688 c 1
 148 107.109375 148 106.098632812 148 111.110351562 c 2
 148 44.341796875 107.778320312 -11.90625 36 -15.791015625 c 1
 36 -23.791015625 36 -74.765625 36 -66.765625 c 1
 136.517578125 -61.7119140625 211.513671875 19.48046875 211.998046875 110.142578125 c 1
 211.998046875 106.055664062 180 258.88671875 180 259.513671875 c 1
 180 258.88671875 180 259.799804688 180 260.407226562 c 2
 180 310.079101562 224.809570312 348.9609375 270 353.141601562 c 1
 270 354.68359375 270 407.776367188 270 405.033203125 c 1
 220.87890625 409.46484375 180 454.189453125 180 506.989257812 c 2
 180 512.094726562 180 513.124023438 180 507.99609375 c 1
 180 513.124023438 211.997070312 648.15625 211.997070312 639.971679688 c 1
 211.4453125 728.59765625 135.4453125 809.68359375 36 813.833007812 c 1
 36 821.833007812 36 771.741210938 36 763.741210938 c 1
EndSplineSet
EndChar

StartChar: bracketleft
Encoding: 91 91 75
Width: 310
GlyphClass: 1
Flags: W
LayerCount: 2
Back
SplineSet
64.599609375 819 m 1
 354.599609375 819 l 1
 354.599609375 675 l 1
 224.599609375 675 l 1
 224.599609375 80 l 1
 354.599609375 80 l 1
 354.599609375 -64 l 1
 64.599609375 -64 l 1
 64.599609375 819 l 1
EndSplineSet
Fore
SplineSet
270 768 m 1
 270 776 270 827 270 819 c 1
 64 819 l 1
 64 827.147460938 64 -72.1474609375 64 -64 c 1
 270 -64 l 1
 270 -72 270 -24 270 -16 c 1
 128 -16 l 1
 128 -24.1669921875 128 776.166992188 128 768 c 1
 270 768 l 1
EndSplineSet
EndChar

StartChar: bracketright
Encoding: 93 93 76
Width: 310
GlyphClass: 1
Flags: W
LayerCount: 2
Back
SplineSet
33.400390625 819 m 1
 323.400390625 819 l 1
 323.400390625 -64 l 1
 33.400390625 -64 l 1
 33.400390625 80 l 1
 163.400390625 80 l 1
 163.400390625 675 l 1
 33.400390625 675 l 1
 33.400390625 819 l 1
EndSplineSet
Fore
SplineSet
246 -64 m 1
 246 -72.1474609375 246 827.147460938 246 819 c 1
 40 819 l 1
 40 827 40 776 40 768 c 1
 184 768 l 1
 184 776.166992188 184 -24.1669921875 184 -16 c 1
 40 -16 l 1
 40 -24 40 -72 40 -64 c 1
 246 -64 l 1
EndSplineSet
EndChar

StartChar: c
Encoding: 99 99 77
Width: 466
GlyphClass: 1
Flags: W
LayerCount: 2
Back
SplineSet
316.400390625 528 m 0
 368.400390625 528 411.06640625 522.5 444.400390625 511.5 c 0
 477.733398438 500.5 510.400390625 483.333007812 542.400390625 460 c 1
 469.400390625 350 l 1
 432.733398438 378 390.06640625 392 341.400390625 392 c 0
 302.733398438 392 273.233398438 379.666992188 252.900390625 355 c 0
 232.56640625 330.333007812 222.400390625 296.666992188 222.400390625 254 c 0
 222.400390625 173.333007812 261.733398438 133 340.400390625 133 c 0
 394.400390625 133 439.06640625 150 474.400390625 184 c 1
 554.400390625 76 l 1
 493.733398438 20 414.06640625 -8 315.400390625 -8 c 0
 228.06640625 -8 159.400390625 15.3330078125 109.400390625 62 c 0
 59.400390625 108.666992188 34.400390625 174.333007812 34.400390625 259 c 0
 34.400390625 342.333007812 59.56640625 408 109.900390625 456 c 0
 160.233398438 504 229.06640625 528 316.400390625 528 c 0
EndSplineSet
Fore
SplineSet
268.221914783 41.4765625 m 0
 196.791015625 41.4765625 112 82.849609375 112 260 c 0
 112 332.913085938 124.559570312 478.5234375 269.931685607 478.5234375 c 0
 322.818359375 478.5234375 360.990234375 463.203125 409.525390625 419.7578125 c 1
 409.525390625 424.672851562 435.328125 464.620117188 435.328125 458.51171875 c 1
 374.168945312 511.633789062 331.27734375 528 266.512143958 528 c 0
 192.600585938 528 132.524414062 498.452148438 94.732421875 443.401367188 c 0
 64.3857421875 399.196289062 48 337.6328125 48 260 c 0
 48 91.021484375 131.942382812 -8 264.802373134 -8 c 0
 333.87890625 -8 389.286132812 13.408203125 439.538085938 63.0703125 c 1
 439.538085938 57.01171875 413.0390625 96.8984375 413.0390625 101.766601562 c 1
 370.1328125 57.4052734375 327.860351562 41.4765625 268.221914783 41.4765625 c 0
EndSplineSet
EndChar

StartChar: ccedilla
Encoding: 231 231 78
Width: 450
GlyphClass: 1
Flags: HW
LayerCount: 2
Back
SplineSet
207.120117188 -224 m 0
 182.453125 -224 161.120117188 -221 143.120117188 -215 c 1
 156.120117188 -134 l 1
 203.120117188 -134 l 2
 221.787109375 -134 236.287109375 -128.5 246.620117188 -117.5 c 0
 256.953125 -106.5 262.120117188 -91.6669921875 262.120117188 -73 c 2
 262.120117188 0 l 1
 370.120117188 0 l 1
 370.120117188 -64 l 2
 370.120117188 -114.666992188 355.787109375 -154 327.120117188 -182 c 0
 298.453125 -210 258.453125 -224 207.120117188 -224 c 0
316.120117188 528 m 0
 368.120117188 528 410.787109375 522.5 444.120117188 511.5 c 0
 477.453125 500.5 510.120117188 483.333007812 542.120117188 460 c 1
 469.120117188 350 l 1
 432.453125 378 389.787109375 392 341.120117188 392 c 0
 302.453125 392 272.953125 379.666992188 252.620117188 355 c 0
 232.287109375 330.333007812 222.120117188 296.666992188 222.120117188 254 c 0
 222.120117188 173.333007812 261.453125 133 340.120117188 133 c 0
 394.120117188 133 438.787109375 150 474.120117188 184 c 1
 554.120117188 76 l 1
 493.453125 20 413.787109375 -8 315.120117188 -8 c 0
 227.787109375 -8 159.120117188 15.3330078125 109.120117188 62 c 0
 59.1201171875 108.666992188 34.1201171875 174.333007812 34.1201171875 259 c 0
 34.1201171875 342.333007812 59.287109375 408 109.620117188 456 c 0
 159.953125 504 228.787109375 528 316.120117188 528 c 0
EndSplineSet
Fore
Refer: 167 807 N 1 0 0 1 257 0 2
Refer: 77 99 N 1 0 0 1 -8 0 2
EndChar

StartChar: cent
Encoding: 162 162 79
Width: 434
GlyphClass: 1
Flags: W
LayerCount: 2
Back
SplineSet
221.51953125 618 m 5
 333.51953125 618 l 1
 333.51953125 -94 l 1
 221.51953125 -94 l 1
 221.51953125 618 l 5
284.51953125 423 m 0
 201.853515625 423 160.51953125 366.666992188 160.51953125 254 c 0
 160.51953125 148.666992188 201.853515625 96 284.51953125 96 c 0
 311.186523438 96 332.853515625 101.5 349.51953125 112.5 c 0
 366.186523438 123.5 380.51953125 143 392.51953125 171 c 1
 490.51953125 118 l 1
 470.51953125 76 441.51953125 44.5 403.51953125 23.5 c 0
 365.51953125 2.5 324.51953125 -8 280.51953125 -8 c 0
 203.186523438 -8 142.51953125 15.3330078125 98.51953125 62 c 0
 54.51953125 108.666992188 32.51953125 174.333007812 32.51953125 259 c 0
 32.51953125 344.333007812 55.51953125 410.333007812 101.51953125 457 c 0
 147.51953125 503.666992188 210.51953125 527 290.51953125 527 c 0
 331.853515625 527 370.186523438 516.5 405.51953125 495.5 c 0
 440.853515625 474.5 467.853515625 444.333007812 486.51953125 405 c 1
 396.51953125 353 l 1
 373.186523438 399.666992188 335.853515625 423 284.51953125 423 c 0
EndSplineSet
Fore
SplineSet
289 618 m 1
 227 618 l 1
 227 626.18359375 227 -102.18359375 227 -94 c 1
 289 -94 l 1
 289 -102.18359375 289 626.18359375 289 618 c 1
EndSplineSet
Refer: 77 99 N 1 0 0 1 0 0 2
EndChar

StartChar: colon
Encoding: 58 58 80
Width: 165
GlyphClass: 1
Flags: W
LayerCount: 2
Back
SplineSet
97.7998046875 454 m 4
 97.7998046875 474 104.966796875 491.166992188 119.299804688 505.5 c 0
 133.633789062 519.833007812 150.799804688 527 170.799804688 527 c 0
 190.799804688 527 207.966796875 519.833007812 222.299804688 505.5 c 0
 236.633789062 491.166992188 243.799804688 474 243.799804688 454 c 0
 243.799804688 434 236.633789062 416.833007812 222.299804688 402.5 c 0
 207.966796875 388.166992188 190.799804688 381 170.799804688 381 c 0
 150.799804688 381 133.633789062 388.166992188 119.299804688 402.5 c 0
 104.966796875 416.833007812 97.7998046875 434 97.7998046875 454 c 4
97.7998046875 65 m 0
 97.7998046875 85 104.966796875 102.166992188 119.299804688 116.5 c 0
 133.633789062 130.833007812 150.799804688 138 170.799804688 138 c 0
 190.799804688 138 207.966796875 130.833007812 222.299804688 116.5 c 0
 236.633789062 102.166992188 243.799804688 85 243.799804688 65 c 0
 243.799804688 45 236.633789062 27.8330078125 222.299804688 13.5 c 0
 207.966796875 -0.8330078125 190.799804688 -8 170.799804688 -8 c 0
 150.799804688 -8 133.633789062 -0.8330078125 119.299804688 13.5 c 0
 104.966796875 27.8330078125 97.7998046875 45 97.7998046875 65 c 0
EndSplineSet
Fore
SplineSet
138 473 m 0
 138 504.637695312 114.791015625 528 82 528 c 0
 50.42578125 528 28 504.869140625 28 473 c 0
 28 441.130859375 50.42578125 418 82 418 c 0
 114.791015625 418 138 441.362304688 138 473 c 0
138 46 m 0
 138 77.64453125 113.64453125 102 82 102 c 0
 50.4833984375 102 28 78.9638671875 28 46 c 0
 28 13.1611328125 49.1611328125 -8 82 -8 c 0
 114.849609375 -8 138 15.4599609375 138 46 c 0
EndSplineSet
EndChar

StartChar: comma
Encoding: 44 44 81
Width: 149
GlyphClass: 1
Flags: W
LayerCount: 2
Back
SplineSet
210.301757812 78 m 1
 122.301757812 -144 l 1
 26.3017578125 -144 l 1
 96.3017578125 78 l 1
 210.301757812 78 l 1
EndSplineSet
Fore
SplineSet
71.478515625 -149 m 1
 71.478515625 -157 116.094726562 54 116.094726562 62 c 1
 38 62 l 1
 38 54 38.9296875 -157 38.9296875 -149 c 1
 71.478515625 -149 l 1
EndSplineSet
EndChar

StartChar: currency
Encoding: 164 164 82
Width: 622
GlyphClass: 1
Flags: W
LayerCount: 2
Back
SplineSet
501.56640625 179 m 5
 620.56640625 60 l 5
 554.56640625 -7 l 5
 435.56640625 112 l 5
 501.56640625 179 l 5
223.56640625 112 m 5
 104.56640625 -7 l 5
 38.56640625 60 l 5
 157.56640625 178 l 5
 223.56640625 112 l 5
157.56640625 342 m 5
 38.56640625 461 l 5
 104.56640625 528 l 5
 223.56640625 409 l 5
 157.56640625 342 l 5
434.56640625 408 m 5
 554.56640625 528 l 5
 620.56640625 461 l 5
 500.56640625 342 l 5
 434.56640625 408 l 5
205.56640625 259 m 4
 205.56640625 223.666992188 217.56640625 193.333007812 241.56640625 168 c 4
 265.56640625 142.666992188 294.900390625 130 329.56640625 130 c 4
 364.233398438 130 393.56640625 142.833007812 417.56640625 168.5 c 4
 441.56640625 194.166992188 453.56640625 224.666992188 453.56640625 260 c 4
 453.56640625 295.333007812 441.56640625 325.666992188 417.56640625 351 c 4
 393.56640625 376.333007812 364.233398438 389 329.56640625 389 c 4
 294.900390625 389 265.56640625 376.166992188 241.56640625 350.5 c 4
 217.56640625 324.833007812 205.56640625 294.333007812 205.56640625 259 c 4
97.56640625 260 m 4
 97.56640625 325.333007812 120.233398438 381.166992188 165.56640625 427.5 c 4
 210.900390625 473.833007812 265.56640625 497 329.56640625 497 c 4
 393.56640625 497 448.233398438 473.833007812 493.56640625 427.5 c 4
 538.900390625 381.166992188 561.56640625 325.333007812 561.56640625 260 c 4
 561.56640625 194.666992188 538.900390625 138.666992188 493.56640625 92 c 4
 448.233398438 45.3330078125 393.56640625 22 329.56640625 22 c 4
 265.56640625 22 210.900390625 45.3330078125 165.56640625 92 c 4
 120.233398438 138.666992188 97.56640625 194.666992188 97.56640625 260 c 4
EndSplineSet
Fore
SplineSet
528.640625 9.2880859375 m 1
 575.353515625 56 l 1
 467.712890625 163.639648438 l 1
 422.02312248 116.072265625 l 1
 528.640625 9.2880859375 l 1
40 55.9765625 m 1
 86.6884765625 9.2880859375 l 1
 194.329101562 116.0234375 l 1
 147.640625 162.711914062 l 1
 40 55.9765625 l 1
86.6884765625 511.711914062 m 1
 40.9765625 466 l 1
 148.615234375 358.361328125 l 1
 194.37890625 404.926757812 l 1
 86.6884765625 511.711914062 l 1
575.329101562 465.0234375 m 1
 528.640625 511.711914062 l 1
 421.133316532 403.9765625 l 1
 466.688476562 357.288085938 l 1
 575.329101562 465.0234375 l 1
147.665039062 259 m 0
 147.665039062 354.778320312 213.400170111 433 308.561901462 433 c 0
 403.723632812 433 467.665039062 354.778320312 467.665039062 259 c 0
 467.665039062 163.17578125 403.663337954 86 308.561901462 86 c 0
 212.515845514 86 147.665039062 163.221679688 147.665039062 259 c 0
91.6650390625 260 m 0
 91.6650390625 132.215820312 191.241210938 30 308.561901462 30 c 0
 424.958385837 30 523.665039062 132.215820312 523.665039062 260 c 0
 523.665039062 387.751953125 425.000409526 489 308.561901462 489 c 0
 191.1953125 489 91.6650390625 387.751953125 91.6650390625 260 c 0
EndSplineSet
EndChar

StartChar: d
Encoding: 100 100 83
Width: 558
GlyphClass: 1
Flags: W
LayerCount: 2
Back
SplineSet
402.400390625 716 m 1
 590.400390625 716 l 1
 590.400390625 0 l 1
 440.400390625 0 l 1
 412.400390625 60 l 1
 374.400390625 14.6669921875 325.06640625 -8 264.400390625 -8 c 0
 198.400390625 -8 142.233398438 16.3330078125 95.900390625 65 c 0
 49.56640625 113.666992188 26.400390625 179.333007812 26.400390625 262 c 0
 26.400390625 347.333007812 48.900390625 413 93.900390625 459 c 0
 138.900390625 505 192.733398438 528 255.400390625 528 c 0
 322.06640625 528 371.06640625 508 402.400390625 468 c 1
 402.400390625 716 l 1
314.400390625 388 m 4
 286.400390625 388 263.400390625 378.166992188 245.400390625 358.5 c 0
 227.400390625 338.833007812 218.400390625 307.666992188 218.400390625 265 c 0
 218.400390625 217.666992188 227.06640625 183 244.400390625 161 c 0
 261.733398438 139 283.733398438 128 310.400390625 128 c 0
 352.400390625 128 383.06640625 144 402.400390625 176 c 1
 402.400390625 336 l 1
 384.400390625 370.666992188 355.06640625 388 314.400390625 388 c 4
EndSplineSet
Fore
SplineSet
252.73046875 528 m 0
 133.459960938 528 48 460 48 270.307617188 c 0
 48 37.044921875 157.145507812 -8 252.73046875 -8 c 0
 307.123429008 -8 356.156717052 26.513671875 403.467773438 98.9541015625 c 2
 403.467773438 93.166015625 415.127929688 110.37109375 415.127929688 115.784179688 c 1
 415.127929688 110.37109375 430.958984375 -7.8173828125 430.958984375 0.1787109375 c 1
 478 0.1787109375 l 1
 478 -7.8173828125 478 732.178710938 478 724 c 1
 414 724 l 1
 414 732 414 423.579101562 414 415.579101562 c 1
 399.314453125 437.607421875 399.314453125 437.607421875 399.260742188 437.6875 c 0
 394.837890625 444.328125 342.827530571 528 252.73046875 528 c 0
414 146.611328125 m 1
 399.600585938 124.653320312 351.981148098 48 269.165251359 48 c 0
 151.146484375 48 114 147.1171875 114 267 c 0
 114 317.712890625 114 472 269.165251359 472 c 0
 353.15455163 472 392.03125 410.5859375 414 367.940429688 c 1
 414 146.611328125 l 1
EndSplineSet
EndChar

StartChar: dollar
Encoding: 36 36 84
Width: 562
GlyphClass: 1
Flags: HW
LayerCount: 2
Back
SplineSet
262.400390625 863 m 5
 375.400390625 863 l 1
 375.400390625 -139 l 1
 262.400390625 -139 l 1
 262.400390625 863 l 5
326.400390625 716 m 0
 385.06640625 716 436.233398438 708.5 479.900390625 693.5 c 0
 523.56640625 678.5 565.733398438 654 606.400390625 620 c 1
 526.400390625 501 l 1
 471.733398438 541.666992188 405.733398438 562 328.400390625 562 c 0
 256.400390625 562 220.400390625 540 220.400390625 496 c 0
 220.400390625 476.666992188 226.733398438 463.166992188 239.400390625 455.5 c 0
 252.06640625 447.833007812 278.400390625 440.333007812 318.400390625 433 c 2
 379.400390625 422 l 2
 460.06640625 408.666992188 518.900390625 384.666992188 555.900390625 350 c 0
 592.900390625 315.333007812 611.400390625 268 611.400390625 208 c 0
 611.400390625 64 506.400390625 -8 296.400390625 -8 c 0
 245.733398438 -8 192.900390625 0.1669921875 137.900390625 16.5 c 0
 82.900390625 32.8330078125 42.7333984375 52.3330078125 17.400390625 75 c 1
 96.400390625 203 l 1
 152.400390625 160.333007812 221.400390625 139 303.400390625 139 c 0
 383.400390625 139 423.400390625 160 423.400390625 202 c 0
 423.400390625 223.333007812 415.900390625 238.666992188 400.900390625 248 c 0
 385.900390625 257.333007812 356.06640625 265.666992188 311.400390625 273 c 2
 256.400390625 283 l 2
 181.733398438 295 125.56640625 319 87.900390625 355 c 0
 50.2333984375 391 31.400390625 441 31.400390625 505 c 0
 31.400390625 571.666992188 56.56640625 623.5 106.900390625 660.5 c 0
 157.233398438 697.5 230.400390625 716 326.400390625 716 c 0
EndSplineSet
Fore
SplineSet
318.788085938 863 m 1
 270.788085938 863 l 1
 270.788085938 871.129882812 254.788085938 -147.129882812 254.788085938 -139 c 1
 302.788085938 -139 l 1
 302.788085938 -147.129882812 318.788085938 871.129882812 318.788085938 863 c 1
EndSplineSet
Refer: 42 83 N 1 0 0 1 0 0 2
EndChar

StartChar: dotlessi
Encoding: 305 305 85
Width: 297
GlyphClass: 1
Flags: W
AnchorPoint: "AccentCenter" 176 687 basechar 0
LayerCount: 2
Back
SplineSet
1.5 520 m 1
 277.5 520 l 1
 277.5 0 l 1
 85.5 0 l 1
 85.5 374 l 1
 1.5 374 l 1
 1.5 520 l 1
EndSplineSet
Fore
SplineSet
196 8 m 1
 196 512 l 1
 30 512 l 1
 30 463 l 1
 132 463 l 1
 132 8 l 1
 196 8 l 1
EndSplineSet
EndChar

StartChar: e
Encoding: 101 101 86
Width: 503
GlyphClass: 1
Flags: W
AnchorPoint: "AccentCenter" 274 687 basechar 0
LayerCount: 2
Back
SplineSet
310.400390625 399 m 0
 284.400390625 399 263.900390625 391.333007812 248.900390625 376 c 0
 233.900390625 360.666992188 226.400390625 338.666992188 226.400390625 310 c 1
 395.400390625 310 l 1
 395.400390625 315 l 2
 395.400390625 342.333007812 387.733398438 363.166992188 372.400390625 377.5 c 0
 357.06640625 391.833007812 336.400390625 399 310.400390625 399 c 0
314.400390625 528 m 4
 394.400390625 528 457.900390625 507.833007812 504.900390625 467.5 c 0
 551.900390625 427.166992188 575.400390625 366.666992188 575.400390625 286 c 0
 575.400390625 254.666992188 571.733398438 230 564.400390625 212 c 1
 226.400390625 212 l 1
 226.400390625 186.666992188 235.900390625 165.666992188 254.900390625 149 c 0
 273.900390625 132.333007812 303.400390625 124 343.400390625 124 c 0
 376.733398438 124 406.900390625 129.333007812 433.900390625 140 c 0
 460.900390625 150.666992188 481.733398438 161.666992188 496.400390625 173 c 1
 563.400390625 65 l 1
 535.400390625 49.6669921875 512.06640625 37.8330078125 493.400390625 29.5 c 0
 474.733398438 21.1669921875 448.233398438 12.8330078125 413.900390625 4.5 c 0
 379.56640625 -3.8330078125 343.400390625 -8 305.400390625 -8 c 0
 221.400390625 -8 155.233398438 14.8330078125 106.900390625 60.5 c 0
 58.56640625 106.166992188 34.400390625 173 34.400390625 261 c 0
 34.400390625 351 59.2333984375 418 108.900390625 462 c 0
 158.56640625 506 227.06640625 528 314.400390625 528 c 4
EndSplineSet
Fore
SplineSet
454 299.168945312 m 0
 454 441.025390625 377.24609375 528 265.088833176 528 c 0
 160.783203125 528 48 475.581054688 48 261.03125 c 0
 48 89.9296875 130.958007812 -8 265.088833176 -8 c 0
 324.753917163 -8 391.84765625 17.3857421875 452.169921875 66.75390625 c 1
 452.169921875 60.80859375 426.678710938 99.5 426.678710938 104.291015625 c 1
 377.89453125 59.3837890625 330.506779291 41.4765625 271.161063441 41.4765625 c 0
 201.53515625 41.4765625 113.297851562 76.0625 112 235.19140625 c 2
 112 234.427734375 111.932617188 243 111.932617188 243.5078125 c 1
 450.068359375 243.5078125 l 1
 452.385742188 253.806640625 454 272.950195312 454 299.168945312 c 0
112 287 m 1
 112 295 l 2
 112 342.16015625 118.202148438 472 255.546757045 472 c 0
 298.832575941 472 395 455.083984375 395 318 c 2
 395 287 l 1
 112 287 l 1
EndSplineSet
EndChar

StartChar: eacute
Encoding: 233 233 87
Width: 503
GlyphClass: 1
Flags: HW
LayerCount: 2
Back
SplineSet
159.073242188 583 m 1
 122.073242188 662 l 1
 343.073242188 776 l 1
 402.073242188 660 l 1
 159.073242188 583 l 1
308 399 m 0
 282 399 261.5 391.333333333 246.5 376 c 0
 231.5 360.666666667 224 338.666666667 224 310 c 1
 393 310 l 1
 393 315 l 2
 393 342.333333333 385.333333333 363.166666667 370 377.5 c 0
 354.666666667 391.833333333 334 399 308 399 c 0
312 528 m 0
 392 528 455.5 507.833333333 502.5 467.5 c 0
 549.5 427.166666667 573 366.666666667 573 286 c 0
 573 254.666666667 569.333333333 230 562 212 c 1
 224 212 l 1
 224 186.666666667 233.5 165.666666667 252.5 149 c 0
 271.5 132.333333333 301 124 341 124 c 0
 374.333333333 124 404.5 129.333333333 431.5 140 c 0
 458.5 150.666666667 479.333333333 161.666666667 494 173 c 1
 561 65 l 1
 533 49.6666666667 509.666666667 37.8333333333 491 29.5 c 0
 472.333333333 21.1666666667 445.833333333 12.8333333333 411.5 4.5 c 0
 377.166666667 -3.83333333333 341 -8 303 -8 c 0
 219 -8 152.833333333 14.8333333333 104.5 60.5 c 0
 56.1666666667 106.166666667 32 173 32 261 c 0
 32 351 56.8333333333 418 106.5 462 c 0
 156.166666667 506 224.666666667 528 312 528 c 0
EndSplineSet
Fore
Refer: 59 769 N 1 0 0 1 258 -147 2
Refer: 86 101 N 1 0 0 1 0 0 3
EndChar

StartChar: ecircumflex
Encoding: 234 234 88
Width: 503
GlyphClass: 1
Flags: HW
LayerCount: 2
Back
SplineSet
78.0732421875 646 m 25
 233.073242188 776 l 1
 299.073242188 776 l 1
 454.073242188 646 l 1
 397.073242188 575 l 1
 266.073242188 681 l 1
 127.073242188 575 l 1
 78.0732421875 646 l 25
308 399 m 0
 282 399 261.5 391.333333333 246.5 376 c 0
 231.5 360.666666667 224 338.666666667 224 310 c 1
 393 310 l 1
 393 315 l 2
 393 342.333333333 385.333333333 363.166666667 370 377.5 c 0
 354.666666667 391.833333333 334 399 308 399 c 0
312 528 m 0
 392 528 455.5 507.833333333 502.5 467.5 c 0
 549.5 427.166666667 573 366.666666667 573 286 c 0
 573 254.666666667 569.333333333 230 562 212 c 1
 224 212 l 1
 224 186.666666667 233.5 165.666666667 252.5 149 c 0
 271.5 132.333333333 301 124 341 124 c 0
 374.333333333 124 404.5 129.333333333 431.5 140 c 0
 458.5 150.666666667 479.333333333 161.666666667 494 173 c 1
 561 65 l 1
 533 49.6666666667 509.666666667 37.8333333333 491 29.5 c 0
 472.333333333 21.1666666667 445.833333333 12.8333333333 411.5 4.5 c 0
 377.166666667 -3.83333333333 341 -8 303 -8 c 0
 219 -8 152.833333333 14.8333333333 104.5 60.5 c 0
 56.1666666667 106.166666667 32 173 32 261 c 0
 32 351 56.8333333333 418 106.5 462 c 0
 156.166666667 506 224.666666667 528 312 528 c 0
EndSplineSet
Fore
Refer: 163 770 N 1 0 0 1 258 -147 2
Refer: 86 101 N 1 0 0 1 0 0 3
EndChar

StartChar: edieresis
Encoding: 235 235 89
Width: 503
GlyphClass: 1
Flags: HW
LayerCount: 2
Back
SplineSet
310.073242188 683 m 4
 310.073242188 702 316.823242188 718.25 330.323242188 731.75 c 0
 343.823242188 745.25 360.073242188 752 379.073242188 752 c 0
 398.073242188 752 414.323242188 745.25 427.823242188 731.75 c 0
 441.323242188 718.25 448.073242188 702 448.073242188 683 c 0
 448.073242188 664 441.323242188 647.75 427.823242188 634.25 c 0
 414.323242188 620.75 398.073242188 614 379.073242188 614 c 0
 360.073242188 614 343.823242188 620.75 330.323242188 634.25 c 0
 316.823242188 647.75 310.073242188 664 310.073242188 683 c 4
84.0732421875 683 m 0
 84.0732421875 702 90.8232421877 718.25 104.323242188 731.75 c 0
 117.823242188 745.25 134.073242188 752 153.073242188 752 c 0
 172.073242188 752 188.323242188 745.25 201.823242188 731.75 c 0
 215.323242188 718.25 222.073242188 702 222.073242188 683 c 0
 222.073242188 664 215.323242188 647.75 201.823242188 634.25 c 0
 188.323242188 620.75 172.073242188 614 153.073242188 614 c 0
 134.073242188 614 117.823242188 620.75 104.323242188 634.25 c 0
 90.8232421877 647.75 84.0732421875 664 84.0732421875 683 c 0
308 399 m 0
 282 399 261.5 391.333333333 246.5 376 c 0
 231.5 360.666666667 224 338.666666667 224 310 c 1
 393 310 l 1
 393 315 l 2
 393 342.333333333 385.333333333 363.166666667 370 377.5 c 0
 354.666666667 391.833333333 334 399 308 399 c 0
312 528 m 0
 392 528 455.5 507.833333333 502.5 467.5 c 0
 549.5 427.166666667 573 366.666666667 573 286 c 0
 573 254.666666667 569.333333333 230 562 212 c 1
 224 212 l 1
 224 186.666666667 233.5 165.666666667 252.5 149 c 0
 271.5 132.333333333 301 124 341 124 c 0
 374.333333333 124 404.5 129.333333333 431.5 140 c 0
 458.5 150.666666667 479.333333333 161.666666667 494 173 c 1
 561 65 l 1
 533 49.6666666667 509.666666667 37.8333333333 491 29.5 c 0
 472.333333333 21.1666666667 445.833333333 12.8333333333 411.5 4.5 c 0
 377.166666667 -3.83333333333 341 -8 303 -8 c 0
 219 -8 152.833333333 14.8333333333 104.5 60.5 c 0
 56.1666666667 106.166666667 32 173 32 261 c 0
 32 351 56.8333333333 418 106.5 462 c 0
 156.166666667 506 224.666666667 528 312 528 c 0
EndSplineSet
Fore
Refer: 165 776 N 1 0 0 1 258 -167 2
Refer: 86 101 N 1 0 0 1 0 0 3
EndChar

StartChar: egrave
Encoding: 232 232 90
Width: 503
GlyphClass: 1
Flags: HW
LayerCount: 2
Back
SplineSet
365.073242188 583 m 1
 122.073242188 660 l 1
 181.073242188 776 l 1
 402.073242188 662 l 1
 365.073242188 583 l 1
308 399 m 0
 282 399 261.5 391.333333333 246.5 376 c 0
 231.5 360.666666667 224 338.666666667 224 310 c 1
 393 310 l 1
 393 315 l 2
 393 342.333333333 385.333333333 363.166666667 370 377.5 c 0
 354.666666667 391.833333333 334 399 308 399 c 0
312 528 m 0
 392 528 455.5 507.833333333 502.5 467.5 c 0
 549.5 427.166666667 573 366.666666667 573 286 c 0
 573 254.666666667 569.333333333 230 562 212 c 1
 224 212 l 1
 224 186.666666667 233.5 165.666666667 252.5 149 c 0
 271.5 132.333333333 301 124 341 124 c 0
 374.333333333 124 404.5 129.333333333 431.5 140 c 0
 458.5 150.666666667 479.333333333 161.666666667 494 173 c 1
 561 65 l 1
 533 49.6666666667 509.666666667 37.8333333333 491 29.5 c 0
 472.333333333 21.1666666667 445.833333333 12.8333333333 411.5 4.5 c 0
 377.166666667 -3.83333333333 341 -8 303 -8 c 0
 219 -8 152.833333333 14.8333333333 104.5 60.5 c 0
 56.1666666667 106.166666667 32 173 32 261 c 0
 32 351 56.8333333333 418 106.5 462 c 0
 156.166666667 506 224.666666667 528 312 528 c 0
EndSplineSet
Fore
Refer: 101 768 N 1 0 0 1 258 -147 2
Refer: 86 101 N 1 0 0 1 0 0 3
EndChar

StartChar: eight
Encoding: 56 56 91
Width: 518
GlyphClass: 1
Flags: W
LayerCount: 2
Back
SplineSet
298.299804688 716 m 0
 374.966796875 716 436.966796875 699.833007812 484.299804688 667.5 c 0
 531.633789062 635.166992188 555.299804688 587.333007812 555.299804688 524 c 0
 555.299804688 454.666992188 523.299804688 403.666992188 459.299804688 371 c 1
 535.299804688 339 573.299804688 281.333007812 573.299804688 198 c 0
 573.299804688 131.333007812 547.799804688 80.5 496.799804688 45.5 c 0
 445.799804688 10.5 379.633789062 -7 298.299804688 -7 c 0
 217.633789062 -7 152.133789062 10.3330078125 101.799804688 45 c 0
 51.466796875 79.6669921875 26.2998046875 130.666992188 26.2998046875 198 c 0
 26.2998046875 282 63.6337890625 339.666992188 138.299804688 371 c 1
 75.6337890625 403.666992188 44.2998046875 454.666992188 44.2998046875 524 c 0
 44.2998046875 588 67.6337890625 636 114.299804688 668 c 0
 160.966796875 700 222.299804688 716 298.299804688 716 c 0
301.299804688 580 m 0
 275.299804688 580 255.299804688 573.333007812 241.299804688 560 c 0
 227.299804688 546.666992188 220.299804688 528.666992188 220.299804688 506 c 0
 220.299804688 458 246.633789062 434 299.299804688 434 c 0
 325.299804688 434 345.466796875 440.333007812 359.799804688 453 c 0
 374.133789062 465.666992188 381.299804688 483.333007812 381.299804688 506 c 0
 381.299804688 528.666992188 374.299804688 546.666992188 360.299804688 560 c 0
 346.299804688 573.333007812 326.633789062 580 301.299804688 580 c 0
299.299804688 297 m 0
 272.633789062 297 251.799804688 290.166992188 236.799804688 276.5 c 0
 221.799804688 262.833007812 214.299804688 243.666992188 214.299804688 219 c 0
 214.299804688 161.666992188 243.299804688 133 301.299804688 133 c 0
 325.299804688 133 345.299804688 140.166992188 361.299804688 154.5 c 0
 377.299804688 168.833007812 385.299804688 187.666992188 385.299804688 211 c 0
 385.299804688 239 377.466796875 260.333007812 361.799804688 275 c 0
 346.133789062 289.666992188 325.299804688 297 299.299804688 297 c 0
EndSplineSet
Fore
SplineSet
456 527 m 0
 456 644.447265625 379.5 716 261.046687874 716 c 0
 136.5 716 62 646.538085938 62 527 c 0
 62 442.31640625 94.7958984375 397.11328125 159.377929688 385.881835938 c 2
 159.377929688 393.881835938 188.766601562 388.770507812 188.766601562 380.770507812 c 1
 188.766601562 388.770507812 160.75390625 378.487304688 160.75390625 370.487304688 c 2
 85.0009765625 342.6796875 46 299.706054688 46 203 c 0
 46 81.828125 128.21484375 9 261.162554825 9 c 0
 388.737304688 9 472 83.8212890625 472 205 c 0
 472 289.078125 426.004882812 353.223632812 356.986363211 370.2265625 c 2
 356.986363211 378.2265625 323.304342487 387.287109375 323.304342487 379.287109375 c 1
 323.304342487 387.287109375 357.449055015 393.880859375 357.449055015 385.880859375 c 2
 414.844726562 396.047851562 456 452.749023438 456 527 c 0
126 527 m 0
 126 613.98046875 178.091796875 666 261.046687874 666 c 0
 341.34667384 666 392 614.091796875 392 527 c 0
 392 448.189453125 340.699435114 402 261.046687874 402 c 0
 179.823242188 402 126 448.2421875 126 527 c 0
408 197 m 0
 408 120.693359375 374.793945312 49 261.162554825 49 c 0
 207.6875 49 110 64.234375 110 197 c 0
 110 286.51171875 172.338867188 344 261.046687874 344 c 0
 348.294997895 344 408 288.530273438 408 197 c 0
EndSplineSet
EndChar

StartChar: equal
Encoding: 61 61 92
Width: 565
GlyphClass: 1
Flags: W
LayerCount: 2
Back
SplineSet
81.099609375 438 m 1
 501.099609375 438 l 1
 501.099609375 330 l 1
 81.099609375 330 l 1
 81.099609375 438 l 1
81.099609375 228 m 1
 501.099609375 228 l 1
 501.099609375 120 l 1
 81.099609375 120 l 1
 81.099609375 228 l 1
EndSplineSet
Fore
SplineSet
468 355 m 1
 468 410 l 1
 74 410 l 1
 74 355 l 1
 468 355 l 1
468 164 m 1
 468 218 l 1
 74 218 l 1
 74 164 l 1
 468 164 l 1
EndSplineSet
EndChar

StartChar: eth
Encoding: 240 240 93
Width: 568
GlyphClass: 1
Flags: W
LayerCount: 2
Back
SplineSet
129.799804688 656 m 5
 566.799804688 716 l 1
 566.799804688 608 l 1
 129.799804688 541 l 1
 129.799804688 656 l 5
218.799804688 269 m 0
 218.799804688 191.666992188 250.799804688 153 314.799804688 153 c 0
 348.133789062 153 375.133789062 162.833007812 395.799804688 182.5 c 0
 416.466796875 202.166992188 426.799804688 230.666992188 426.799804688 268 c 0
 426.799804688 296 423.466796875 323.666992188 416.799804688 351 c 1
 390.133789062 379 358.466796875 393 321.799804688 393 c 0
 291.133789062 393 266.299804688 381.833007812 247.299804688 359.5 c 0
 228.299804688 337.166992188 218.799804688 307 218.799804688 269 c 0
376.799804688 716 m 1
 408.133789062 696 437.133789062 672.5 463.799804688 645.5 c 0
 490.466796875 618.5 515.966796875 586.5 540.299804688 549.5 c 0
 564.633789062 512.5 583.799804688 469 597.799804688 419 c 0
 611.799804688 369 618.799804688 315.666992188 618.799804688 259 c 0
 618.799804688 177.666992188 592.133789062 113 538.799804688 65 c 0
 485.466796875 17 409.799804688 -7 311.799804688 -7 c 0
 121.799804688 -7 26.7998046875 86.6669921875 26.7998046875 274 c 0
 26.7998046875 349.333007812 46.1337890625 410.5 84.7998046875 457.5 c 0
 123.466796875 504.5 184.466796875 528 267.799804688 528 c 0
 317.799804688 528 361.799804688 508 399.799804688 468 c 1
 369.799804688 520 331.466796875 569 284.799804688 615 c 0
 238.133789062 661 193.466796875 694.666992188 150.799804688 716 c 1
 376.799804688 716 l 1
EndSplineSet
Fore
SplineSet
397.528771034 476.266601562 m 2
 364.817232572 510.74609375 323.47258113 528 274.369215745 528 c 0
 151.932617188 528 56 423.313476562 56 283 c 0
 56 111.16015625 146.904296875 9 288.215369591 9 c 0
 416.120117188 9 512 114.513671875 512 269 c 0
 512 406.103515625 463.69140625 532.06640625 377.036283053 625.467773438 c 2
 377.036283053 633.467773438 369.376727764 642.131835938 369.376727764 634.131835938 c 1
 369.376727764 642.131835938 434 668.483398438 434 660.483398438 c 1
 434 668.483398438 434 713.263671875 434 705.263671875 c 1
 434 713.263671875 339.030573918 673.638671875 339.030573918 665.638671875 c 1
 319.950646034 686.30859375 301.158278245 700.196289062 277.797400841 716 c 1
 209.4453125 716 l 1
 241.01945613 694.60546875 264.23429988 672.627929688 291.787785457 645.198242188 c 1
 291.787785457 653.198242188 201.178710938 615.595703125 201.178710938 607.595703125 c 1
 201.178710938 615.595703125 202.62890625 570.622070312 202.62890625 562.622070312 c 1
 202.62890625 570.622070312 322.371920072 621.396484375 322.371920072 613.396484375 c 1
 340.268254207 593.546875 385.415189303 543.39453125 409.421499399 485.260742188 c 2
 409.421499399 493.260742188 426.362304688 455.13671875 426.362304688 447.13671875 c 1
 426.362304688 455.13671875 397.528771034 484.266601562 397.528771034 476.266601562 c 2
116 267 m 0
 116 390.0390625 183.889648438 471 285.446138822 471 c 0
 349.18351863 471 393.507436899 436.80859375 416.083984375 417.366210938 c 1
 432.452148438 391.03515625 452 346.909179688 452 256 c 0
 452 133.086914062 386.334660457 50 289.138446514 50 c 0
 180.788085938 50 116 131.3515625 116 267 c 0
EndSplineSet
EndChar

StartChar: exclam
Encoding: 33 33 94
Width: 239
GlyphClass: 1
Flags: W
LayerCount: 2
Back
SplineSet
56.599609375 716 m 1
 246.599609375 716 l 1
 219.599609375 244 l 1
 77.599609375 244 l 1
 56.599609375 716 l 1
148.599609375 198 m 0
 176.599609375 198 200.599609375 187.833007812 220.599609375 167.5 c 0
 240.599609375 147.166992188 250.599609375 123 250.599609375 95 c 0
 250.599609375 67 240.599609375 43 220.599609375 23 c 0
 200.599609375 3 176.599609375 -7 148.599609375 -7 c 0
 120.599609375 -7 96.599609375 3 76.599609375 23 c 0
 56.599609375 43 46.599609375 67 46.599609375 95 c 0
 46.599609375 123 56.599609375 147.166992188 76.599609375 167.5 c 0
 96.599609375 187.833007812 120.599609375 198 148.599609375 198 c 0
EndSplineSet
Fore
SplineSet
150.202148438 223 m 1
 150.202148438 231 162.79296875 724 162.79296875 716 c 1
 79.142578125 716 l 1
 79.142578125 724 87.859375 231 87.859375 223 c 1
 150.202148438 223 l 1
174 55 m 0
 174 82.5263671875 154.877929688 111 119 111 c 0
 83.1220703125 111 64 82.5263671875 64 55 c 0
 64 25.8828125 83.568359375 1 119 1 c 0
 154.431640625 1 174 25.8828125 174 55 c 0
EndSplineSet
EndChar

StartChar: exclamdown
Encoding: 161 161 95
Width: 239
GlyphClass: 1
Flags: W
LayerCount: 2
Back
SplineSet
222.919921875 454 m 4
 222.919921875 434 215.752929688 416.833007812 201.419921875 402.5 c 0
 187.086914062 388.166992188 169.919921875 381 149.919921875 381 c 0
 129.919921875 381 112.752929688 388.166992188 98.419921875 402.5 c 0
 84.0869140625 416.833007812 76.919921875 434 76.919921875 454 c 0
 76.919921875 474 84.0869140625 491.166992188 98.419921875 505.5 c 0
 112.752929688 519.833007812 129.919921875 527 149.919921875 527 c 0
 169.919921875 527 187.086914062 519.833007812 201.419921875 505.5 c 0
 215.752929688 491.166992188 222.919921875 474 222.919921875 454 c 4
221.919921875 -196 m 5
 77.919921875 -196 l 1
 85.919921875 275 l 1
 213.919921875 275 l 1
 221.919921875 -196 l 5
EndSplineSet
Fore
Refer: 94 33 S -1 0 -0 -1 254 521 2
EndChar

StartChar: f
Encoding: 102 102 96
Width: 359
GlyphClass: 1
Flags: W
LayerCount: 2
Back
SplineSet
321.599609375 732 m 4
 370.93359375 732 409.599609375 730.333007812 437.599609375 727 c 1
 424.599609375 601 l 1
 373.599609375 601 l 2
 351.599609375 601 335.43359375 595.833007812 325.099609375 585.5 c 0
 314.766601562 575.166992188 309.599609375 558 309.599609375 534 c 2
 309.599609375 520 l 1
 425.599609375 520 l 1
 425.599609375 370 l 1
 309.599609375 370 l 1
 309.599609375 0 l 1
 117.599609375 0 l 1
 117.599609375 370 l 1
 25.599609375 370 l 1
 25.599609375 520 l 1
 117.599609375 520 l 1
 117.599609375 542 l 2
 117.599609375 603.333007812 134.599609375 650.333007812 168.599609375 683 c 0
 202.599609375 715.666992188 253.599609375 732 321.599609375 732 c 4
EndSplineSet
Fore
SplineSet
196 520 m 1
 196 528 196 614 196 606 c 2
 196 641.092773438 208.323242188 685 270 685 c 2
 332.9375 685 l 1
 332.9375 693 338.139648438 734.620117188 338.139648438 726.620117188 c 1
 317.66796875 730.41015625 294.693359375 732 270 732 c 0
 142.752929688 732 132 629.219726562 132 592 c 2
 132 600 132 528 132 520 c 1
 32 520 l 1
 32 528 32 480 32 472 c 1
 132 472 l 1
 132 480 132 24 132 16 c 1
 196 16 l 1
 196 24 196 480 196 472 c 1
 330 472 l 1
 330 480 330 528 330 520 c 1
 196 520 l 1
EndSplineSet
EndChar

StartChar: five
Encoding: 53 53 97
Width: 550
GlyphClass: 1
Flags: W
LayerCount: 2
Back
SplineSet
42.9501953125 708 m 1
 525.950195312 708 l 1
 525.950195312 548 l 1
 217.950195312 548 l 1
 214.950195312 398 l 1
 228.283203125 415.333007812 247.783203125 430.333007812 273.450195312 443 c 0
 299.116210938 455.666992188 327.616210938 462 358.950195312 462 c 0
 425.616210938 462 478.116210938 443.666992188 516.450195312 407 c 0
 554.783203125 370.333007812 573.950195312 314.666992188 573.950195312 240 c 0
 573.950195312 161.333007812 550.283203125 100.333007812 502.950195312 57 c 0
 455.616210938 13.6669921875 381.950195312 -8 281.950195312 -8 c 0
 232.616210938 -8 189.783203125 -2.1669921875 153.450195312 9.5 c 0
 117.116210938 21.1669921875 71.283203125 41 15.9501953125 69 c 1
 84.9501953125 208 l 1
 138.950195312 163.333007812 198.616210938 141 263.950195312 141 c 0
 301.283203125 141 330.283203125 149.166992188 350.950195312 165.5 c 0
 371.616210938 181.833007812 381.950195312 206 381.950195312 238 c 0
 381.950195312 295.333007812 352.616210938 324 293.950195312 324 c 0
 260.616210938 324 233.283203125 308 211.950195312 276 c 1
 40.9501953125 276 l 1
 42.9501953125 708 l 1
EndSplineSet
Fore
SplineSet
267.074932167 392.959960938 m 0
 393.469580371 392.959960938 430.517578125 322.676757812 430.517578125 218.051757812 c 0
 430.517578125 136.282226562 400.108398438 41.0966796875 245.158764502 41.0966796875 c 0
 182.830078125 41.0966796875 123.568359375 63.615234375 64.9306640625 106.86328125 c 1
 64.9306640625 101.305664062 39 55.0263671875 39 61.6181640625 c 1
 99.3134765625 15.435546875 167.586914062 -8 245.158764502 -8 c 0
 405.775390625 -8 494.517578125 79.4501953125 494.517578125 222.581054688 c 0
 494.517578125 362.854492188 423.611328125 444.963867188 297.757566897 444.963867188 c 0
 232.458516561 444.963867188 183.650390625 419.736328125 150.076171875 370.583984375 c 2
 150.076171875 371.776367188 134.8125 348.875976562 134.8125 348.23828125 c 1
 134.8125 348.875976562 142.727539062 661.198242188 142.727539062 653 c 1
 457.517578125 653 l 1
 457.517578125 661 457.517578125 716 457.517578125 708 c 1
 83.3486328125 708 l 1
 83.3486328125 716.182617188 75.6904296875 341.629882812 75.6904296875 341.817382812 c 1
 139.4375 341.817382812 l 1
 176.05859375 375.30078125 217.513145584 392.959960938 267.074932167 392.959960938 c 0
EndSplineSet
EndChar

StartChar: four
Encoding: 52 52 98
Width: 518
GlyphClass: 1
Flags: W
LayerCount: 2
Back
SplineSet
282.599609375 708 m 5
 479.599609375 708 l 1
 221.599609375 283 l 1
 350.599609375 283 l 1
 350.599609375 409 l 1
 526.599609375 474 l 1
 526.599609375 283 l 1
 597.599609375 283 l 1
 597.599609375 123 l 1
 526.599609375 123 l 1
 526.599609375 0 l 1
 350.599609375 0 l 1
 350.599609375 123 l 1
 34.599609375 123 l 1
 34.599609375 283 l 1
 282.599609375 708 l 5
EndSplineSet
Fore
SplineSet
52 239.990234375 m 1
 52 247.990234375 52 188 52 180 c 1
 393 180 l 1
 393 188 393 24 393 16 c 1
 457 16 l 1
 457 24 457 492 457 484 c 1
 393 484 l 1
 393 492 393 242 393 234 c 1
 393 242 110.561523438 242 110.561523438 234 c 1
 110.561523438 242 351.561523438 716 351.561523438 708 c 1
 291.143298939 708 l 1
 291.143298939 716 52 247.990234375 52 239.990234375 c 1
EndSplineSet
EndChar

StartChar: g
Encoding: 103 103 99
Width: 526
GlyphClass: 1
Flags: W
LayerCount: 2
Back
SplineSet
260.799804688 412 m 0
 220.133789062 412 199.799804688 393.666992188 199.799804688 357 c 0
 199.799804688 322.333007812 220.133789062 305 260.799804688 305 c 0
 303.466796875 305 324.799804688 321.666992188 324.799804688 355 c 0
 324.799804688 393 303.466796875 412 260.799804688 412 c 0
259.799804688 528 m 0
 343.479492188 528 404.749023438 511.727539062 443.607421875 479.182617188 c 1
 470.719726562 506.39453125 507.1171875 520 552.799804688 520 c 2
 584.799804688 520 l 1
 584.799804688 379 l 1
 493.60546875 379 l 1
 494.40234375 371.306640625 494.799804688 363.306640625 494.799804688 355 c 0
 494.799804688 304.333007812 478.799804688 265.833007812 446.799804688 239.5 c 0
 414.799804688 213.166992188 365.799804688 197 299.799804688 191 c 0
 259.799804688 187 233.633789062 183 221.299804688 179 c 0
 208.966796875 175 202.799804688 169 202.799804688 161 c 0
 202.799804688 147 216.133789062 140 242.799804688 140 c 2
 419.799804688 140 l 2
 474.466796875 140 517.299804688 127.333007812 548.299804688 102 c 0
 579.299804688 76.6669921875 594.799804688 42 594.799804688 -2 c 0
 594.799804688 -68.6669921875 571.299804688 -116.833007812 524.299804688 -146.5 c 0
 477.299804688 -176.166992188 402.799804688 -191 300.799804688 -191 c 0
 236.133789062 -191 175.466796875 -183.666992188 118.799804688 -169 c 0
 62.1337890625 -154.333007812 19.466796875 -139.666992188 -9.2001953125 -125 c 1
 39.7998046875 -15 l 1
 62.466796875 -25 97.6337890625 -35.6669921875 145.299804688 -47 c 0
 192.966796875 -58.3330078125 242.799804688 -64 294.799804688 -64 c 0
 344.133789062 -64 378.633789062 -61 398.299804688 -55 c 0
 417.966796875 -49 427.799804688 -39.3330078125 427.799804688 -26 c 0
 427.799804688 -18 424.633789062 -11.6669921875 418.299804688 -7 c 0
 411.966796875 -2.3330078125 403.799804688 0 393.799804688 0 c 2
 215.799804688 0 l 2
 157.799804688 0 115.966796875 9.1669921875 90.2998046875 27.5 c 0
 64.6337890625 45.8330078125 51.7998046875 74.6669921875 51.7998046875 114 c 0
 51.7998046875 162.666992188 83.466796875 194 146.799804688 208 c 1
 110.133789062 218 81.466796875 236.166992188 60.7998046875 262.5 c 0
 40.1337890625 288.833007812 29.7998046875 319 29.7998046875 353 c 0
 29.7998046875 469.666992188 106.466796875 528 259.799804688 528 c 0
EndSplineSet
Fore
SplineSet
230.070296875 240 m 0
 158.978515625 240 110.513671875 269.51953125 110.513671875 357 c 0
 110.513671875 426.473632812 150.944335938 472 230.070296875 472 c 0
 293.567054687 472 336.513671875 428.1640625 336.513671875 357 c 0
 336.513671875 297.4921875 312.254882812 240 230.070296875 240 c 0
357.02734375 476.75390625 m 1
 336.888671875 494.505859375 300.158148438 528 226.582296875 528 c 0
 117.750976562 528 48.513671875 464.333007812 48.513671875 364.521484375 c 0
 48.513671875 297.056640625 76.1025390625 245.758789062 127.390625 216.462890625 c 2
 127.390625 215.913085938 142.732421875 206.90234375 142.732421875 207.69921875 c 1
 142.732421875 206.90234375 126.244140625 200.563476562 126.244140625 201.53515625 c 2
 72.720703125 181.5234375 48.513671875 152.205078125 48.513671875 114.67578125 c 0
 48.513671875 52.2236328125 98.1435546875 13.9150390625 193.513671875 13.9150390625 c 2
 328.513671875 13.9150390625 l 2
 383.40234375 13.9150390625 418.513671875 -9.8994140625 418.513671875 -56 c 0
 418.513671875 -117.130859375 353.8984375 -144 251.870296875 -144 c 0
 190.541015625 -144 120.104492188 -119.709960938 48.34375 -71.890625 c 1
 48.34375 -79.890625 16 -123.016601562 16 -115.016601562 c 1
 99.919921875 -169.989257812 169.520507812 -192 250.126296875 -192 c 0
 393.784179688 -192 482.513671875 -135.66796875 482.513671875 -52 c 0
 482.513671875 24.1826171875 428.725585938 66.2626953125 319.513671875 66.2626953125 c 2
 191.513671875 66.2626953125 l 2
 138.864257812 66.2626953125 104.513671875 79.861328125 104.513671875 115.624023438 c 0
 104.513671875 169.061523438 146.310546875 189.67578125 231.266742188 196.83984375 c 0
 357.012695312 208.958984375 400.513671875 272.76953125 400.513671875 364.489257812 c 0
 400.513671875 401.19921875 391.874023438 432.255859375 374.05078125 457.337890625 c 2
 374.05078125 463.559570312 364.759765625 477.004882812 364.759765625 470.411132812 c 1
 478.513671875 470.411132812 l 1
 478.513671875 477.004882812 478.513671875 527.766601562 478.513671875 519.7734375 c 1
 434.513671875 519.7734375 l 2
 404.861328125 519.7734375 376.2890625 505.228515625 362.084960938 484.231445312 c 2
 362.084960938 491.216796875 357.02734375 483.52734375 357.02734375 476.75390625 c 1
EndSplineSet
EndChar

StartChar: grave
Encoding: 96 96 100
Width: 268
GlyphClass: 1
Flags: W
LayerCount: 2
Back
SplineSet
175.235351562 768 m 1
 300.235351562 527 l 1
 189.235351562 527 l 1
 33.2353515625 768 l 1
 175.235351562 768 l 1
EndSplineSet
Fore
SplineSet
216.952148438 738.506835938 m 1
 216.952148438 746.506835938 244.924804688 785.8203125 244.924804688 777.8203125 c 1
 244.924804688 785.8203125 49.3466796875 912.150390625 49.3466796875 904.150390625 c 1
 49.3466796875 912.150390625 13 861.581054688 13 853.581054688 c 1
 13 861.581054688 216.952148438 746.506835938 216.952148438 738.506835938 c 1
EndSplineSet
EndChar

StartChar: gravecomb
Encoding: 768 768 101
Width: -16
GlyphClass: 1
Flags: W
AnchorPoint: "AccentCenter" -0 834 mark 0
LayerCount: 2
Back
SplineSet
93.2353515625 737 m 1
 -149.764648438 814 l 1
 -90.7646484375 930 l 1
 130.235351562 816 l 1
 93.2353515625 737 l 1
EndSplineSet
Fore
SplineSet
76.9521484375 762.506835938 m 1
 76.9521484375 770.506835938 104.924804688 809.8203125 104.924804688 801.8203125 c 1
 104.924804688 809.8203125 -90.6533203125 936.150390625 -90.6533203125 928.150390625 c 1
 -90.6533203125 936.150390625 -127 885.581054688 -127 877.581054688 c 1
 -127 885.581054688 76.9521484375 770.506835938 76.9521484375 762.506835938 c 1
EndSplineSet
EndChar

StartChar: greater
Encoding: 62 62 102
Width: 497
GlyphClass: 1
Flags: W
LayerCount: 2
Back
SplineSet
502.133789062 328 m 1
 502.133789062 229 l 1
 58.1337890625 413 l 1
 86.1337890625 504 l 1
 502.133789062 328 l 1
502.133789062 328 m 1
 502.133789062 229 l 1
 86.1337890625 53 l 1
 58.1337890625 144 l 1
 502.133789062 328 l 1
EndSplineSet
Fore
SplineSet
446.325195312 324.669921875 m 1
 446.325195312 324.669921875 55.4404296875 509.6953125 55.4404296875 501.9921875 c 1
 55.4404296875 509.37109375 32.0078125 457.084960938 32.0078125 449.682617188 c 1
 32.0078125 457.423828125 415.416015625 279.0234375 415.416015625 279.0234375 c 1
 415.416015625 279.0234375 32 99.6083984375 32 107.33984375 c 1
 32 99.9443359375 55.4404296875 47.6279296875 55.4404296875 55.0078125 c 1
 55.4404296875 47.3046875 446.325195312 232.330078125 446.325195312 232.330078125 c 1
 446.325195312 324.669921875 l 1
EndSplineSet
EndChar

StartChar: h
Encoding: 104 104 103
Width: 518
GlyphClass: 1
Flags: W
LayerCount: 2
Back
SplineSet
60.2001953125 708 m 1
 252.200195312 708 l 1
 252.200195312 448 l 1
 279.533203125 501.333007812 330.533203125 528 405.200195312 528 c 0
 462.533203125 528 506.700195312 509.5 537.700195312 472.5 c 0
 568.700195312 435.5 584.200195312 384 584.200195312 318 c 2
 584.200195312 0 l 1
 392.200195312 0 l 1
 392.200195312 304 l 2
 392.200195312 324.666992188 386.533203125 340.833007812 375.200195312 352.5 c 0
 363.866210938 364.166992188 348.533203125 370 329.200195312 370 c 0
 293.200195312 370 267.533203125 356 252.200195312 328 c 1
 252.200195312 0 l 1
 60.2001953125 0 l 1
 60.2001953125 708 l 1
EndSplineSet
Fore
SplineSet
454 16 m 1
 454 24 454 341 454 333 c 2
 454 446.184570312 410.055664062 528 293.651450893 528 c 0
 243.805664062 528 191.97265625 501.5625 141.962890625 445.668945312 c 2
 141.962890625 453.668945312 128 438.063476562 128 430.063476562 c 1
 128 438.063476562 128 715 128 707 c 1
 64 707 l 1
 64 715 64 24 64 16 c 1
 128 16 l 1
 128 24 128 390.629882812 128 382.629882812 c 1
 155.879882812 420.422851562 206.356445312 480 275.937165179 480 c 0
 364.707533482 480 390 414.927734375 390 331 c 2
 390 339 390 24 390 16 c 1
 454 16 l 1
EndSplineSet
EndChar

StartChar: hyphen
Encoding: 45 45 104
Width: 416
GlyphClass: 1
Flags: W
LayerCount: 2
Back
SplineSet
80.599609375 323 m 5
 417.599609375 323 l 1
 417.599609375 215 l 1
 80.599609375 215 l 1
 80.599609375 323 l 5
EndSplineSet
Fore
SplineSet
352 235 m 1
 352 299 l 1
 64 299 l 1
 64 235 l 1
 352 235 l 1
EndSplineSet
EndChar

StartChar: i
Encoding: 105 105 105
Width: 276
GlyphClass: 1
Flags: W
LayerCount: 2
Back
SplineSet
194.5 743 m 0
 221.166992188 743 244 733.5 263 714.5 c 0
 282 695.5 291.5 672.666992188 291.5 646 c 0
 291.5 619.333007812 282 596.5 263 577.5 c 0
 244 558.5 221.166992188 549 194.5 549 c 0
 167.833007812 549 145 558.5 126 577.5 c 0
 107 596.5 97.5 619.333007812 97.5 646 c 0
 97.5 672.666992188 107 695.5 126 714.5 c 0
 145 733.5 167.833007812 743 194.5 743 c 0
11.5 520 m 1
 287.5 520 l 1
 287.5 0 l 1
 95.5 0 l 1
 95.5 374 l 1
 11.5 374 l 1
 11.5 520 l 1
EndSplineSet
Fore
SplineSet
196 8 m 1
 196 512 l 1
 30 512 l 1
 30 464 l 1
 132 464 l 1
 132 8 l 1
 196 8 l 1
212 692 m 0
 212 716.834960938 192.369140625 739 165 739 c 0
 137.630859375 739 118 716.834960938 118 692 c 0
 118 667.165039062 137.630859375 645 165 645 c 0
 192.369140625 645 212 667.165039062 212 692 c 0
EndSplineSet
EndChar

StartChar: iacute
Encoding: 237 237 106
Width: 297
GlyphClass: 1
Flags: HW
LayerCount: 2
Back
SplineSet
54 583 m 1
 17 662 l 1
 238 776 l 1
 297 660 l 1
 54 583 l 1
0 520 m 1
 276 520 l 1
 276 0 l 1
 84 0 l 1
 84 374 l 1
 0 374 l 1
 0 520 l 1
EndSplineSet
Fore
Refer: 59 769 N 1 0 0 1 168 -147 2
Refer: 85 305 N 1 0 0 1 0 0 3
EndChar

StartChar: icircumflex
Encoding: 238 238 107
Width: 297
GlyphClass: 1
Flags: HW
LayerCount: 2
Back
SplineSet
-27 646 m 25
 128 776 l 1
 194 776 l 1
 349 646 l 1
 292 575 l 1
 161 681 l 1
 22 575 l 1
 -27 646 l 25
0 520 m 1
 276 520 l 1
 276 0 l 1
 84 0 l 1
 84 374 l 1
 0 374 l 1
 0 520 l 1
EndSplineSet
Fore
Refer: 163 770 N 1 0 0 1 168 -147 2
Refer: 85 305 N 1 0 0 1 0 0 3
EndChar

StartChar: idieresis
Encoding: 239 239 108
Width: 297
GlyphClass: 1
Flags: HW
LayerCount: 2
Back
SplineSet
205 683 m 4
 205 702.333333333 211.833333333 718.666666667 225.5 732 c 0
 239.166666667 745.333333333 255.333333333 752 274 752 c 0
 292.666666667 752 308.833333333 745.333333333 322.5 732 c 0
 336.166666667 718.666666667 343 702.333333333 343 683 c 0
 343 663.666666667 336.166666667 647.333333333 322.5 634 c 0
 308.833333333 620.666666667 292.666666667 614 274 614 c 0
 255.333333333 614 239.166666667 620.666666667 225.5 634 c 0
 211.833333333 647.333333333 205 663.666666667 205 683 c 4
-21 683 m 0
 -21 702.333333333 -14.1666666667 718.666666667 -0.5 732 c 0
 13.1666666667 745.333333333 29.3333333333 752 48 752 c 0
 66.6666666667 752 82.8333333333 745.333333333 96.5 732 c 0
 110.166666667 718.666666667 117 702.333333333 117 683 c 0
 117 663.666666667 110.166666667 647.333333333 96.5 634 c 0
 82.8333333333 620.666666667 66.6666666667 614 48 614 c 0
 29.3333333333 614 13.1666666667 620.666666667 -0.5 634 c 0
 -14.1666666667 647.333333333 -21 663.666666667 -21 683 c 0
0 520 m 1
 276 520 l 1
 276 0 l 1
 84 0 l 1
 84 374 l 1
 0 374 l 1
 0 520 l 1
EndSplineSet
Fore
Refer: 165 776 N 1 0 0 1 168 -167 2
Refer: 85 305 N 1 0 0 1 0 0 3
EndChar

StartChar: igrave
Encoding: 236 236 109
Width: 297
GlyphClass: 1
Flags: HW
LayerCount: 2
Back
SplineSet
260 583 m 1
 17 660 l 1
 76 776 l 1
 297 662 l 1
 260 583 l 1
0 520 m 1
 276 520 l 1
 276 0 l 1
 84 0 l 1
 84 374 l 1
 0 374 l 1
 0 520 l 1
EndSplineSet
Fore
Refer: 101 768 N 1 0 0 1 168 -147 2
Refer: 85 305 N 1 0 0 1 0 0 3
EndChar

StartChar: j
Encoding: 106 106 110
Width: 258
GlyphClass: 1
Flags: W
LayerCount: 2
Back
SplineSet
60 520 m 1
 252 520 l 1
 252 22 l 2
 252 -53.3333333333 234.833333333 -107.666666667 200.5 -141 c 0
 166.166666667 -174.333333333 103 -191 11 -191 c 2
 -10 -191 l 1
 -10 -34 l 1
 11 -34 l 2
 29 -34 41.6666666667 -30.1666666667 49 -22.5 c 0
 56.3333333333 -14.8333333333 60 -2 60 16 c 2
 60 520 l 1
155 747 m 0
 181.666666667 747 204.5 737.666666667 223.5 719 c 0
 242.5 700.333333333 252 677.666666667 252 651 c 0
 252 624.333333333 242.5 601.5 223.5 582.5 c 0
 204.5 563.5 181.666666667 554 155 554 c 0
 128.333333333 554 105.5 563.5 86.5 582.5 c 0
 67.5 601.5 58 624.333333333 58 651 c 0
 58 677.666666667 67.5 700.333333333 86.5 719 c 0
 105.5 737.666666667 128.333333333 747 155 747 c 0
EndSplineSet
Fore
SplineSet
161 -42 m 2
 161 -50 161 496 161 504 c 1
 97 504 l 1
 97 496 97 -50 97 -42 c 2
 97 -90.921875 77.3369140625 -117.983398438 53.5595703125 -131.424804688 c 0
 34.8427734375 -142.005859375 14.669921875 -144 1 -144 c 2
 0 -144 l 1
 0 -152 0 -200 0 -192 c 1
 1 -192 l 2
 155.139648438 -192 161 -65.365234375 161 -42 c 2
178 692 m 0
 178 716.635742188 157.5078125 739 130 739 c 0
 105.303710938 739 84 719.561523438 84 692 c 0
 84 664.438476562 105.303710938 645 130 645 c 0
 157.5078125 645 178 667.364257812 178 692 c 0
EndSplineSet
EndChar

StartChar: k
Encoding: 107 107 111
Width: 491
GlyphClass: 1
Flags: W
LayerCount: 2
Back
SplineSet
68 708 m 1
 260 708 l 1
 260 360 l 1
 301 360 l 1
 410 519 l 1
 614 519 l 1
 440 275 l 1
 628 0 l 1
 422 0 l 1
 301 185 l 1
 260 185 l 1
 260 0 l 1
 68 0 l 1
 68 708 l 1
EndSplineSet
Fore
SplineSet
144 309 m 1
 144 317 144 716 144 708 c 1
 80 708 l 1
 80 716 80 24 80 16 c 1
 144 16 l 1
 144 24 144 269 144 261 c 1
 182 261 l 1
 185.770507812 261 l 1
 185.770507812 269 371.770507812 24 371.770507812 16 c 1
 457.545898438 16 l 1
 457.545898438 24 243.203125 291.276367188 243.203125 283.276367188 c 1
 243.203125 291.276367188 453.298828125 528 453.298828125 520 c 1
 367.522460938 520 l 1
 367.522460938 528 190.522460938 317 190.522460938 309 c 1
 144 309 l 1
EndSplineSet
EndChar

StartChar: l
Encoding: 108 108 112
Width: 239
GlyphClass: 1
Flags: W
LayerCount: 2
Back
SplineSet
59.599609375 772 m 1
 251.599609375 772 l 1
 251.599609375 196 l 2
 251.599609375 167.333007812 265.93359375 153 294.599609375 153 c 0
 295.266601562 153 296.93359375 153.166992188 299.599609375 153.5 c 0
 302.266601562 153.833007812 304.266601562 154 305.599609375 154 c 2
 338.599609375 158 l 1
 351.599609375 1 l 1
 314.266601562 -5 278.599609375 -8 244.599609375 -8 c 0
 189.93359375 -8 145.43359375 7.1669921875 111.099609375 37.5 c 0
 76.7666015625 67.8330078125 59.599609375 108.333007812 59.599609375 159 c 2
 59.599609375 772 l 1
EndSplineSet
Fore
SplineSet
223.19140625 47.0751953125 m 1
 175.576171875 40.1298828125 174.57421875 39.984375 170 39.984375 c 0
 152.49609375 39.984375 136 49.6162109375 136 85.9267578125 c 2
 136 79.7265625 136 780.16796875 136 772 c 1
 72 772 l 1
 72 780.16796875 72 74.5146484375 72 80.822265625 c 2
 72 45.162109375 83.919921875 -8 155 -8 c 0
 178.958984375 -8 203.948242188 -3.8134765625 229.130859375 3.8701171875 c 1
 229.130859375 -4.048828125 223.19140625 40.060546875 223.19140625 47.0751953125 c 1
EndSplineSet
EndChar

StartChar: less
Encoding: 60 60 113
Width: 497
GlyphClass: 1
Flags: W
LayerCount: 2
Back
SplineSet
50.7998046875 328 m 1
 466.799804688 504 l 1
 494.799804688 413 l 1
 50.7998046875 229 l 1
 50.7998046875 328 l 1
50.7998046875 328 m 5
 494.799804688 144 l 1
 466.799804688 53 l 1
 50.7998046875 229 l 1
 50.7998046875 328 l 5
EndSplineSet
Fore
SplineSet
438.885742188 501.9921875 m 1
 438.885742188 509.6953125 48 324.669921875 48 324.669921875 c 1
 48 232.330078125 l 1
 48 232.330078125 438.885742188 47.3046875 438.885742188 55.0078125 c 1
 438.885742188 47.6279296875 462.325195312 99.9443359375 462.325195312 107.33984375 c 1
 462.325195312 99.6083984375 78.9091796875 279.0234375 78.9091796875 279.0234375 c 1
 78.9091796875 279.0234375 462.318359375 457.423828125 462.318359375 449.682617188 c 1
 462.318359375 457.084960938 438.885742188 509.37109375 438.885742188 501.9921875 c 1
EndSplineSet
EndChar

StartChar: m
Encoding: 109 109 114
Width: 788
GlyphClass: 1
Flags: W
LayerCount: 2
Back
SplineSet
68 520 m 1
 196 520 l 1
 260 448 l 1
 290 501.333007812 334.666992188 528 394 528 c 0
 425.333007812 528 454 521 480 507 c 0
 506 493 524.666992188 472.333007812 536 445 c 1
 553.333007812 475 573.333007812 496.333007812 596 509 c 0
 618.666992188 521.666992188 650.666992188 528 692 528 c 0
 746 528 789.833007812 510.333007812 823.5 475 c 0
 857.166992188 439.666992188 874 387 874 317 c 2
 874 0 l 1
 682 0 l 1
 682 307 l 2
 682 358.333007812 661.666992188 384 621 384 c 0
 596.333007812 384 578.333007812 375.333007812 567 358 c 1
 567 0 l 1
 375 0 l 1
 375 314 l 2
 375 360.666992188 355.333007812 384 316 384 c 0
 300 384 281.333007812 375 260 357 c 1
 260 0 l 1
 68 0 l 1
 68 520 l 1
EndSplineSet
Fore
SplineSet
708 16 m 1
 708 24 708 369 708 361 c 2
 708 421.546875 689.077148438 528 569.07826087 528 c 0
 512.801757812 528 466.647460938 500.8515625 433.875976562 445.91015625 c 2
 433.875976562 453.91015625 425.111328125 439.216796875 425.111328125 431.216796875 c 1
 425.111328125 439.216796875 419.44921875 455.353515625 419.44921875 447.353515625 c 2
 400.662109375 500.896484375 358.609918478 528 301.32173913 528 c 0
 251.787109375 528 202.143554688 501.631835938 158.239257812 446.994140625 c 2
 158.239257812 454.994140625 147.8203125 442.029296875 147.8203125 434.029296875 c 1
 147.8203125 442.029296875 128.590820312 528 128.590820312 520 c 1
 80 520 l 1
 80 528 80 24 80 16 c 1
 144 16 l 1
 144 24 144 411.243164062 144 403.243164062 c 1
 165.920898438 439.255859375 205.791015625 480 272.052173913 480 c 0
 338.295414402 480 357.27826087 434.552734375 357.27826087 376 c 2
 357.27826087 384 357.27826087 24 357.27826087 16 c 1
 421 16 l 1
 421 24 421 410.665039062 421 402.665039062 c 1
 436.70703125 423.608398438 480.556640625 480 552.72173913 480 c 0
 623.45091712 480 644.834782609 432.125 644.834782609 360 c 2
 644.834782609 368 644.834782609 24 644.834782609 16 c 1
 708 16 l 1
EndSplineSet
EndChar

StartChar: mu
Encoding: 181 181 115
Width: 544
GlyphClass: 1
Flags: W
LayerCount: 2
Back
SplineSet
519.700195312 108 m 1
 584.700195312 108 l 1
 584.700195312 0 l 1
 519.700195312 0 l 1
 519.700195312 108 l 1
401.700195312 307 m 1
 529.700195312 307 l 1
 529.700195312 0 l 1
 444.700195312 0 l 1
 401.700195312 97 l 1
 401.700195312 307 l 1
173.700195312 140 m 1
 180.700195312 221 l 1
 180.700195312 180.333007812 188.866210938 149.333007812 205.200195312 128 c 0
 221.533203125 106.666992188 250.033203125 96 290.700195312 96 c 0
 324.033203125 96 350.866210938 108.333007812 371.200195312 133 c 0
 391.533203125 157.666992188 401.700195312 187.333007812 401.700195312 222 c 2
 401.700195312 519 l 1
 529.700195312 519 l 1
 529.700195312 273 l 1
 415.700195312 129 l 1
 415.700195312 85 403.866210938 51.1669921875 380.200195312 27.5 c 0
 356.533203125 3.8330078125 325.700195312 -8 287.700195312 -8 c 0
 265.700195312 -8 246.866210938 -3.5 231.200195312 5.5 c 0
 215.533203125 14.5 203.700195312 26.8330078125 195.700195312 42.5 c 0
 187.700195312 58.1669921875 182.033203125 73.8330078125 178.700195312 89.5 c 0
 175.366210938 105.166992188 173.700195312 122 173.700195312 140 c 1
60.7001953125 -192 m 1
 60.7001953125 519 l 1
 188.700195312 519 l 1
 188.700195312 -192 l 1
 60.7001953125 -192 l 1
EndSplineSet
Fore
SplineSet
516 41 m 1
 507 41 l 2
 472.930513822 41 464.26156851 62.8671875 464.26156851 94 c 2
 464.26156851 86 464.26156851 495 464.26156851 503 c 1
 411.800030048 503 l 1
 411.800030048 495 411.800030048 204 411.800030048 212 c 2
 411.800030048 87.5322265625 350.296338578 40 284.240390258 40 c 0
 195.632299002 40 157.663085938 98.7841796875 148.83984375 116.4296875 c 2
 148.83984375 108.4296875 148 110.110351562 148 118.110351562 c 1
 148 110.110351562 148 495 148 503 c 1
 86 503 l 1
 86 495 86 -199 86 -191 c 1
 148 -191 l 1
 148 -199 148 -12 148 -4 c 2
 148 14.1103515625 145.306640625 27.609375 137.685546875 44.7568359375 c 2
 137.685546875 36.7568359375 111.500976562 95.6728515625 111.500976562 103.672851562 c 1
 111.500976562 95.6728515625 151.297851562 44.9306640625 151.297851562 52.9306640625 c 2
 189.481468237 4.1669921875 228.995814077 -8 282.390625 -8 c 0
 338.906914796 -8 378.815961524 22.1875 401.61726262 65.8115234375 c 2
 401.61726262 57.8115234375 412.001652644 80.392578125 412.001652644 88.392578125 c 1
 412.001652644 80.392578125 414.300480769 54.8544921875 414.300480769 62.8544921875 c 2
 418.292442909 18.5068359375 435.869140625 -8 476.107722356 -8 c 0
 487.068885216 -8 506.189453125 -4.236328125 516 -1.8759765625 c 1
 516 -9.8759765625 516 33 516 41 c 1
EndSplineSet
EndChar

StartChar: n
Encoding: 110 110 116
Width: 538
GlyphClass: 1
Flags: W
LayerCount: 2
Back
SplineSet
68 520 m 1
 217 520 l 1
 260 443 l 1
 288 499.666992188 339 528 413 528 c 0
 470.333007812 528 514.5 509.5 545.5 472.5 c 0
 576.5 435.5 592 384 592 318 c 2
 592 0 l 1
 400 0 l 1
 400 304 l 2
 400 354 379 379 337 379 c 0
 321 379 305.5 374 290.5 364 c 0
 275.5 354 265.333007812 342 260 328 c 1
 260 0 l 1
 68 0 l 1
 68 520 l 1
EndSplineSet
Fore
SplineSet
144 393.5703125 m 1
 164.428710938 422.0625 209.4140625 478 290.114285714 478 c 0
 371.775585938 478 394 418.169921875 394 342 c 2
 394 350 394 24 394 16 c 1
 458 16 l 1
 458 24 458 352 458 344 c 2
 458 460.666992188 396.329101562 528 303.4 528 c 0
 252.987304688 528 202.354492188 499.807617188 158.403320312 441.20703125 c 2
 158.403320312 449.20703125 148.084960938 435.448242188 148.084960938 427.448242188 c 1
 148.084960938 435.448242188 126.640625 528 126.640625 520 c 1
 80 520 l 1
 80 528 80 24 80 16 c 1
 144 16 l 1
 144 24 144 401.5703125 144 393.5703125 c 1
EndSplineSet
EndChar

StartChar: nine
Encoding: 57 57 117
Width: 518
GlyphClass: 1
Flags: W
LayerCount: 2
Back
SplineSet
298.400390625 556 m 0
 273.733398438 556 254.233398438 549 239.900390625 535 c 0
 225.56640625 521 218.400390625 500 218.400390625 472 c 0
 218.400390625 445.333007812 225.900390625 425.333007812 240.900390625 412 c 0
 255.900390625 398.666992188 275.400390625 392 299.400390625 392 c 0
 323.400390625 392 343.06640625 398.833007812 358.400390625 412.5 c 0
 373.733398438 426.166992188 381.400390625 446.333007812 381.400390625 473 c 0
 381.400390625 500.333007812 374.233398438 521 359.900390625 535 c 0
 345.56640625 549 325.06640625 556 298.400390625 556 c 0
299.400390625 716 m 0
 385.400390625 716 452.56640625 688.333007812 500.900390625 633 c 0
 549.233398438 577.666992188 573.400390625 493.666992188 573.400390625 381 c 0
 573.400390625 248.333007812 546.900390625 150.333007812 493.900390625 87 c 0
 440.900390625 23.6669921875 366.733398438 -8 271.400390625 -8 c 0
 188.733398438 -8 108.400390625 15.3330078125 30.400390625 62 c 1
 93.400390625 197 l 1
 134.733398438 162.333007812 187.400390625 145 251.400390625 145 c 0
 299.400390625 145 333.56640625 159.833007812 353.900390625 189.5 c 0
 374.233398438 219.166992188 384.400390625 268 384.400390625 336 c 1
 378.400390625 313.333007812 362.233398438 293.666992188 335.900390625 277 c 0
 309.56640625 260.333007812 279.733398438 252 246.400390625 252 c 0
 99.7333984375 252 26.400390625 328 26.400390625 480 c 0
 26.400390625 553.333007812 51.900390625 611 102.900390625 653 c 0
 153.900390625 695 219.400390625 716 299.400390625 716 c 0
EndSplineSet
Fore
SplineSet
238.781633436 -8 m 0
 380.0546875 -8 480 92.9609375 480 416.37890625 c 0
 480 665.038085938 366.098632812 716 267.640529141 716 c 0
 133.056640625 716 48 629.063476562 48 484.892578125 c 0
 48 349.016601562 131.001953125 265.034179688 260.425805215 265.034179688 c 0
 325.216527272 265.034179688 370.703125 300.338867188 402.689453125 373.686523438 c 2
 402.689453125 374.131835938 418 410.033203125 418 408.794921875 c 1
 418 410.033203125 418 370.731445312 418 370.361328125 c 2
 418 167.319335938 375.325195312 41.0849609375 242.388995399 41.0849609375 c 0
 179.24609375 41.0849609375 120.374023438 57.07421875 69.7314453125 90.1064453125 c 1
 69.7314453125 84.1435546875 51.935546875 38.39453125 51.935546875 45.369140625 c 1
 108.231445312 9.7958984375 171.732421875 -8 238.781633436 -8 c 0
416 490 m 0
 416 390.040039062 353.497681413 325 264.935007669 325 c 0
 198.845703125 325 112 351.439453125 112 490 c 0
 112 597.293945312 174.116210938 668 264.935007669 668 c 0
 318.668495974 668 416 645.3984375 416 490 c 0
EndSplineSet
EndChar

StartChar: ntilde
Encoding: 241 241 118
Width: 490
GlyphClass: 1
Flags: HW
LayerCount: 2
Back
SplineSet
130.5546875 628 m 1
 137.221679688 667.333007812 152.0546875 699.333007812 175.0546875 724 c 0
 198.0546875 748.666992188 229.221679688 761 268.5546875 761 c 0
 286.5546875 761 303.388671875 757.5 319.0546875 750.5 c 0
 334.721679688 743.5 347.0546875 735.833007812 356.0546875 727.5 c 0
 365.0546875 719.166992188 375.5546875 711.5 387.5546875 704.5 c 0
 399.5546875 697.5 410.888671875 694 421.5546875 694 c 0
 449.5546875 694 465.888671875 713.666992188 470.5546875 753 c 1
 568.5546875 737 l 1
 559.888671875 690.333007812 544.0546875 655.833007812 521.0546875 633.5 c 0
 498.0546875 611.166992188 466.221679688 600 425.5546875 600 c 0
 403.5546875 600 383.888671875 605.666992188 366.5546875 617 c 0
 349.221679688 628.333007812 333.721679688 639.5 320.0546875 650.5 c 0
 306.388671875 661.5 292.888671875 667 279.5546875 667 c 0
 248.888671875 667 230.888671875 647.333007812 225.5546875 608 c 1
 130.5546875 628 l 1
67.5546875 520 m 1
 216.5546875 520 l 1
 259.5546875 443 l 1
 287.5546875 499.666992188 338.5546875 528 412.5546875 528 c 0
 469.888671875 528 514.0546875 509.5 545.0546875 472.5 c 0
 576.0546875 435.5 591.5546875 384 591.5546875 318 c 2
 591.5546875 0 l 1
 399.5546875 0 l 1
 399.5546875 304 l 2
 399.5546875 354 378.5546875 379 336.5546875 379 c 0
 320.5546875 379 305.0546875 374 290.0546875 364 c 0
 275.0546875 354 264.888671875 342 259.5546875 328 c 1
 259.5546875 0 l 1
 67.5546875 0 l 1
 67.5546875 520 l 1
EndSplineSet
Fore
Refer: 154 771 N 1 0 0 1 256 -154 2
Refer: 116 110 N 1 0 0 1 0 0 2
EndChar

StartChar: numbersign
Encoding: 35 35 119
Width: 602
GlyphClass: 1
Flags: W
LayerCount: 2
Back
SplineSet
214.799804688 724 m 5
 380.799804688 724 l 1
 345.799804688 575 l 1
 437.799804688 575 l 1
 472.799804688 724 l 1
 638.799804688 724 l 1
 603.799804688 575 l 1
 654.799804688 575 l 1
 654.799804688 415 l 1
 565.799804688 415 l 1
 540.799804688 313 l 1
 654.799804688 313 l 1
 654.799804688 153 l 1
 502.799804688 153 l 1
 466.799804688 0 l 1
 300.799804688 0 l 1
 336.799804688 153 l 1
 244.799804688 153 l 1
 208.799804688 0 l 1
 42.7998046875 0 l 1
 78.7998046875 153 l 1
 26.7998046875 153 l 1
 26.7998046875 313 l 1
 116.799804688 313 l 1
 141.799804688 415 l 1
 26.7998046875 415 l 1
 26.7998046875 575 l 1
 179.799804688 575 l 1
 214.799804688 724 l 5
374.799804688 313 m 1
 399.799804688 415 l 1
 307.799804688 415 l 1
 282.799804688 313 l 1
 374.799804688 313 l 1
EndSplineSet
Fore
SplineSet
261.474067217 724 m 1
 261.474067217 732 206.833464843 528 206.833464843 520 c 1
 48 520 l 1
 48 528 48 476 48 468 c 1
 193.187114239 468 l 1
 193.187114239 476 140.064453125 282 140.064453125 274 c 1
 48 274 l 1
 48 282 48 230 48 222 c 1
 124.565429688 222 l 1
 124.565429688 230 66.5654296875 24 66.5654296875 16 c 1
 132.939453125 16 l 1
 132.939453125 24 189.777596587 230 189.777596587 222 c 1
 189.777596587 230 332.621298226 230 332.621298226 222 c 1
 332.621298226 230 277.980695851 24 277.980695851 16 c 1
 340.510292793 16 l 1
 340.510292793 24 395.150895168 230 395.150895168 222 c 1
 554 222 l 1
 554 230 554 282 554 274 c 1
 554 282 409.754965112 282 409.754965112 274 c 1
 409.754965112 282 462.935546875 476 462.935546875 468 c 1
 554 468 l 1
 554 476 554 528 554 520 c 1
 477.407226562 520 l 1
 477.407226562 528 535.407226562 732 535.407226562 724 c 1
 469.043945312 724 l 1
 469.043945312 732 412.206763424 528 412.206763424 520 c 1
 269.352941792 520 l 1
 269.352941792 528 323.993544167 732 323.993544167 724 c 1
 261.474067217 724 l 1
347.222608171 266 m 1
 204.381666531 266 l 1
 255.71947118 460 l 1
 398.56041282 460 l 1
 347.222608171 266 l 1
EndSplineSet
EndChar

StartChar: o
Encoding: 111 111 120
Width: 516
GlyphClass: 1
Flags: W
AnchorPoint: "AccentCenter" 277 687 basechar 0
LayerCount: 2
Back
SplineSet
303 387 m 4
 271 387 247.5 376.666992188 232.5 356 c 0
 217.5 335.333007812 210 301.333007812 210 254 c 0
 210 210.666992188 217.333007812 179.833007812 232 161.5 c 0
 246.666992188 143.166992188 270.333007812 134 303 134 c 0
 334.333007812 134 357.833007812 143.833007812 373.5 163.5 c 0
 389.166992188 183.166992188 397 214.666992188 397 258 c 0
 397 344 365.666992188 387 303 387 c 4
303 528 m 0
 391 528 460.666992188 504.333007812 512 457 c 0
 563.333007812 409.666992188 589 344.333007812 589 261 c 0
 589 177.666992188 563.166992188 112 511.5 64 c 0
 459.833007812 16 390.333007812 -8 303 -8 c 0
 217 -8 148 15.8330078125 96 63.5 c 0
 44 111.166992188 18 176.333007812 18 259 c 0
 18 344.333007812 43.5 410.5 94.5 457.5 c 0
 145.5 504.5 215 528 303 528 c 0
EndSplineSet
Fore
SplineSet
379.180053058 116.4140625 m 0
 353.852606952 71.55859375 312.748417655 48 259.379679144 48 c 0
 215.74024482 48 103 62.798828125 103 258 c 0
 103 393.091796875 160.333007812 472 261.20855615 472 c 0
 356.889721549 472 412 394.130859375 412 260 c 0
 412 200.376953125 401.030273438 152.077148438 379.180053058 116.4140625 c 0
476 256.907226562 m 0
 476 426.90234375 390.0234375 528 261.20855615 528 c 0
 125.922851562 528 40 427.881835938 40 258.96875 c 0
 40 94.2353515625 127.994140625 -8 259.379679144 -8 c 0
 384.099609375 -8 476 96.515625 476 256.907226562 c 0
EndSplineSet
EndChar

StartChar: oacute
Encoding: 243 243 121
Width: 516
GlyphClass: 1
Flags: HW
LayerCount: 2
Back
SplineSet
221 583 m 1
 184 662 l 1
 405 776 l 1
 464 660 l 1
 221 583 l 1
317 387 m 4
 285 387 261.5 376.666666667 246.5 356 c 0
 231.5 335.333333333 224 301.333333333 224 254 c 0
 224 210.666666667 231.333333333 179.833333333 246 161.5 c 0
 260.666666667 143.166666667 284.333333333 134 317 134 c 0
 348.333333333 134 371.833333333 143.833333333 387.5 163.5 c 0
 403.166666667 183.166666667 411 214.666666667 411 258 c 0
 411 344 379.666666667 387 317 387 c 4
317 528 m 0
 405 528 474.666666667 504.333333333 526 457 c 0
 577.333333333 409.666666667 603 344.333333333 603 261 c 0
 603 177.666666667 577.166666667 112 525.5 64 c 0
 473.833333333 16 404.333333333 -8 317 -8 c 0
 231 -8 162 15.8333333333 110 63.5 c 0
 58 111.166666667 32 176.333333333 32 259 c 0
 32 344.333333333 57.5 410.5 108.5 457.5 c 0
 159.5 504.5 229 528 317 528 c 0
EndSplineSet
Fore
Refer: 59 769 N 1 0 0 1 261 -147 2
Refer: 120 111 N 1 0 0 1 0 0 3
EndChar

StartChar: ocircumflex
Encoding: 244 244 122
Width: 516
GlyphClass: 1
Flags: HW
LayerCount: 2
Back
SplineSet
140 646 m 25
 295 776 l 1
 361 776 l 1
 516 646 l 1
 459 575 l 1
 328 681 l 1
 189 575 l 1
 140 646 l 25
317 387 m 4
 285 387 261.5 376.666666667 246.5 356 c 0
 231.5 335.333333333 224 301.333333333 224 254 c 0
 224 210.666666667 231.333333333 179.833333333 246 161.5 c 0
 260.666666667 143.166666667 284.333333333 134 317 134 c 0
 348.333333333 134 371.833333333 143.833333333 387.5 163.5 c 0
 403.166666667 183.166666667 411 214.666666667 411 258 c 0
 411 344 379.666666667 387 317 387 c 4
317 528 m 0
 405 528 474.666666667 504.333333333 526 457 c 0
 577.333333333 409.666666667 603 344.333333333 603 261 c 0
 603 177.666666667 577.166666667 112 525.5 64 c 0
 473.833333333 16 404.333333333 -8 317 -8 c 0
 231 -8 162 15.8333333333 110 63.5 c 0
 58 111.166666667 32 176.333333333 32 259 c 0
 32 344.333333333 57.5 410.5 108.5 457.5 c 0
 159.5 504.5 229 528 317 528 c 0
EndSplineSet
Fore
Refer: 163 770 N 1 0 0 1 261 -147 2
Refer: 120 111 N 1 0 0 1 0 0 3
EndChar

StartChar: odieresis
Encoding: 246 246 123
Width: 516
GlyphClass: 1
Flags: HW
LayerCount: 2
Back
SplineSet
372 683 m 4
 372 702.333333333 378.666666667 718.666666667 392 732 c 0
 405.333333333 745.333333333 421.666666667 752 441 752 c 0
 460.333333333 752 476.666666667 745.333333333 490 732 c 0
 503.333333333 718.666666667 510 702.333333333 510 683 c 0
 510 663.666666667 503.333333333 647.333333333 490 634 c 0
 476.666666667 620.666666667 460.333333333 614 441 614 c 0
 421.666666667 614 405.333333333 620.666666667 392 634 c 0
 378.666666667 647.333333333 372 663.666666667 372 683 c 4
146 683 m 0
 146 702.333333333 152.666666667 718.666666667 166 732 c 0
 179.333333333 745.333333333 195.666666667 752 215 752 c 0
 234.333333333 752 250.666666667 745.333333333 264 732 c 0
 277.333333333 718.666666667 284 702.333333333 284 683 c 0
 284 663.666666667 277.333333333 647.333333333 264 634 c 0
 250.666666667 620.666666667 234.333333333 614 215 614 c 0
 195.666666667 614 179.333333333 620.666666667 166 634 c 0
 152.666666667 647.333333333 146 663.666666667 146 683 c 0
317 387 m 4
 285 387 261.5 376.666666667 246.5 356 c 0
 231.5 335.333333333 224 301.333333333 224 254 c 0
 224 210.666666667 231.333333333 179.833333333 246 161.5 c 0
 260.666666667 143.166666667 284.333333333 134 317 134 c 0
 348.333333333 134 371.833333333 143.833333333 387.5 163.5 c 0
 403.166666667 183.166666667 411 214.666666667 411 258 c 0
 411 344 379.666666667 387 317 387 c 4
317 528 m 0
 405 528 474.666666667 504.333333333 526 457 c 0
 577.333333333 409.666666667 603 344.333333333 603 261 c 0
 603 177.666666667 577.166666667 112 525.5 64 c 0
 473.833333333 16 404.333333333 -8 317 -8 c 0
 231 -8 162 15.8333333333 110 63.5 c 0
 58 111.166666667 32 176.333333333 32 259 c 0
 32 344.333333333 57.5 410.5 108.5 457.5 c 0
 159.5 504.5 229 528 317 528 c 0
EndSplineSet
Fore
Refer: 165 776 N 1 0 0 1 261 -167 2
Refer: 120 111 N 1 0 0 1 0 0 3
EndChar

StartChar: ograve
Encoding: 242 242 124
Width: 516
GlyphClass: 1
Flags: HW
LayerCount: 2
Back
SplineSet
427 583 m 1
 184 660 l 1
 243 776 l 1
 464 662 l 1
 427 583 l 1
317 387 m 4
 285 387 261.5 376.666666667 246.5 356 c 0
 231.5 335.333333333 224 301.333333333 224 254 c 0
 224 210.666666667 231.333333333 179.833333333 246 161.5 c 0
 260.666666667 143.166666667 284.333333333 134 317 134 c 0
 348.333333333 134 371.833333333 143.833333333 387.5 163.5 c 0
 403.166666667 183.166666667 411 214.666666667 411 258 c 0
 411 344 379.666666667 387 317 387 c 4
317 528 m 0
 405 528 474.666666667 504.333333333 526 457 c 0
 577.333333333 409.666666667 603 344.333333333 603 261 c 0
 603 177.666666667 577.166666667 112 525.5 64 c 0
 473.833333333 16 404.333333333 -8 317 -8 c 0
 231 -8 162 15.8333333333 110 63.5 c 0
 58 111.166666667 32 176.333333333 32 259 c 0
 32 344.333333333 57.5 410.5 108.5 457.5 c 0
 159.5 504.5 229 528 317 528 c 0
EndSplineSet
Fore
Refer: 101 768 N 1 0 0 1 261 -147 2
Refer: 120 111 N 1 0 0 1 0 0 3
EndChar

StartChar: one
Encoding: 49 49 125
Width: 518
GlyphClass: 1
Flags: W
LayerCount: 2
Back
SplineSet
59.7998046875 160 m 1
 585.799804688 160 l 1
 585.799804688 0 l 1
 59.7998046875 0 l 1
 59.7998046875 160 l 1
306.799804688 708 m 1
 434.799804688 708 l 1
 434.799804688 0 l 1
 242.799804688 0 l 1
 242.799804688 509 l 1
 68.7998046875 450 l 1
 68.7998046875 620 l 1
 306.799804688 708 l 1
EndSplineSet
Fore
SplineSet
302 69 m 1
 302 77 302 716 302 708 c 1
 239.7578125 708 l 1
 239.7578125 716 56 623.87890625 56 615.87890625 c 1
 56 623.87890625 56 558.770507812 56 550.770507812 c 1
 56 558.770507812 238 654.770507812 238 646.770507812 c 1
 238 654.770507812 238 77 238 69 c 1
 74 69 l 1
 74 77 74 24 74 16 c 1
 452 16 l 1
 452 24 452 77 452 69 c 1
 302 69 l 1
EndSplineSet
EndChar

StartChar: onehalf
Encoding: 189 189 126
Width: 734
GlyphClass: 1
Flags: W
LayerCount: 2
Back
SplineSet
630 150 m 2
 659.333333333 183.333333333 674 217.333333333 674 252 c 0
 674 270 668.333333333 285.166666667 657 297.5 c 0
 645.666666667 309.833333333 630.666666667 316 612 316 c 0
 578.666666667 316 552 304 532 280 c 1
 494 319 l 1
 526 361 566.666666667 382 616 382 c 0
 657.333333333 382 690.666666667 369 716 343 c 0
 741.333333333 317 754 286 754 250 c 0
 754 209.333333333 735.333333333 168.666666667 698 128 c 0
 696.666666667 126.666666667 676.666666667 105.166666667 638 63.5 c 0
 599.333333333 21.8333333333 580 0.666666666667 580 0 c 1
 758 0 l 1
 758 -64 l 1
 498 -64 l 1
 498 4 l 1
 630 150 630 150 630 150 c 2
470 567 m 1
 536 527 l 1
 326 187 l 1
 262 227 l 1
 470 567 l 1
40 373 m 1
 40 437 l 1
 294 437 l 1
 294 373 l 1
 40 373 l 1
134 694 m 1
 34 640 l 1
 34 713 l 1
 144 772 l 1
 214 772 l 1
 214 437 l 1
 134 437 l 1
 134 694 l 1
EndSplineSet
EndChar

StartChar: onequarter
Encoding: 188 188 127
Width: 734
GlyphClass: 1
Flags: W
LayerCount: 2
Back
SplineSet
577 388 m 1
 661 388 l 1
 497 95 l 1
 415 95 l 1
 577 388 l 1
415 31 m 1
 415 95 l 1
 753 95 l 1
 753 31 l 1
 415 31 l 1
615 -64 m 1
 615 192 l 1
 691 192 l 1
 691 -64 l 1
 615 -64 l 1
473 567 m 1
 539 527 l 1
 329 187 l 1
 265 227 l 1
 473 567 l 1
43 373 m 1
 43 437 l 1
 297 437 l 1
 297 373 l 1
 43 373 l 1
137 694 m 1
 37 640 l 1
 37 713 l 1
 147 772 l 1
 217 772 l 1
 217 437 l 1
 137 437 l 1
 137 694 l 1
EndSplineSet
EndChar

StartChar: oslash
Encoding: 248 248 128
Width: 484
GlyphClass: 1
Flags: W
LayerCount: 2
Back
SplineSet
439.400390625 520 m 5
 563.400390625 520 l 1
 159.400390625 0 l 1
 35.400390625 0 l 1
 439.400390625 520 l 5
301.400390625 387 m 4
 269.400390625 387 245.900390625 376.666992188 230.900390625 356 c 0
 215.900390625 335.333007812 208.400390625 301.333007812 208.400390625 254 c 0
 208.400390625 210.666992188 215.733398438 179.833007812 230.400390625 161.5 c 0
 245.067382812 143.166992188 268.733398438 134 301.400390625 134 c 0
 332.733398438 134 356.233398438 143.833007812 371.900390625 163.5 c 0
 387.567382812 183.166992188 395.400390625 214.666992188 395.400390625 258 c 0
 395.400390625 344 364.067382812 387 301.400390625 387 c 4
301.400390625 528 m 0
 389.400390625 528 459.067382812 504.333007812 510.400390625 457 c 0
 561.733398438 409.666992188 587.400390625 344.333007812 587.400390625 261 c 0
 587.400390625 177.666992188 561.567382812 112 509.900390625 64 c 0
 458.233398438 16 388.733398438 -8 301.400390625 -8 c 0
 215.400390625 -8 146.400390625 15.8330078125 94.400390625 63.5 c 0
 42.400390625 111.166992188 16.400390625 176.333007812 16.400390625 259 c 0
 16.400390625 344.333007812 41.900390625 410.5 92.900390625 457.5 c 0
 143.900390625 504.5 213.400390625 528 301.400390625 528 c 0
EndSplineSet
Fore
SplineSet
91.81640625 8 m 1
 463.508789062 512 l 1
 389.692382812 512 l 1
 18 8 l 1
 91.81640625 8 l 1
EndSplineSet
Refer: 120 111 N 1 0 0 1 0 0 2
EndChar

StartChar: otilde
Encoding: 245 245 129
Width: 516
GlyphClass: 1
Flags: HW
LayerCount: 2
Back
SplineSet
109 628 m 1
 115.666666667 667.333333333 130.5 699.333333333 153.5 724 c 0
 176.5 748.666666667 207.666666667 761 247 761 c 0
 265 761 281.833333333 757.5 297.5 750.5 c 0
 313.166666667 743.5 325.5 735.833333333 334.5 727.5 c 0
 343.5 719.166666667 354 711.5 366 704.5 c 0
 378 697.5 389.333333333 694 400 694 c 0
 428 694 444.333333333 713.666666667 449 753 c 1
 547 737 l 1
 538.333333333 690.333333333 522.5 655.833333333 499.5 633.5 c 0
 476.5 611.166666667 444.666666667 600 404 600 c 0
 382 600 362.333333333 605.666666667 345 617 c 0
 327.666666667 628.333333333 312.166666667 639.5 298.5 650.5 c 0
 284.833333333 661.5 271.333333333 667 258 667 c 0
 227.333333333 667 209.333333333 647.333333333 204 608 c 1
 109 628 l 1
317 387 m 4
 285 387 261.5 376.666666667 246.5 356 c 0
 231.5 335.333333333 224 301.333333333 224 254 c 0
 224 210.666666667 231.333333333 179.833333333 246 161.5 c 0
 260.666666667 143.166666667 284.333333333 134 317 134 c 0
 348.333333333 134 371.833333333 143.833333333 387.5 163.5 c 0
 403.166666667 183.166666667 411 214.666666667 411 258 c 0
 411 344 379.666666667 387 317 387 c 4
317 528 m 0
 405 528 474.666666667 504.333333333 526 457 c 0
 577.333333333 409.666666667 603 344.333333333 603 261 c 0
 603 177.666666667 577.166666667 112 525.5 64 c 0
 473.833333333 16 404.333333333 -8 317 -8 c 0
 231 -8 162 15.8333333333 110 63.5 c 0
 58 111.166666667 32 176.333333333 32 259 c 0
 32 344.333333333 57.5 410.5 108.5 457.5 c 0
 159.5 504.5 229 528 317 528 c 0
EndSplineSet
Fore
Refer: 154 771 N 1 0 0 1 261 -158 2
Refer: 120 111 N 1 0 0 1 0 0 3
EndChar

StartChar: p
Encoding: 112 112 130
Width: 558
GlyphClass: 1
Flags: W
LayerCount: 2
Back
SplineSet
348 388 m 4
 306 388 275.333007812 369 256 331 c 1
 256 190 l 1
 266 171.333007812 278.833007812 156.333007812 294.5 145 c 0
 310.166992188 133.666992188 326.666992188 128 344 128 c 0
 408 128 440 172 440 260 c 0
 440 300.666992188 432 332.166992188 416 354.5 c 0
 400 376.833007812 377.333007812 388 348 388 c 4
68 520 m 5
 218 520 l 1
 256 461 l 1
 284.666992188 505.666992188 330.666992188 528 394 528 c 0
 463.333007812 528 520.333007812 502.833007812 565 452.5 c 0
 609.666992188 402.166992188 632 337.666992188 632 259 c 0
 632 179.666992188 610.833007812 115.333007812 568.5 66 c 0
 526.166992188 16.6669921875 471 -8 403 -8 c 0
 336.333007812 -8 287.333007812 12 256 52 c 1
 256 -191 l 1
 68 -191 l 1
 68 520 l 5
EndSplineSet
Fore
SplineSet
144 374.102539062 m 1
 166.29296875 413.592773438 208.848632812 472 296.173913043 472 c 0
 416.631453804 472 446 372.263671875 446 263 c 0
 446 130.923828125 390.094344429 48 296.173913043 48 c 0
 219.23046875 48 176.146484375 94.5703125 144 152.942382812 c 1
 144 374.102539062 l 1
318.086956522 -8 m 0
 431.34765625 -8 510 93.5009765625 510 260 c 0
 510 332.877929688 498.8203125 528 318.086956522 528 c 0
 237.16796875 528 179.856445312 457.446289062 147.44140625 417.541015625 c 1
 147.44140625 423.211914062 127.440429688 527.814453125 127.440429688 519.818359375 c 1
 80 519.818359375 l 1
 80 527.814453125 80 -200.181640625 80 -192 c 1
 144 -192 l 1
 144 -200 144 87.4130859375 144 95.4130859375 c 1
 144 87.4130859375 158.5625 66.5751953125 158.5625 74.5751953125 c 2
 214.016601562 -4.7822265625 304.982464334 -8 318.086956522 -8 c 0
EndSplineSet
EndChar

StartChar: paragraph
Encoding: 182 182 131
Width: 511
GlyphClass: 1
Flags: W
LayerCount: 2
Back
SplineSet
42.2998046875 547 m 0
 42.2998046875 593.666992188 58.2998046875 632 90.2998046875 662 c 0
 122.299804688 692 163.633789062 707 214.299804688 707 c 2
 302.299804688 707 l 1
 302.299804688 544 l 1
 302.299804688 372 l 1
 302.299804688 372 302.299804688 372 214.299804688 372 c 2
 162.299804688 372 120.633789062 388 89.2998046875 420 c 0
 57.966796875 452 42.2998046875 494.333007812 42.2998046875 547 c 0
230.299804688 372 m 1
 302.299804688 372 l 1
 302.299804688 0 l 1
 230.299804688 0 l 1
 230.299804688 372 l 1
446.299804688 60 m 1
 513.299804688 60 l 1
 513.299804688 0 l 1
 446.299804688 0 l 1
 446.299804688 60 l 1
446.299804688 707 m 1
 513.299804688 707 l 1
 513.299804688 648 l 1
 446.299804688 648 l 1
 446.299804688 707 l 1
374.299804688 707 m 1
 446.299804688 707 l 1
 446.299804688 0 l 1
 374.299804688 0 l 1
 374.299804688 707 l 1
EndSplineSet
Fore
SplineSet
482 708 m 1
 354.955512153 708 l 1
 354.955512153 716 354.955512153 24 354.955512153 16 c 1
 482 16 l 1
 482 24 482 73 482 65 c 1
 414 65 l 1
 414 73 414 668 414 660 c 1
 482 660 l 1
 482 668 482 716 482 708 c 1
204 708 m 2
 106.822265625 708 38 643.34375 38 552 c 0
 38 448.970703125 102.236328125 383 204 383 c 2
 226 383 l 1
 226 391 226 24 226 16 c 1
 286 16 l 1
 286 24 286 716 286 708 c 1
 204 708 l 2
EndSplineSet
EndChar

StartChar: parenleft
Encoding: 40 40 132
Width: 283
GlyphClass: 1
Flags: W
LayerCount: 2
Back
SplineSet
198.599609375 800 m 1
 382.599609375 800 l 1
 335.93359375 759.333007812 295.93359375 703.5 262.599609375 632.5 c 0
 229.266601562 561.5 212.599609375 474.333007812 212.599609375 371 c 0
 212.599609375 265 229.099609375 174.666992188 262.099609375 100 c 0
 295.099609375 25.3330078125 335.266601562 -29.3330078125 382.599609375 -64 c 1
 203.599609375 -64 l 1
 146.266601562 -17.3330078125 101.43359375 43 69.099609375 117 c 0
 36.7666015625 191 20.599609375 275.666992188 20.599609375 371 c 0
 20.599609375 458.333007812 36.93359375 540.833007812 69.599609375 618.5 c 0
 102.266601562 696.166992188 145.266601562 756.666992188 198.599609375 800 c 1
EndSplineSet
Fore
SplineSet
86 368 m 0
 86 620.215820312 202.239257812 752.514648438 256.202148438 800 c 1
 191.842773438 800 l 1
 80.6279296875 707.120117188 24 563.82421875 24 368 c 0
 24 196.478515625 80.0693359375 24.8955078125 185.850585938 -64 c 1
 257.715820312 -64 l 1
 123.77734375 67.8515625 86 228.869140625 86 368 c 0
EndSplineSet
EndChar

StartChar: parenright
Encoding: 41 41 133
Width: 284
GlyphClass: 1
Flags: W
LayerCount: 2
Back
SplineSet
20.7255859375 800 m 1
 204.725585938 800 l 1
 258.05859375 756.666992188 301.05859375 696.166992188 333.725585938 618.5 c 0
 366.392578125 540.833007812 382.725585938 458.333007812 382.725585938 371 c 0
 382.725585938 275.666992188 366.55859375 191 334.225585938 117 c 0
 301.892578125 43 257.05859375 -17.3330078125 199.725585938 -64 c 1
 20.7255859375 -64 l 1
 68.05859375 -29.3330078125 108.225585938 25.3330078125 141.225585938 100 c 0
 174.225585938 174.666992188 190.725585938 265 190.725585938 371 c 0
 190.725585938 474.333007812 174.05859375 561.5 140.725585938 632.5 c 0
 107.392578125 703.5 67.392578125 759.333007812 20.7255859375 800 c 1
EndSplineSet
Fore
SplineSet
245.490234375 371 m 0
 245.490234375 644.012695312 121.13671875 767.48828125 82.6328125 800 c 1
 12 800 l 1
 125.086914062 696.309570312 181.490234375 552.7734375 181.490234375 371 c 0
 181.490234375 134.654296875 78.38671875 -5.82421875 12.390625 -64 c 1
 76.6669921875 -64 l 1
 188.837890625 28.8623046875 245.490234375 173.13671875 245.490234375 371 c 0
EndSplineSet
EndChar

StartChar: percent
Encoding: 37 37 134
Width: 752
GlyphClass: 1
Flags: HWO
LayerCount: 2
Back
SplineSet
630.099609375 252 m 0
 590.099609375 252 570.099609375 227 570.099609375 177 c 0
 570.099609375 126.333007812 590.099609375 101 630.099609375 101 c 0
 670.099609375 101 690.099609375 126.333007812 690.099609375 177 c 0
 690.099609375 227 670.099609375 252 630.099609375 252 c 0
630.099609375 361 m 0
 672.099609375 361 707.099609375 351.333007812 735.099609375 332 c 0
 763.099609375 312.666992188 782.43359375 289.833007812 793.099609375 263.5 c 0
 803.766601562 237.166992188 809.099609375 208.333007812 809.099609375 177 c 0
 809.099609375 145.666992188 803.766601562 116.833007812 793.099609375 90.5 c 0
 782.43359375 64.1669921875 763.099609375 41.3330078125 735.099609375 22 c 0
 707.099609375 2.6669921875 672.099609375 -7 630.099609375 -7 c 0
 570.099609375 -7 525.266601562 11.3330078125 495.599609375 48 c 0
 465.93359375 84.6669921875 451.099609375 127.666992188 451.099609375 177 c 0
 451.099609375 226.333007812 465.93359375 269.333007812 495.599609375 306 c 0
 525.266601562 342.666992188 570.099609375 361 630.099609375 361 c 0
198.099609375 608 m 0
 158.099609375 608 138.099609375 583 138.099609375 533 c 0
 138.099609375 482.333007812 158.099609375 457 198.099609375 457 c 0
 238.099609375 457 258.099609375 482.333007812 258.099609375 533 c 0
 258.099609375 583 238.099609375 608 198.099609375 608 c 0
198.099609375 716 m 0
 240.099609375 716 275.099609375 706.333007812 303.099609375 687 c 0
 331.099609375 667.666992188 350.43359375 644.833007812 361.099609375 618.5 c 0
 371.766601562 592.166992188 377.099609375 563.333007812 377.099609375 532 c 0
 377.099609375 500.666992188 371.766601562 471.833007812 361.099609375 445.5 c 0
 350.43359375 419.166992188 331.099609375 396.333007812 303.099609375 377 c 0
 275.099609375 357.666992188 240.099609375 348 198.099609375 348 c 0
 138.099609375 348 93.2666015625 366.333007812 63.599609375 403 c 0
 33.93359375 439.666992188 19.099609375 482.666992188 19.099609375 532 c 0
 19.099609375 581.333007812 33.93359375 624.333007812 63.599609375 661 c 0
 93.2666015625 697.666992188 138.099609375 716 198.099609375 716 c 0
593.099609375 708 m 1
 716.099609375 708 l 1
 245.099609375 0 l 1
 121.099609375 0 l 1
 593.099609375 708 l 1
EndSplineSet
Fore
SplineSet
208.405273438 16 m 1
 208.405273438 24 606.475065104 716 606.475065104 708 c 1
 544.58984375 708 l 1
 544.58984375 716 139.9453125 24 139.9453125 16 c 1
 208.405273438 16 l 1
674.01328125 149 m 0
 674.01328125 244.55859375 625.637369792 306 549 306 c 0
 463.818359375 306 408 244.55859375 408 149 c 0
 408 53.44140625 463.818359375 -8 549 -8 c 0
 625.637369792 -8 674.01328125 53.44140625 674.01328125 149 c 0
546 46 m 0
 509.7734375 46 469 64.17578125 469 146 c 0
 469 166.999023438 469.123046875 251 545 251 c 0
 610.625976562 251 615.546875 173.108398438 615.546875 146 c 0
 615.546875 98.9541015625 603.41796875 46 546 46 c 0
203 457 m 0
 166.7734375 457 126 475.17578125 126 557 c 0
 126 605.926757812 139.8125 661 202 661 c 0
 272.013671875 661 280 588.51953125 280 558 c 0
 280 536.740234375 279.431640625 457 203 457 c 0
344 559 m 0
 344 654.55859375 288.181640625 716 203 716 c 0
 117.818359375 716 62 654.55859375 62 559 c 0
 62 464.3359375 116.938476562 401 203 401 c 0
 289.061523438 401 344 464.3359375 344 559 c 0
EndSplineSet
EndChar

StartChar: period
Encoding: 46 46 135
Width: 174
GlyphClass: 1
Flags: W
LayerCount: 2
Back
SplineSet
127 196 m 4
 156.333007812 196 180.666992188 187 200 169 c 0
 219.333007812 151 229 126 229 94 c 0
 229 61.3330078125 219.333007812 36.1669921875 200 18.5 c 0
 180.666992188 0.8330078125 156.333007812 -8 127 -8 c 0
 97.6669921875 -8 73.3330078125 0.8330078125 54 18.5 c 0
 34.6669921875 36.1669921875 25 61.3330078125 25 94 c 0
 25 126 34.6669921875 151 54 169 c 0
 73.3330078125 187 97.6669921875 196 127 196 c 4
EndSplineSet
Fore
SplineSet
142 47 m 0
 142 76.0556640625 121.387695312 102 86 102 c 0
 50.0888671875 102 32 74.59765625 32 47 c 0
 32 19.40234375 50.0888671875 -8 86 -8 c 0
 121.387695312 -8 142 17.9443359375 142 47 c 0
EndSplineSet
EndChar

StartChar: plus
Encoding: 43 43 136
Width: 549
GlyphClass: 1
Flags: W
LayerCount: 2
Back
SplineSet
222.450195312 480 m 5
 350.450195312 480 l 1
 350.450195312 331 l 1
 504.450195312 331 l 1
 504.450195312 203 l 1
 350.450195312 203 l 1
 350.450195312 54 l 1
 222.450195312 54 l 1
 222.450195312 203 l 1
 68.4501953125 203 l 1
 68.4501953125 331 l 1
 222.450195312 331 l 1
 222.450195312 480 l 5
EndSplineSet
Fore
SplineSet
300 299 m 1
 300 471 l 1
 236 471 l 1
 236 299 l 1
 81 299 l 1
 81 235 l 1
 236 235 l 1
 236 62 l 1
 300 62 l 1
 300 235 l 1
 459 235 l 1
 459 299 l 1
 300 299 l 1
EndSplineSet
EndChar

StartChar: q
Encoding: 113 113 137
Width: 566
GlyphClass: 1
Flags: W
LayerCount: 2
Back
SplineSet
448.799804688 520 m 1
 598.799804688 520 l 1
 598.799804688 -191 l 1
 410.799804688 -191 l 1
 410.799804688 53 l 1
 378.799804688 12.3330078125 329.799804688 -8 263.799804688 -8 c 0
 195.799804688 -8 140.633789062 16.6669921875 98.2998046875 66 c 0
 55.966796875 115.333007812 34.7998046875 179.666992188 34.7998046875 259 c 0
 34.7998046875 339 56.1337890625 403.833007812 98.7998046875 453.5 c 0
 141.466796875 503.166992188 197.133789062 528 265.799804688 528 c 0
 297.133789062 528 325.799804688 521.5 351.799804688 508.5 c 0
 377.799804688 495.5 397.466796875 477.666992188 410.799804688 455 c 1
 448.799804688 520 l 1
318.799804688 388 m 0
 290.133789062 388 267.633789062 376.333007812 251.299804688 353 c 0
 234.966796875 329.666992188 226.799804688 297.333007812 226.799804688 256 c 0
 226.799804688 170.666992188 258.799804688 128 322.799804688 128 c 0
 360.799804688 128 390.133789062 147.666992188 410.799804688 187 c 1
 410.799804688 332 l 1
 388.799804688 369.333007812 358.133789062 388 318.799804688 388 c 0
EndSplineSet
Fore
SplineSet
277.199983016 48 m 0
 181.068359375 48 120 132.864257812 120 263 c 0
 120 359.854492188 144.189453125 472 277.199983016 472 c 0
 318.668563179 472 380.403320312 451.940429688 422 374.061523438 c 1
 422 153.657226562 l 1
 421.56640625 152.397460938 l 2
 399.379882812 87.951171875 344.713485054 48 277.199983016 48 c 0
412.002929688 438.720703125 m 2
 363.066193954 498.880859375 312.114087976 528 257.113026495 528 c 0
 159.767578125 528 56 475.870117188 56 260 c 0
 56 87.1494140625 129.583984375 -8 252.547809103 -8 c 0
 329.360266644 -8 370.755731997 32.0029296875 422 81.2197265625 c 1
 422 73.2197265625 422 -199 422 -191 c 1
 486 -191 l 1
 486 -199.181640625 486 527.813476562 486 519.818359375 c 1
 438.750976562 519.818359375 l 1
 438.750976562 527.813476562 423.073242188 431.760742188 423.073242188 425.90234375 c 1
 423.073242188 431.760742188 412.002929688 444.87109375 412.002929688 438.720703125 c 2
EndSplineSet
EndChar

StartChar: question
Encoding: 63 63 138
Width: 478
GlyphClass: 1
Flags: W
LayerCount: 2
Back
SplineSet
256.712890625 197 m 0
 284.712890625 197 308.712890625 187 328.712890625 167 c 0
 348.712890625 147 358.712890625 123 358.712890625 95 c 0
 358.712890625 67 348.712890625 43 328.712890625 23 c 0
 308.712890625 3 284.712890625 -7 256.712890625 -7 c 0
 228.712890625 -7 204.712890625 3 184.712890625 23 c 0
 164.712890625 43 154.712890625 67 154.712890625 95 c 0
 154.712890625 123 164.712890625 147 184.712890625 167 c 0
 204.712890625 187 228.712890625 197 256.712890625 197 c 0
280.712890625 732 m 0
 349.37890625 732 408.545898438 715.333007812 458.212890625 682 c 0
 507.87890625 648.666992188 532.712890625 602.666992188 532.712890625 544 c 0
 532.712890625 462 497.37890625 403.333007812 426.712890625 368 c 0
 418.712890625 364 407.545898438 359 393.212890625 353 c 0
 378.87890625 347 368.545898438 342.5 362.212890625 339.5 c 0
 355.87890625 336.5 349.87890625 331.5 344.212890625 324.5 c 0
 338.545898438 317.5 335.712890625 309.666992188 335.712890625 301 c 2
 335.712890625 240 l 1
 165.712890625 220 l 1
 156.37890625 237.333007812 151.712890625 259.666992188 151.712890625 287 c 0
 151.712890625 357 182.712890625 406.666992188 244.712890625 436 c 0
 250.712890625 438.666992188 259.87890625 442.833007812 272.212890625 448.5 c 0
 284.545898438 454.166992188 293.045898438 458.166992188 297.712890625 460.5 c 0
 302.37890625 462.833007812 308.545898438 466.333007812 316.212890625 471 c 0
 323.87890625 475.666992188 329.212890625 480 332.212890625 484 c 0
 335.212890625 488 338.045898438 493.166992188 340.712890625 499.5 c 0
 343.37890625 505.833007812 344.712890625 512.666992188 344.712890625 520 c 0
 344.712890625 534 338.212890625 547 325.212890625 559 c 0
 312.212890625 571 292.37890625 577 265.712890625 577 c 0
 217.045898438 577 180.37890625 554.666992188 155.712890625 510 c 1
 26.712890625 604 l 1
 58.712890625 651.333007812 94.87890625 684.5 135.212890625 703.5 c 0
 175.545898438 722.5 224.045898438 732 280.712890625 732 c 0
EndSplineSet
Fore
SplineSet
67.591796875 624.067382812 m 1
 120.01171875 662.03125 172.201171875 681 224.75 681 c 0
 265.186523438 681 351.75 675.353515625 351.75 563 c 0
 351.75 516.012695312 334.7734375 478.44140625 318.866210938 451.8515625 c 0
 235.705078125 383.719726562 185.75 337.189453125 185.75 246 c 0
 185.75 229.607421875 187.27734375 212.470703125 191.044921875 193.796875 c 1
 191.044921875 201.796875 243.166992188 207.928710938 243.166992188 199.928710938 c 1
 241.051757812 211.696289062 239.75 225.203125 239.75 240 c 0
 239.75 323.461914062 252.9921875 334.750976562 360.564453125 440.08984375 c 0
 392.583984375 467.400390625 414.75 514.297851562 414.75 564 c 0
 414.75 723.75 259.514648438 732 224.75 732 c 0
 163.548828125 732 103.107421875 711.98046875 44 670.489257812 c 1
 44 678.489257812 67.591796875 632.067382812 67.591796875 624.067382812 c 1
283.75 55 m 0
 283.75 83.197265625 262.872070312 111 227.75 111 c 0
 191.013671875 111 173.75 82.841796875 173.75 55 c 0
 173.75 26.5478515625 191.573242188 1 227.75 1 c 0
 262.326171875 1 283.75 26.18359375 283.75 55 c 0
EndSplineSet
EndChar

StartChar: questiondown
Encoding: 191 191 139
Width: 494
GlyphClass: 1
Flags: W
LayerCount: 2
Back
SplineSet
357.264648438 454 m 4
 357.264648438 434 350.09765625 416.833007812 335.764648438 402.5 c 0
 321.430664062 388.166992188 304.264648438 381 284.264648438 381 c 0
 264.264648438 381 247.09765625 388.166992188 232.764648438 402.5 c 0
 218.430664062 416.833007812 211.264648438 434 211.264648438 454 c 0
 211.264648438 474 218.430664062 491.166992188 232.764648438 505.5 c 0
 247.09765625 519.833007812 264.264648438 527 284.264648438 527 c 0
 304.264648438 527 321.430664062 519.833007812 335.764648438 505.5 c 0
 350.09765625 491.166992188 357.264648438 474 357.264648438 454 c 4
508.264648438 -93 m 5
 465.59765625 -173 391.930664062 -213 287.264648438 -213 c 0
 221.264648438 -213 168.264648438 -196.166992188 128.264648438 -162.5 c 0
 88.2646484375 -128.833007812 68.2646484375 -82 68.2646484375 -22 c 0
 68.2646484375 56 101.930664062 118.666992188 169.264648438 166 c 0
 214.59765625 198 237.264648438 236.666992188 237.264648438 282 c 0
 237.264648438 290.666992188 235.59765625 302.666992188 232.264648438 318 c 1
 351.264648438 335 l 1
 355.264648438 313 357.264648438 294.666992188 357.264648438 280 c 0
 357.264648438 243.333007812 350.59765625 212.166992188 337.264648438 186.5 c 0
 323.930664062 160.833007812 302.930664062 137.666992188 274.264648438 117 c 0
 246.264648438 97 226.264648438 77.5 214.264648438 58.5 c 0
 202.264648438 39.5 196.264648438 15.3330078125 196.264648438 -14 c 0
 196.264648438 -43.3330078125 205.764648438 -65.8330078125 224.764648438 -81.5 c 0
 243.764648438 -97.1669921875 268.930664062 -105 300.264648438 -105 c 0
 327.59765625 -105 352.09765625 -98.5 373.764648438 -85.5 c 0
 395.430664062 -72.5 410.930664062 -54.3330078125 420.264648438 -31 c 1
 508.264648438 -93 l 5
EndSplineSet
Fore
Refer: 138 63 N -1 0 -0 -1 513 521 2
EndChar

StartChar: quotedbl
Encoding: 34 34 140
Width: 313
GlyphClass: 1
Flags: W
LayerCount: 2
Back
SplineSet
56.5146484375 772 m 1
 172.514648438 772 l 1
 156.514648438 520 l 1
 72.5146484375 520 l 1
 56.5146484375 772 l 1
255.514648438 772 m 1
 371.514648438 772 l 1
 355.514648438 520 l 1
 271.514648438 520 l 1
 255.514648438 772 l 1
EndSplineSet
Fore
SplineSet
94.9892578125 536 m 1
 94.9892578125 544 103.41796875 780 103.41796875 772 c 1
 42 772 l 1
 42 780 50.4287109375 544 50.4287109375 536 c 1
 94.9892578125 536 l 1
261.989257812 536 m 1
 261.989257812 544 270.41796875 780 270.41796875 772 c 1
 209 772 l 1
 209 780 217.428710938 544 217.428710938 536 c 1
 261.989257812 536 l 1
EndSplineSet
EndChar

StartChar: quotesingle
Encoding: 39 39 141
Width: 142
GlyphClass: 1
Flags: W
LayerCount: 2
Back
SplineSet
150.4140625 768 m 5
 134.4140625 527 l 1
 50.4140625 527 l 1
 34.4140625 768 l 1
 150.4140625 768 l 5
EndSplineSet
Fore
SplineSet
92.990234375 531 m 1
 92.990234375 539 101.4296875 780 101.4296875 772 c 1
 40 772 l 1
 40 780 48.439453125 539 48.439453125 531 c 1
 92.990234375 531 l 1
EndSplineSet
EndChar

StartChar: r
Encoding: 114 114 142
Width: 350
GlyphClass: 1
Flags: W
LayerCount: 2
Back
SplineSet
60 520 m 1
 201 520 l 1
 229 420 l 1
 233.666992188 452.666992188 249.166992188 478.833007812 275.5 498.5 c 0
 301.833007812 518.166992188 334 528 372 528 c 0
 388.666992188 528 402.333007812 526.666992188 413 524 c 1
 399 376 l 1
 359 376 l 2
 310.333007812 376 274.666992188 354.666992188 252 312 c 1
 252 0 l 1
 60 0 l 1
 60 520 l 1
EndSplineSet
Fore
SplineSet
126.712890625 512 m 1
 80 512 l 1
 80 8 l 1
 144 8 l 1
 144 397.302734375 l 1
 147.614257812 403.059570312 149.241210938 405.484375 151.79296875 409.041992188 c 1
 126.712890625 512 l 1
324.298828125 524.018554688 m 1
 303.73046875 526.444335938 281.635742188 528 258 528 c 0
 172.778320312 528 160 485.020507812 160 450 c 2
 160 458 160 435.612304688 160 427.612304688 c 1
 186.672851562 459.311523438 221.143554688 476 262 476 c 2
 319.725585938 476 l 1
 319.725585938 484 324.298828125 532.018554688 324.298828125 524.018554688 c 1
EndSplineSet
EndChar

